<svg xmlns="http://www.w3.org/2000/svg" viewBox="0 0 900 68" width="100%">
  <defs>
    <linearGradient id="g" x1="0%" y1="0%" x2="100%" y2="0%">
      <stop offset="0%" stop-color="#FF6B35"/>
      <stop offset="100%" stop-color="#FF9F1C"/>
    </linearGradient>
  </defs>
  <rect width="900" height="68" rx="12" fill="url(#g)"/>
  <path d="M392.73400000000004 14.760000000000002Q392.73400000000004 13.792000000000002 392.03000000000003 13.792000000000002Q391.898 13.792000000000002 391.062 14.056000000000001Q390.182 14.32 389.918 14.32H387.982Q386.22200000000004 14.32 382.74600000000004 13.792000000000002Q379.358 13.219999999999999 377.51 13.219999999999999Q371.30600000000004 13.219999999999999 371.30600000000004 17.312Q371.30600000000004 18.368000000000002 373.63800000000003 20.964000000000002Q375.97 23.560000000000002 375.97 24.66Q375.97 25.672 373.022 30.072000000000003Q372.406 31.04 371.812 32.316Q371.218 33.592 370.73400000000004 35.132000000000005Q369.766 38.124 369.72200000000004 40.544Q369.678 42.04 369.72200000000004 45.12Q369.72200000000004 46.0 370.954 46.0Q371.13 46.0 371.61400000000003 45.956Q372.098 45.912 372.23 45.912Q372.45000000000005 45.912 372.846 45.912Q373.286 45.912 373.99 45.956Q374.694 46.0 375.134 46.0Q375.574 46.0 375.75 46.0Q376.586 46.0 376.586 45.472Q376.586 45.296 376.454 44.944Q375.706 43.228 375.706 40.808Q375.706 38.344 376.278 36.76Q377.774 32.403999999999996 380.72200000000004 32.403999999999996Q381.558 32.403999999999996 382.43800000000005 32.844Q383.362 33.24 383.45000000000005 33.24Q383.89000000000004 33.24 384.33000000000004 32.536Q384.77000000000004 31.92 385.1 31.458000000000002Q385.43 30.996000000000002 385.694 30.732Q385.826 30.468000000000004 386.046 30.380000000000003Q386.22200000000004 30.380000000000003 386.22200000000004 31.172Q386.22200000000004 32.316 386.15600000000006 33.812Q386.09000000000003 35.308 386.002 37.2Q385.826 39.752 385.73800000000006 41.38Q385.65000000000003 43.008 385.606 43.712Q385.606 43.844 385.386 44.636Q385.21000000000004 45.296 385.21000000000004 45.56Q385.21000000000004 46.0 386.31 46.132Q388.642 46.396 391.634 46.132Q392.514 46.044 392.42600000000004 45.384Q391.942 41.16 391.722 37.486Q391.502 33.812 391.546 30.6Q391.634 27.3 391.81 22.636000000000003Q392.16200000000003 16.256 392.646 15.200000000000003Q392.73400000000004 14.848000000000003 392.73400000000004 14.760000000000002ZM386.22200000000004 28.62Q386.22200000000004 29.060000000000002 385.51800000000003 28.62Q384.022 27.52 382.61400000000003 27.52Q381.206 27.52 378.434 29.236Q378.17 29.412000000000003 377.994 29.456Q378.038 29.368000000000002 378.038 29.016000000000002Q379.358 26.068 379.358 23.384Q379.358 22.504 378.56600000000003 20.656000000000002Q377.81800000000004 18.676000000000002 377.81800000000004 18.060000000000002Q377.81800000000004 16.608 380.28200000000004 16.608Q380.502 16.608 380.876 16.630000000000003Q381.25 16.652 381.822 16.696Q384.022 16.916 385.166 18.5Q386.22200000000004 19.952 386.22200000000004 22.196Z" fill="white"/>
  <path d="M412.622 34.56Q412.622 30.16 411.346 27.080000000000002Q409.542 22.856 405.758 22.856Q403.338 22.856 401.446 24.572000000000003Q401.314 24.704 401.182 24.704Q400.918 24.704 400.874 24.132Q400.742 22.152 401.27 16.476000000000003Q401.358 15.464000000000002 400.83 15.420000000000002H400.742Q400.522 15.420000000000002 399.73 15.816000000000003Q398.498 16.432000000000002 397.31 16.96Q396.122 17.488000000000003 394.978 17.972Q394.538 18.148000000000003 394.538 18.412000000000003Q394.714 18.764000000000003 394.802 18.940000000000005Q394.89 19.116000000000003 394.89 19.116000000000003Q395.858 20.876 395.858 22.636000000000003V41.996Q396.386 44.504 398.63 45.912Q400.654 47.056 403.382 47.056Q408.31 47.056 410.686 43.096000000000004Q412.622 39.84 412.622 34.56ZM406.682 35.748000000000005Q406.682 40.192 406.286 41.556Q405.538 44.196 403.46999999999997 44.196Q401.05 44.196 401.05 40.544V30.204Q401.842 26.772000000000002 404.218 26.772000000000002Q405.626 26.772000000000002 406.286 28.752000000000002Q406.682 29.94 406.682 35.748000000000005Z" fill="white"/>
  <path d="M430.75 34.34Q430.75 29.676000000000002 428.902 26.288Q426.65799999999996 22.196 422.30199999999996 22.196Q420.19 22.196 418.82599999999996 23.032Q417.10999999999996 24.044 417.10999999999996 25.98Q417.10999999999996 27.388 418.43 27.96Q414.07399999999996 30.292 414.07399999999996 35.704Q414.07399999999996 40.236000000000004 415.92199999999997 43.052Q418.078 46.352 422.346 46.352Q426.52599999999995 46.352 428.858 42.26Q430.75 38.916 430.75 34.34ZM427.53799999999995 35.528Q427.53799999999995 37.728 426.48199999999997 39.224000000000004Q425.294 40.896 423.18199999999996 40.896Q420.894 40.896 419.618 38.696Q418.518 36.892 418.518 34.384Q418.518 29.632 421.818 29.148Q422.30199999999996 29.060000000000002 422.30199999999996 28.708000000000002Q422.30199999999996 27.96 420.894 27.608Q421.51 27.256 422.962 27.872Q425.118 28.708000000000002 426.394 30.996000000000002Q427.53799999999995 33.064 427.53799999999995 35.528Z" fill="white"/>
  <path d="M448.92199999999997 44.9Q448.21799999999996 42.084 448.21799999999996 33.988Q448.21799999999996 32.008 448.37199999999996 29.786Q448.52599999999995 27.564 448.83399999999995 25.056Q449.00999999999993 23.692 448.174 23.648Q445.53399999999993 23.516000000000002 443.37799999999993 23.648Q442.76199999999994 23.692 442.93799999999993 25.32Q443.114 26.728 443.202 28.664Q443.28999999999996 30.6 443.28999999999996 33.064Q443.28999999999996 35.0 443.246 36.275999999999996Q443.20199999999994 37.552 443.114 38.168Q442.93799999999993 39.796 442.18999999999994 41.116Q441.26599999999996 42.876 439.94599999999997 42.876Q438.49399999999997 42.876 438.09799999999996 40.544Q438.00999999999993 40.06 437.96599999999995 38.982Q437.92199999999997 37.903999999999996 437.92199999999997 36.275999999999996Q437.92199999999997 31.172 438.186 27.124000000000002Q438.186 27.036 438.25199999999995 26.706000000000003Q438.318 26.376 438.40599999999995 25.848000000000003Q438.66999999999996 24.792 438.66999999999996 24.44Q438.66999999999996 23.648 437.70199999999994 23.648Q434.006 23.560000000000002 433.38999999999993 23.648Q432.50999999999993 23.736 432.50999999999993 24.484Q432.50999999999993 25.056 432.554 25.848Q432.59799999999996 26.64 432.686 27.696Q432.77399999999994 28.708000000000002 432.8399999999999 29.5Q432.90599999999995 30.292 432.90599999999995 30.776000000000003Q432.90599999999995 31.26 432.90599999999995 32.228Q432.90599999999995 33.196 432.86199999999997 34.648Q432.818 35.968 432.818 37.112Q432.818 38.212 432.77399999999994 39.092Q432.72999999999996 40.06 432.72999999999996 40.192Q432.72999999999996 40.324 432.72999999999996 39.62Q432.72999999999996 46.44 438.186 46.44Q441.222 46.44 442.58599999999996 44.944Q442.8059999999999 44.724 442.93799999999993 44.724Q443.06999999999994 44.724 443.15799999999996 45.384Q443.28999999999996 46.0 444.126 46.0H448.26199999999994Q449.186 46.0 448.92199999999997 44.9Z" fill="white"/>
  <path d="M460.71399999999994 24.616Q460.71399999999994 23.868000000000002 460.09799999999996 23.648Q459.87799999999993 23.604000000000003 459.56999999999994 23.582Q459.26199999999994 23.560000000000002 458.86599999999993 23.560000000000002H458.11799999999994Q458.11799999999994 20.656000000000002 458.24999999999994 20.128Q458.38199999999995 18.94 458.4699999999999 18.148000000000003Q458.55799999999994 17.356 458.6019999999999 17.004Q458.6019999999999 16.388 458.20599999999996 16.388Q457.94199999999995 16.388 457.50199999999995 16.652Q455.8739999999999 17.532 454.5539999999999 18.148000000000003Q453.2339999999999 18.764000000000003 452.13399999999996 19.116000000000003Q451.56199999999995 19.292 451.56199999999995 19.776Q451.56199999999995 20.128 451.8259999999999 20.568Q452.5299999999999 21.8 452.70599999999996 23.560000000000002H452.3539999999999Q450.6379999999999 23.560000000000002 450.6379999999999 24.616Q450.6379999999999 25.452 452.30999999999995 25.452H452.88199999999995Q452.92599999999993 25.804000000000002 452.92599999999993 26.64Q452.92599999999993 27.432000000000002 452.92599999999993 28.796Q452.92599999999993 33.68 452.72799999999995 37.617999999999995Q452.5299999999999 41.556 452.17799999999994 44.592Q452.00199999999995 45.956 452.8379999999999 46.0Q455.74199999999996 46.044 458.1619999999999 46.0Q458.7779999999999 45.956 458.6019999999999 44.328Q458.24999999999994 41.468 458.0519999999999 39.532000000000004Q457.8539999999999 37.596000000000004 457.8979999999999 36.584L458.07399999999996 25.452H458.82199999999995Q460.71399999999994 25.452 460.71399999999994 24.616Z" fill="white"/>
  <path d="M512.8979999999999 17.136000000000003Q512.8979999999999 16.080000000000002 512.3259999999999 14.628Q512.0619999999999 13.880000000000003 511.578 13.880000000000003Q511.40199999999993 13.880000000000003 511.1379999999999 14.012Q510.16999999999996 14.496000000000002 508.98199999999997 14.496000000000002Q508.2339999999999 14.496000000000002 506.95799999999997 14.188000000000002Q505.72599999999994 13.880000000000003 504.97799999999995 13.880000000000003Q503.70199999999994 13.880000000000003 500.92999999999995 14.760000000000002Q498.37799999999993 15.596 496.88199999999995 15.596Q495.60599999999994 15.596 492.83399999999995 14.716000000000001Q490.19399999999996 13.792000000000002 489.04999999999995 13.792000000000002Q488.34599999999995 13.792000000000002 486.98199999999997 14.188000000000002Q485.48599999999993 14.540000000000003 484.82599999999996 14.540000000000003Q484.65 14.540000000000003 483.68199999999996 14.32Q482.80199999999996 14.056000000000001 482.58199999999994 14.056000000000001Q480.7339999999999 14.056000000000001 480.7339999999999 17.312Q480.7339999999999 19.16 481.70199999999994 22.504Q482.71399999999994 25.936 482.71399999999994 27.652Q482.71399999999994 29.852 481.34999999999997 34.736000000000004Q480.90999999999997 36.232 480.602 39.664Q479.98599999999993 45.516 479.98599999999993 45.516Q479.94199999999995 45.34 479.94199999999995 45.208Q479.94199999999995 45.076 479.89799999999997 44.9Q479.94199999999995 46.0 480.7339999999999 46.0H485.7939999999999Q486.32199999999995 46.0 486.32199999999995 45.296Q486.32199999999995 44.944 486.256 44.394000000000005Q486.18999999999994 43.844 486.102 43.096000000000004Q486.01399999999995 42.348 485.9699999999999 41.775999999999996Q485.92599999999993 41.204 485.92599999999993 40.852000000000004Q485.92599999999993 38.96 486.49799999999993 35.572Q487.06999999999994 32.184 487.06999999999994 30.292Q487.06999999999994 27.212 485.96999999999997 24.836000000000002L483.68199999999996 19.732000000000003Q483.46199999999993 19.204 483.46199999999993 18.984Q483.46199999999993 18.896 483.54999999999995 18.896Q483.98999999999995 19.116000000000003 484.12199999999996 19.204Q485.48599999999993 20.128 486.89399999999995 20.128Q487.90599999999995 20.128 490.06199999999995 19.116000000000003Q492.174 18.060000000000002 492.39399999999995 18.060000000000002Q494.15399999999994 18.060000000000002 494.15399999999994 22.724Q494.15399999999994 31.304000000000002 492.96599999999995 42.172Q492.92199999999997 42.392 492.856 42.766000000000005Q492.78999999999996 43.14 492.614 43.712Q492.34999999999997 44.724 492.34999999999997 45.34Q492.34999999999997 46.0 493.1859999999999 46.0H499.08199999999994Q499.8299999999999 46.0 499.8299999999999 45.296Q499.8299999999999 44.724 499.566 43.712Q499.38999999999993 43.096000000000004 499.32399999999996 42.722Q499.2579999999999 42.348 499.21399999999994 42.128Q498.6859999999999 38.256 498.6859999999999 33.636Q498.6859999999999 28.884 499.21399999999994 21.272000000000002Q499.38999999999993 18.192 501.2819999999999 18.192L503.21799999999996 19.204Q505.15399999999994 20.216 506.69399999999996 20.216Q508.102 20.216 509.2459999999999 19.468Q509.37799999999993 19.424000000000003 509.50999999999993 19.468Q509.6859999999999 19.512 509.6859999999999 19.688000000000002Q509.6859999999999 19.82 509.554 19.996000000000002Q505.54999999999995 25.98 505.54999999999995 32.228Q505.54999999999995 32.932 505.6379999999999 33.944Q505.72599999999994 34.956 505.90199999999993 36.364000000000004Q506.078 37.772 506.16599999999994 38.784Q506.25399999999996 39.796 506.25399999999996 40.5Q506.25399999999996 41.424 506.12199999999996 42.480000000000004Q505.68199999999996 44.196 505.68199999999996 45.34Q505.68199999999996 46.0 506.65 46.0H511.006Q512.0179999999999 46.0 512.0179999999999 44.504Q512.0179999999999 43.096000000000004 511.79799999999994 41.072Q511.578 39.048 511.1379999999999 36.276Q510.6979999999999 33.504000000000005 510.47799999999995 31.480000000000004Q510.2579999999999 29.456 510.2579999999999 28.048000000000002Q510.2579999999999 26.200000000000003 511.5779999999999 22.504Q512.8979999999999 18.808 512.8979999999999 17.136000000000003Z" fill="white"/>
  <path d="M530.322 40.896Q530.4979999999999 39.928 529.75 39.928Q529.354 39.928 528.914 40.588Q527.638 42.436 525.218 42.436Q522.6659999999999 42.436 521.038 39.796Q520.6419999999999 39.136 521.2139999999999 38.608000000000004Q522.578 37.464 523.8979999999999 36.298Q525.218 35.132000000000005 526.582 33.988Q530.146 30.644 530.146 28.356Q530.146 25.716 528.4079999999999 24.352000000000004Q526.67 22.988000000000003 523.986 22.988000000000003Q519.146 22.988000000000003 516.638 27.872Q514.658 31.700000000000003 514.658 37.068Q514.658 41.028 516.638 43.844Q518.794 47.056 522.578 47.056Q525.526 47.056 527.66 45.428Q529.794 43.8 530.322 40.896ZM524.822 28.928Q524.822 31.436 522.534 33.856Q520.9499999999999 35.572 519.806 36.188Q519.322 34.648 519.322 32.668Q519.322 30.424 519.938 28.488Q520.818 25.892 522.71 25.892Q523.722 25.892 524.338 26.948Q524.822 27.828 524.822 28.928Z" fill="white"/>
</svg>