<svg xmlns="http://www.w3.org/2000/svg" viewBox="0 0 900 70" width="900" height="70">
  <rect x="1" y="1" width="898" height="68" rx="16" fill="#181825" stroke="#313244" stroke-width="1.5"/>
  <rect x="26" y="18" width="7" height="34" rx="3.5" fill="#fab387"/>
  <path d="M545 710Q545 732 529 732Q526 732 507 726Q487 720 481 720H437Q397 720 318 732Q241 745 199 745Q58 745 58 652Q58 628 111.0 569.0Q164 510 164 485Q164 462 97 362Q83 340 69.5 311.0Q56 282 45 247Q23 179 22 124Q21 90 22 20Q22 0 50 0Q54 0 65.0 1.0Q76 2 79 2Q84 2 93 2Q103 2 119.0 1.0Q135 0 145 0Q155 0 159 0Q178 0 178 12Q178 16 175 24Q158 63 158 118Q158 174 171 210Q205 309 272 309Q291 309 311 299Q332 290 334 290Q344 290 354 306Q364 320 371.5 330.5Q379 341 385 347Q388 353 393 355Q397 355 397 337Q397 311 395.5 277.0Q394 243 392 200Q388 142 386.0 105.0Q384 68 383 52Q383 49 378 31Q374 16 374 10Q374 0 399 -3Q452 -9 520 -3Q540 -1 538 14Q527 110 522.0 193.5Q517 277 518 350Q520 425 524 531Q532 676 543 700Q545 708 545 710ZM397 395Q397 385 381 395Q347 420 315 420Q283 420 220 381Q214 377 210 376Q211 378 211 386Q241 453 241 514Q241 534 223 576Q206 621 206 635Q206 668 262 668Q267 668 275.5 667.5Q284 667 297 666Q347 661 373 625Q397 592 397 541ZM997 260Q997 360 968 430Q927 526 841 526Q786 526 743 487Q740 484 737 484Q731 484 730 497Q727 542 739 671Q741 694 729 695H727Q722 695 704 686Q676 672 649.0 660.0Q622 648 596 637Q586 633 586 627Q590 619 592.0 615.0Q594 611 594 611Q616 571 616 531V91Q628 34 679 2Q725 -24 787 -24Q899 -24 953 66Q997 140 997 260ZM862 233Q862 132 853 101Q836 41 789 41Q734 41 734 124V359Q752 437 806 437Q838 437 853 392Q862 365 862 233ZM1409 265Q1409 371 1367 448Q1316 541 1217 541Q1169 541 1138 522Q1099 499 1099 455Q1099 423 1129 410Q1030 357 1030 234Q1030 131 1072 67Q1121 -8 1218 -8Q1313 -8 1366 85Q1409 161 1409 265ZM1336 238Q1336 188 1312 154Q1285 116 1237 116Q1185 116 1156 166Q1131 207 1131 264Q1131 372 1206 383Q1217 385 1217 393Q1217 410 1185 418Q1199 426 1232 412Q1281 393 1310 341Q1336 294 1336 238ZM1822 25Q1806 89 1806 273Q1806 318 1809.5 368.5Q1813 419 1820 476Q1824 507 1805 508Q1745 511 1696 508Q1682 507 1686 470Q1690 438 1692.0 394.0Q1694 350 1694 294Q1694 250 1693.0 221.0Q1692 192 1690 178Q1686 141 1669 111Q1648 71 1618 71Q1585 71 1576 124Q1574 135 1573.0 159.5Q1572 184 1572 221Q1572 337 1578 429Q1578 431 1579.5 438.5Q1581 446 1583 458Q1589 482 1589 490Q1589 508 1567 508Q1483 510 1469 508Q1449 506 1449 489Q1449 476 1450.0 458.0Q1451 440 1453 416Q1455 393 1456.5 375.0Q1458 357 1458 346Q1458 335 1458 313Q1458 291 1457 258Q1456 228 1456 202Q1456 177 1455 157Q1454 135 1454 132Q1454 129 1454 145Q1454 -10 1578 -10Q1647 -10 1678 24Q1683 29 1686 29Q1689 29 1691 14Q1694 0 1713 0H1807Q1828 0 1822 25ZM2090 486Q2090 503 2076 508Q2071 509 2064.0 509.5Q2057 510 2048 510H2031Q2031 576 2034 588Q2037 615 2039.0 633.0Q2041 651 2042 659Q2042 673 2033 673Q2027 673 2017 667Q1980 647 1950.0 633.0Q1920 619 1895 611Q1882 607 1882 596Q1882 588 1888 578Q1904 550 1908 510H1900Q1861 510 1861 486Q1861 467 1899 467H1912Q1913 459 1913 440Q1913 422 1913 391Q1913 280 1908.5 190.5Q1904 101 1896 32Q1892 1 1911 0Q1977 -1 2032 0Q2046 1 2042 38Q2034 103 2029.5 147.0Q2025 191 2026 214L2030 467H2047Q2090 467 2090 486ZM3276 656Q3276 680 3263 713Q3257 730 3246 730Q3242 730 3236 727Q3214 716 3187 716Q3170 716 3141 723Q3113 730 3096 730Q3067 730 3004 710Q2946 691 2912 691Q2883 691 2820 711Q2760 732 2734 732Q2718 732 2687 723Q2653 715 2638 715Q2634 715 2612 720Q2592 726 2587 726Q2545 726 2545 652Q2545 610 2567 534Q2590 456 2590 417Q2590 367 2559 256Q2549 222 2542 144Q2528 11 2528 11Q2527 15 2527 18Q2527 21 2526 25Q2527 0 2545 0H2660Q2672 0 2672 16Q2672 24 2670.5 36.5Q2669 49 2667.0 66.0Q2665 83 2664.0 96.0Q2663 109 2663 117Q2663 160 2676.0 237.0Q2689 314 2689 357Q2689 427 2664 481L2612 597Q2607 609 2607 614Q2607 616 2609 616Q2619 611 2622 609Q2653 588 2685 588Q2708 588 2757 611Q2805 635 2810 635Q2850 635 2850 529Q2850 334 2823 87Q2822 82 2820.5 73.5Q2819 65 2815 52Q2809 29 2809 15Q2809 0 2828 0H2962Q2979 0 2979 16Q2979 29 2973 52Q2969 66 2967.5 74.5Q2966 83 2965 88Q2953 176 2953 281Q2953 389 2965 562Q2969 632 3012 632L3056 609Q3100 586 3135 586Q3167 586 3193 603Q3196 604 3199 603Q3203 602 3203 598Q3203 595 3200 591Q3109 455 3109 313Q3109 297 3111.0 274.0Q3113 251 3117.0 219.0Q3121 187 3123.0 164.0Q3125 141 3125 125Q3125 104 3122 80Q3112 41 3112 15Q3112 0 3134 0H3233Q3256 0 3256 34Q3256 66 3251.0 112.0Q3246 158 3236.0 221.0Q3226 284 3221.0 330.0Q3216 376 3216 408Q3216 450 3246.0 534.0Q3276 618 3276 656ZM3672 116Q3676 138 3659 138Q3650 138 3640 123Q3611 81 3556 81Q3498 81 3461 141Q3452 156 3465 168Q3496 194 3526.0 220.5Q3556 247 3587 273Q3668 349 3668 401Q3668 461 3628.5 492.0Q3589 523 3528 523Q3418 523 3361 412Q3316 325 3316 203Q3316 113 3361 49Q3410 -24 3496 -24Q3563 -24 3611.5 13.0Q3660 50 3672 116ZM3547 388Q3547 331 3495 276Q3459 237 3433 223Q3422 258 3422 303Q3422 354 3436 398Q3456 457 3499 457Q3522 457 3536 433Q3547 413 3547 388Z" fill="#fab387" transform="translate(51.00,54.46) scale(0.04000,-0.04000)"/>
  <circle cx="842" cy="35" r="3.5" fill="#45475a"/>
  <circle cx="856" cy="35" r="3.5" fill="#fab387" opacity="0.5"/>
  <circle cx="870" cy="35" r="3.5" fill="#fab387"/>
</svg>