<svg xmlns="http://www.w3.org/2000/svg" viewBox="0 0 195 46" width="195" height="46">
  <rect x="1" y="1" width="193" height="44" rx="12" fill="#181825" stroke="#313244" stroke-width="1.5"/>
  <rect x="14" y="11" width="5" height="24" rx="2.5" fill="#fab387"/>
  <path d="M529 212Q529 304 427 423Q420 430 420 436Q420 444 433 458Q493 525 493 604Q493 635 482.0 660.5Q471 686 451.5 704.0Q432 722 405.5 732.0Q379 742 347 742Q330 742 305.0 740.5Q280 739 246.0 735.0Q212 731 187.0 729.5Q162 728 145 728Q98 728 55 736Q50 737 46.0 737.5Q42 738 40 738Q23 738 27 716Q51 590 51 386Q51 338 49.0 294.5Q47 251 43 212L25 36Q23 15 28.5 9.0Q34 3 55 2Q78 1 106.5 1.5Q135 2 169 4Q188 5 193.5 9.0Q199 13 197 28Q173 215 173 292Q173 318 189 322Q223 332 265 352Q271 355 277 355Q289 355 308 338Q409 243 409 146Q409 109 396 84Q380 50 347 50Q313 50 313 86Q313 101 327 113Q347 123 350 124Q362 140 353 154Q331 190 286 192Q268 192 252.0 185.0Q236 178 224.0 166.0Q212 154 205.0 137.5Q198 121 198 103Q198 48 240 17Q277 -10 335 -10Q428 -10 481 55Q529 115 529 212ZM355 604Q355 518 315 474Q286 441 197 400Q183 394 180 394Q172 394 172 417Q172 501 172 547Q172 593 171 601Q170 581 170 562Q170 544 169 525Q170 672 276 672Q311 672 333.0 654.0Q355 636 355 604ZM944 25Q928 89 928 273Q928 318 931.5 368.5Q935 419 942 476Q946 507 927 508Q867 511 818 508Q804 507 808 470Q812 438 814.0 394.0Q816 350 816 294Q816 250 815.0 221.0Q814 192 812 178Q808 141 791 111Q770 71 740 71Q707 71 698 124Q696 135 695.0 159.5Q694 184 694 221Q694 337 700 429Q700 431 701.5 438.5Q703 446 705 458Q711 482 711 490Q711 508 689 508Q605 510 591 508Q571 506 571 489Q571 476 572.0 458.0Q573 440 575 416Q577 393 578.5 375.0Q580 357 580 346Q580 335 580 313Q580 291 579 258Q578 228 578 202Q578 177 577 157Q576 135 576 132Q576 129 576 145Q576 -10 700 -10Q769 -10 800 24Q805 29 808 29Q811 29 813 14Q816 0 835 0H929Q950 0 944 25ZM1129 621Q1128 647 1109.0 666.0Q1090 685 1064.0 684.0Q1038 683 1019.0 664.0Q1000 645 1001.0 619.0Q1002 593 1021.0 574.0Q1040 555 1066.0 556.0Q1092 557 1111.0 576.0Q1130 595 1129 621ZM1122 462Q1129 510 1106 510H1018Q997 510 997 488Q997 482 998 478Q1004 446 1004 240Q1004 183 1000.5 131.5Q997 80 990 32Q985 0 1010 0H1053H1078H1096Q1123 0 1120 46Q1115 127 1112.5 185.0Q1110 243 1110 280Q1110 387 1122 462ZM1328 689Q1328 708 1317 708Q1311 708 1301 702Q1272 685 1243.5 672.0Q1215 659 1188 649Q1167 641 1167 631Q1167 625 1172 613Q1179 598 1184.0 575.5Q1189 553 1191 522Q1192 515 1192 483Q1192 451 1192 391Q1192 126 1180 32Q1176 1 1195 0Q1261 -1 1316 0Q1330 1 1326 38Q1318 107 1313.5 151.0Q1309 195 1310 214L1321 605Q1322 615 1322 620Q1322 626 1322 627Q1326 677 1328 689ZM1762 17Q1762 20 1757.0 38.0Q1752 56 1752 58Q1749 125 1749 119L1754 522Q1755 586 1757.0 622.5Q1759 659 1761 669Q1769 698 1753 698Q1747 698 1743 695L1679 665Q1625 639 1625 634Q1625 631 1631 615Q1644 579 1646 561Q1647 557 1647 505Q1647 491 1642 491Q1639 491 1633 497Q1610 519 1597 527Q1580 536 1550 536Q1461 536 1408 444Q1364 367 1364 270Q1364 -5 1511 -5Q1574 -5 1622 46Q1629 55 1636 55Q1640 55 1640 46Q1639 -5 1637 9Q1652 1 1662 0Q1696 -1 1745 0Q1762 2 1762 17ZM1651 297Q1651 82 1578 78Q1522 75 1497 156Q1480 213 1480 280Q1480 357 1494 390Q1504 411 1509.5 423.0Q1515 435 1517 438Q1537 467 1569 467Q1613 467 1635 400Q1651 355 1651 297ZM2730 314Q2730 327 2725 332L2687 371Q2661 396 2642 395L2630 394L2614 366Q2604 350 2604 338L2578 282Q2565 253 2536 236Q2512 250 2484 296L2442 364Q2509 470 2509 531Q2509 581 2472 612Q2434 645 2385 645Q2344 645 2304 607Q2265 569 2265 528Q2265 499 2298 445Q2332 388 2335 361Q2321 329 2254 242Q2203 177 2203 119Q2203 63 2261 29Q2307 1 2350 1Q2377 1 2450.0 53.0Q2523 105 2536 105Q2554 101 2563 82L2578 50Q2583 33 2583 20Q2583 -16 2563 -39Q2515 -45 2494 -45Q2464 -62 2464 -95L2474 -116Q2486 -141 2516 -141Q2543 -141 2572 -125Q2645 -88 2639 4L2637 37Q2602 131 2583 172Q2626 242 2728 299Q2730 307 2730 314ZM2434 523Q2434 505 2423 472Q2409 434 2393 433Q2375 446 2362.0 476.0Q2349 506 2349 531Q2349 570 2391 570Q2434 570 2434 523ZM2482 180 2481 175Q2434 136 2389 136Q2332 136 2332 185Q2332 214 2351 253Q2372 296 2396 301L2444 244Q2482 198 2482 180ZM3678 201Q3678 280 3642 342Q3598 416 3525 416Q3486 416 3455 392Q3423 368 3423 331Q3423 288 3468 258Q3478 251 3488 258Q3499 263 3500 275Q3504 302 3537 302Q3565 302 3583.5 279.0Q3602 256 3602 225Q3602 174 3563 141Q3525 108 3473 108Q3397 108 3352 178Q3313 239 3313 318Q3313 391 3342.5 460.5Q3372 530 3426 581Q3442 597 3457 597Q3462 597 3473 594Q3512 583 3547 583Q3596 583 3631 611Q3671 641 3668 688Q3666 722 3650 739Q3641 748 3626 740Q3603 727 3581 727Q3570 727 3552.0 728.5Q3534 730 3511 732Q3464 738 3443 738Q3250 738 3186 638Q3162 600 3162 586Q3162 561 3185 561Q3196 561 3207 572Q3262 627 3319 627Q3339 627 3353 621Q3368 615 3351 604Q3268 548 3219 461Q3167 370 3167 274Q3167 151 3235 65Q3308 -28 3430 -23Q3533 -18 3602 39Q3678 103 3678 201ZM4095 265Q4095 371 4053 448Q4002 541 3903 541Q3855 541 3824 522Q3785 499 3785 455Q3785 423 3815 410Q3716 357 3716 234Q3716 131 3758 67Q3807 -8 3904 -8Q3999 -8 4052 85Q4095 161 4095 265ZM4022 238Q4022 188 3998 154Q3971 116 3923 116Q3871 116 3842 166Q3817 207 3817 264Q3817 372 3892 383Q3903 385 3903 393Q3903 410 3871 418Q3885 426 3918 412Q3967 393 3996 341Q4022 294 4022 238ZM4511 265Q4511 371 4469 448Q4418 541 4319 541Q4271 541 4240 522Q4201 499 4201 455Q4201 423 4231 410Q4132 357 4132 234Q4132 131 4174 67Q4223 -8 4320 -8Q4415 -8 4468 85Q4511 161 4511 265ZM4438 238Q4438 188 4414 154Q4387 116 4339 116Q4287 116 4258 166Q4233 207 4233 264Q4233 372 4308 383Q4319 385 4319 393Q4319 410 4287 418Q4301 426 4334 412Q4383 393 4412 341Q4438 294 4438 238ZM4708 689Q4708 708 4697 708Q4691 708 4681 702Q4652 685 4623.5 672.0Q4595 659 4568 649Q4547 641 4547 631Q4547 625 4552 613Q4559 598 4564.0 575.5Q4569 553 4571 522Q4572 515 4572 483Q4572 451 4572 391Q4572 126 4560 32Q4556 1 4575 0Q4641 -1 4696 0Q4710 1 4706 38Q4698 107 4693.5 151.0Q4689 195 4690 214L4701 605Q4702 615 4702 620Q4702 626 4702 627Q4706 677 4708 689ZM4890 621Q4889 647 4870.0 666.0Q4851 685 4825.0 684.0Q4799 683 4780.0 664.0Q4761 645 4762.0 619.0Q4763 593 4782.0 574.0Q4801 555 4827.0 556.0Q4853 557 4872.0 576.0Q4891 595 4890 621ZM4883 462Q4890 510 4867 510H4779Q4758 510 4758 488Q4758 482 4759 478Q4765 446 4765 240Q4765 183 4761.5 131.5Q4758 80 4751 32Q4746 0 4771 0H4814H4839H4857Q4884 0 4881 46Q4876 127 4873.5 185.0Q4871 243 4871 280Q4871 387 4883 462ZM5308 19Q5308 29 5307 31Q5301 61 5299.5 96.0Q5298 131 5297 162Q5296 182 5296.5 207.0Q5297 232 5298 264Q5301 343 5301 365Q5302 442 5281 477Q5254 520 5179 520Q5110 520 5079 484Q5074 479 5071 479Q5066 479 5066 492Q5066 507 5044 508Q5029 509 4954 508Q4933 508 4939 483Q4949 443 4949 235Q4949 190 4945.5 139.5Q4942 89 4935 32Q4931 2 4946 0Q4990 -2 5055 0Q5067 2 5068 15L5065 38Q5061 69 5059.0 112.5Q5057 156 5057 214Q5057 260 5058.0 289.0Q5059 318 5061 330Q5067 368 5088 400Q5113 439 5147 439Q5180 439 5188 386Q5190 371 5190.5 346.5Q5191 322 5189 287L5179 79Q5179 73 5173 49Q5168 24 5168 18Q5168 0 5190 0H5288Q5308 0 5308 19ZM5752 462Q5752 470 5732 476Q5725 478 5718.0 479.0Q5711 480 5704 482Q5681 493 5664.5 500.5Q5648 508 5640 512Q5601 524 5570 524Q5464 522 5403 433Q5350 354 5348 244Q5346 85 5458 12Q5473 1 5473 -5Q5473 -11 5446 -36Q5387 -92 5380 -96Q5362 -110 5362 -121Q5362 -131 5376 -148Q5434 -220 5522 -220Q5622 -220 5684 -136Q5740 -60 5740 42Q5740 64 5737.5 96.5Q5735 129 5730.0 174.0Q5725 219 5722.5 251.5Q5720 284 5720 306Q5720 379 5744 438Q5752 459 5752 462ZM5614 125Q5614 95 5581 95Q5531 95 5489 195Q5453 280 5453 339Q5453 380 5470 411Q5491 448 5530 448Q5552 448 5572 434Q5575 432 5605 404Q5605 384 5602 344Q5601 324 5600.5 309.0Q5600 294 5600 284Q5600 270 5601.5 250.0Q5603 230 5607.0 204.0Q5611 178 5612.5 158.5Q5614 139 5614 125ZM5647 -51Q5647 -87 5621.0 -116.0Q5595 -145 5561 -145Q5537 -145 5507 -114Q5476 -84 5484 -67Q5485 -66 5485.5 -65.0Q5486 -64 5487 -63Q5518 -35 5548.5 -8.5Q5579 18 5610 44Q5624 55 5628 55Q5634 55 5636 49Q5647 19 5647 -51Z" fill="#fab387" transform="translate(31.00,35.16) scale(0.02500,-0.02500)"/>
</svg>