<svg xmlns="http://www.w3.org/2000/svg" viewBox="0 0 195 46" width="195" height="46">
  <rect x="1" y="1" width="193" height="44" rx="12" fill="#181825" stroke="#313244" stroke-width="1.5"/>
  <rect x="14" y="11" width="5" height="24" rx="2.5" fill="#fab387"/>
  <path d="M530 334Q530 425 509 505Q450 729 261 729Q234 729 180 723Q127 717 100 717Q64 717 48 730Q21 712 21 654Q21 566 122 566Q133 566 150.0 567.5Q167 569 190.0 573.0Q213 577 230.0 578.5Q247 580 258 580Q340 580 379 480Q398 432 412 363Q428 292 428 243Q428 178 404 120Q372 43 318 43Q282 43 284 66Q286 83 309 89Q322 92 322 103Q322 107 319 112Q295 147 262 147Q200 147 178 65Q171 75 171 234Q171 254 172.0 288.0Q173 322 175 370Q176 414 181 482Q187 579 187 536Q187 558 168 558H73Q47 558 47 533Q47 517 48.0 494.5Q49 472 51.0 441.0Q53 410 54.0 387.5Q55 365 55 349Q55 277 51.0 197.5Q47 118 39 27Q38 4 34 -9Q33 -8 33 12Q33 -1 45 -1H166Q185 -1 185 16Q185 28 194 18Q228 -21 288 -21Q411 -21 477 101Q530 201 530 334ZM923 116Q927 138 910 138Q901 138 891 123Q862 81 807 81Q749 81 712 141Q703 156 716 168Q747 194 777.0 220.5Q807 247 838 273Q919 349 919 401Q919 461 879.5 492.0Q840 523 779 523Q669 523 612 412Q567 325 567 203Q567 113 612 49Q661 -24 747 -24Q814 -24 862.5 13.0Q911 50 923 116ZM798 388Q798 331 746 276Q710 237 684 223Q673 258 673 303Q673 354 687 398Q707 457 750 457Q773 457 787 433Q798 413 798 388ZM1351 424Q1351 472 1323.5 503.0Q1296 534 1251 534Q1220 534 1197 517Q1171 497 1171 468Q1171 419 1198 419Q1200 419 1208.0 421.0Q1216 423 1219 423Q1263 423 1263 349Q1263 303 1241 250Q1227 218 1217.0 194.0Q1207 170 1200 154Q1195 143 1187 143Q1181 143 1175 153Q1102 277 1102 407Q1102 428 1102.5 441.5Q1103 455 1104 461Q1104 460 1109 478Q1115 494 1115 499Q1115 512 1097 512Q1031 513 976 512Q959 512 959 494Q959 495 974 450Q991 367 1002.0 317.0Q1013 267 1018 248Q1057 87 1120 11Q1137 -9 1152 -9Q1169 -9 1189 15Q1247 91 1297 210Q1351 339 1351 424ZM1894 368Q1894 518 1831 625Q1754 754 1616 754Q1573 754 1539 727Q1502 699 1508 656Q1512 623 1540 602Q1386 527 1386 324Q1386 192 1444 98Q1514 -14 1636 -14Q1779 -14 1843 113Q1894 212 1894 368ZM1816 358Q1816 273 1787 213Q1749 136 1672 136Q1580 136 1531 218Q1487 291 1494 384Q1496 420 1500.5 446.0Q1505 472 1510 488Q1528 542 1570 542Q1580 542 1588.0 534.0Q1596 526 1596 516V494Q1609 481 1630 482Q1647 483 1658.5 496.5Q1670 510 1670 528Q1670 565 1636 587Q1608 606 1568 608Q1584 626 1618 626Q1716 626 1770 537Q1816 463 1816 358ZM2372 262Q2372 539 2199 539Q2131 539 2090 486Q2083 476 2077 476Q2071 476 2072 486Q2072 487 2074.0 494.0Q2076 501 2075 505Q2064 513 2050 514Q2011 518 1957 514Q1940 512 1940 497Q1940 475 1950 456Q1949 417 1947 395L1951 251Q1954 143 1954 107Q1954 77 1953.0 45.0Q1952 13 1950 -22Q1943 -156 1939 -169Q1931 -198 1947 -198Q1952 -198 1957 -195Q2031 -154 2069 -142Q2095 -134 2095 -124Q2095 -122 2089 -105Q2067 -48 2067 33Q2067 48 2072 48H2073Q2075 48 2080 43Q2120 -9 2181 -9Q2271 -9 2326 85Q2372 162 2372 262ZM2254 193Q2254 142 2246 120Q2220 54 2179 54Q2153 54 2151 74Q2150 83 2155.5 91.5Q2161 100 2169 100Q2185 99 2189.0 103.5Q2193 108 2192 124Q2191 145 2174.0 162.0Q2157 179 2136 179Q2091 179 2064 133Q2064 140 2063.5 150.5Q2063 161 2062.0 175.0Q2061 189 2061 199Q2061 210 2061 217Q2061 436 2146 436Q2187 436 2216 382Q2254 309 2254 193ZM2756 132Q2756 212 2707 257Q2674 287 2589 319Q2518 344 2505 352Q2462 374 2462 408Q2462 424 2474.0 435.0Q2486 446 2503 446Q2521 446 2570 421Q2620 396 2648 396Q2714 396 2714 464Q2714 484 2706 495Q2696 510 2677 502Q2663 496 2641 496Q2625 496 2587.0 504.0Q2549 512 2533 512Q2505 512 2481.5 502.0Q2458 492 2441.5 475.0Q2425 458 2416.0 433.5Q2407 409 2407 381Q2407 311 2439.5 270.0Q2472 229 2535 208L2649 169Q2702 143 2702 110Q2702 75 2656 75Q2634 75 2578.0 100.0Q2522 125 2491 125Q2452 125 2429.0 103.0Q2406 81 2406 43Q2406 -3 2427 -3Q2432 -3 2434 -2Q2446 4 2458.0 10.0Q2470 16 2492 16Q2512 16 2561.0 5.0Q2610 -6 2632 -6Q2690 -6 2724 34Q2756 72 2756 132ZM3718 314Q3718 327 3713 332L3675 371Q3649 396 3630 395L3618 394L3602 366Q3592 350 3592 338L3566 282Q3553 253 3524 236Q3500 250 3472 296L3430 364Q3497 470 3497 531Q3497 581 3460 612Q3422 645 3373 645Q3332 645 3292 607Q3253 569 3253 528Q3253 499 3286 445Q3320 388 3323 361Q3309 329 3242 242Q3191 177 3191 119Q3191 63 3249 29Q3295 1 3338 1Q3365 1 3438.0 53.0Q3511 105 3524 105Q3542 101 3551 82L3566 50Q3571 33 3571 20Q3571 -16 3551 -39Q3503 -45 3482 -45Q3452 -62 3452 -95L3462 -116Q3474 -141 3504 -141Q3531 -141 3560 -125Q3633 -88 3627 4L3625 37Q3590 131 3571 172Q3614 242 3716 299Q3718 307 3718 314ZM3422 523Q3422 505 3411 472Q3397 434 3381 433Q3363 446 3350.0 476.0Q3337 506 3337 531Q3337 570 3379 570Q3422 570 3422 523ZM3470 180 3469 175Q3422 136 3377 136Q3320 136 3320 185Q3320 214 3339 253Q3360 296 3384 301L3432 244Q3470 198 3470 180ZM4315 685Q4315 706 4284 707Q4237 708 4194 707Q4164 705 4164 685Q4165 683 4170 655Q4177 615 4180.5 584.0Q4184 553 4184 530V403Q4184 313 4177.5 231.0Q4171 149 4158 71Q4152 36 4152 17Q4152 0 4172 0H4292Q4315 0 4312 21Q4303 91 4298.0 166.0Q4293 241 4292 323Q4291 401 4295.5 483.0Q4300 565 4308 653Q4308 656 4311.5 668.5Q4315 681 4315 685ZM4734 19Q4734 29 4733 31Q4727 61 4725.5 96.0Q4724 131 4723 162Q4722 182 4722.5 207.0Q4723 232 4724 264Q4727 343 4727 365Q4728 442 4707 477Q4680 520 4605 520Q4536 520 4505 484Q4500 479 4497 479Q4492 479 4492 492Q4492 507 4470 508Q4455 509 4380 508Q4359 508 4365 483Q4375 443 4375 235Q4375 190 4371.5 139.5Q4368 89 4361 32Q4357 2 4372 0Q4416 -2 4481 0Q4493 2 4494 15L4491 38Q4487 69 4485.0 112.5Q4483 156 4483 214Q4483 260 4484.0 289.0Q4485 318 4487 330Q4493 368 4514 400Q4539 439 4573 439Q4606 439 4614 386Q4616 371 4616.5 346.5Q4617 322 4615 287L4605 79Q4605 73 4599 49Q4594 24 4594 18Q4594 0 4616 0H4714Q4734 0 4734 19ZM5014 667Q5014 687 4995 699Q4988 689 4965 689Q4957 689 4946.5 690.5Q4936 692 4924 694Q4884 702 4874 702Q4834 702 4809.0 677.0Q4784 652 4784 612Q4784 601 4798 548Q4807 515 4811 515Q4812 515 4812 522Q4812 516 4792 508Q4773 501 4772 488Q4770 467 4804 467Q4827 467 4827 447V76Q4827 72 4825.5 64.5Q4824 57 4822 45Q4817 20 4817 14Q4817 2 4834 0Q4882 -2 4932 0Q4950 1 4950 16Q4950 21 4945 46Q4943 58 4942.0 65.5Q4941 73 4941 76V449Q4941 459 4973.0 467.0Q5005 475 5005 488Q5005 505 4990 508H4959Q4939 508 4939 520Q4939 540 4899 562Q4879 574 4869.0 580.0Q4859 586 4859 586Q4859 596 4875 596Q4881 596 4890.5 594.0Q4900 592 4909.5 590.0Q4919 588 4928.5 586.0Q4938 584 4944 584Q5014 584 5014 667ZM5346 486Q5346 520 5294 520Q5235 520 5194 476Q5189 471 5186 471Q5181 471 5181 483Q5181 507 5159 508Q5144 509 5069 508Q5047 508 5054 483Q5076 414 5076 235Q5076 190 5072.5 139.5Q5069 89 5062 32Q5058 2 5073 0Q5117 -2 5182 0Q5194 2 5195 15L5192 38Q5188 69 5186.0 112.5Q5184 156 5184 214Q5184 311 5188 330Q5203 411 5230 411Q5249 411 5259 401L5284 367Q5297 349 5304 349Q5312 349 5316 368Q5322 388 5326.5 402.5Q5331 417 5334 427Q5346 466 5346 486ZM5761 23Q5754 75 5751.0 136.0Q5748 197 5748 269Q5748 321 5749.5 375.0Q5751 429 5755 486Q5756 499 5746 504Q5736 508 5723 504Q5698 499 5669 499Q5645 499 5599 505Q5552 511 5529 511Q5403 511 5403 421Q5403 388 5425.5 368.0Q5448 348 5482 348Q5501 348 5522.5 362.0Q5544 376 5551 393Q5561 417 5546 426Q5532 434 5546 448Q5551 453 5570 453Q5624 453 5633 383V343Q5622 338 5607.0 334.5Q5592 331 5573 329Q5487 322 5435 276Q5378 226 5378 142Q5378 -14 5509 -14Q5578 -14 5624 23Q5634 32 5636 18Q5637 -1 5669 -1H5712Q5715 0 5715 0Q5764 0 5761 23ZM5637 254Q5637 199 5634 135Q5633 110 5606 86Q5580 62 5555 62Q5502 62 5502 150Q5502 219 5533 244Q5541 251 5561.0 259.5Q5581 268 5613 278Q5621 280 5625 280Q5637 280 5637 254Z" fill="#fab387" transform="translate(31.00,35.16) scale(0.02500,-0.02500)"/>
</svg>