<svg xmlns="http://www.w3.org/2000/svg" viewBox="0 0 126 46" width="126" height="46">
  <rect x="1" y="1" width="124" height="44" rx="12" fill="#181825" stroke="#313244" stroke-width="1.5"/>
  <rect x="14" y="11" width="5" height="24" rx="2.5" fill="#fab387"/>
  <path d="M529 212Q529 304 427 423Q420 430 420 436Q420 444 433 458Q493 525 493 604Q493 635 482.0 660.5Q471 686 451.5 704.0Q432 722 405.5 732.0Q379 742 347 742Q330 742 305.0 740.5Q280 739 246.0 735.0Q212 731 187.0 729.5Q162 728 145 728Q98 728 55 736Q50 737 46.0 737.5Q42 738 40 738Q23 738 27 716Q51 590 51 386Q51 338 49.0 294.5Q47 251 43 212L25 36Q23 15 28.5 9.0Q34 3 55 2Q78 1 106.5 1.5Q135 2 169 4Q188 5 193.5 9.0Q199 13 197 28Q173 215 173 292Q173 318 189 322Q223 332 265 352Q271 355 277 355Q289 355 308 338Q409 243 409 146Q409 109 396 84Q380 50 347 50Q313 50 313 86Q313 101 327 113Q347 123 350 124Q362 140 353 154Q331 190 286 192Q268 192 252.0 185.0Q236 178 224.0 166.0Q212 154 205.0 137.5Q198 121 198 103Q198 48 240 17Q277 -10 335 -10Q428 -10 481 55Q529 115 529 212ZM355 604Q355 518 315 474Q286 441 197 400Q183 394 180 394Q172 394 172 417Q172 501 172 547Q172 593 171 601Q170 581 170 562Q170 544 169 525Q170 672 276 672Q311 672 333.0 654.0Q355 636 355 604ZM952 23Q945 75 942.0 136.0Q939 197 939 269Q939 321 940.5 375.0Q942 429 946 486Q947 499 937 504Q927 508 914 504Q889 499 860 499Q836 499 790 505Q743 511 720 511Q594 511 594 421Q594 388 616.5 368.0Q639 348 673 348Q692 348 713.5 362.0Q735 376 742 393Q752 417 737 426Q723 434 737 448Q742 453 761 453Q815 453 824 383V343Q813 338 798.0 334.5Q783 331 764 329Q678 322 626 276Q569 226 569 142Q569 -14 700 -14Q769 -14 815 23Q825 32 827 18Q828 -1 860 -1H903Q906 0 906 0Q955 0 952 23ZM828 254Q828 199 825 135Q824 110 797 86Q771 62 746 62Q693 62 693 150Q693 219 724 244Q732 251 752.0 259.5Q772 268 804 278Q812 280 816 280Q828 280 828 254ZM1338 128Q1338 140 1330 140Q1320 140 1308 123Q1282 85 1230 85Q1157 85 1123 170Q1098 230 1098 318Q1098 375 1119 419Q1145 475 1196 475Q1225 475 1225 458Q1225 465 1201 431Q1178 396 1178 377Q1178 350 1194 330L1232 292Q1239 285 1246 285Q1256 285 1255 303Q1252 329 1271 342Q1322 379 1322 424Q1322 469 1283 498Q1248 524 1200 524Q1095 524 1039 420Q993 337 993 222Q993 118 1033 54Q1081 -23 1179 -23Q1241 -23 1281 14Q1291 24 1301.5 38.0Q1312 52 1320.0 68.0Q1328 84 1333.0 99.5Q1338 115 1338 128ZM1775 20Q1775 24 1770 42Q1766 57 1766 60Q1744 228 1708 270Q1693 286 1693 296Q1693 300 1704 314Q1762 381 1762 434Q1762 482 1719 507Q1684 528 1632 528Q1562 528 1516 476Q1518 529 1519.0 561.5Q1520 594 1520 607Q1520 621 1523 648Q1525 662 1526.0 672.0Q1527 682 1527 689Q1527 708 1516 708Q1510 708 1500 702Q1456 679 1428.5 665.0Q1401 651 1389 646Q1376 642 1376 631Q1376 625 1381 613Q1388 599 1393.0 576.0Q1398 553 1400 522Q1401 515 1401 483Q1401 451 1401 391Q1401 275 1396.0 185.5Q1391 96 1381 32Q1377 1 1396 0Q1458 -2 1517 0Q1536 1 1527 38Q1510 104 1509 188Q1575 230 1586 230Q1595 230 1612 198Q1648 130 1648 58Q1648 54 1645.0 41.0Q1642 28 1642 24Q1642 3 1668 0Q1711 -5 1752 0Q1775 3 1775 20ZM1632 396Q1632 334 1558 284Q1534 268 1510 261L1513 358Q1532 440 1580 440Q1632 440 1632 396ZM2163 116Q2167 138 2150 138Q2141 138 2131 123Q2102 81 2047 81Q1989 81 1952 141Q1943 156 1956 168Q1987 194 2017.0 220.5Q2047 247 2078 273Q2159 349 2159 401Q2159 461 2119.5 492.0Q2080 523 2019 523Q1909 523 1852 412Q1807 325 1807 203Q1807 113 1852 49Q1901 -24 1987 -24Q2054 -24 2102.5 13.0Q2151 50 2163 116ZM2038 388Q2038 331 1986 276Q1950 237 1924 223Q1913 258 1913 303Q1913 354 1927 398Q1947 457 1990 457Q2013 457 2027 433Q2038 413 2038 388ZM2581 19Q2581 29 2580 31Q2574 61 2572.5 96.0Q2571 131 2570 162Q2569 182 2569.5 207.0Q2570 232 2571 264Q2574 343 2574 365Q2575 442 2554 477Q2527 520 2452 520Q2383 520 2352 484Q2347 479 2344 479Q2339 479 2339 492Q2339 507 2317 508Q2302 509 2227 508Q2206 508 2212 483Q2222 443 2222 235Q2222 190 2218.5 139.5Q2215 89 2208 32Q2204 2 2219 0Q2263 -2 2328 0Q2340 2 2341 15L2338 38Q2334 69 2332.0 112.5Q2330 156 2330 214Q2330 260 2331.0 289.0Q2332 318 2334 330Q2340 368 2361 400Q2386 439 2420 439Q2453 439 2461 386Q2463 371 2463.5 346.5Q2464 322 2462 287L2452 79Q2452 73 2446 49Q2441 24 2441 18Q2441 0 2463 0H2561Q2581 0 2581 19ZM3014 17Q3014 20 3009.0 38.0Q3004 56 3004 58Q3001 125 3001 119L3006 522Q3007 586 3009.0 622.5Q3011 659 3013 669Q3021 698 3005 698Q2999 698 2995 695L2931 665Q2877 639 2877 634Q2877 631 2883 615Q2896 579 2898 561Q2899 557 2899 505Q2899 491 2894 491Q2891 491 2885 497Q2862 519 2849 527Q2832 536 2802 536Q2713 536 2660 444Q2616 367 2616 270Q2616 -5 2763 -5Q2826 -5 2874 46Q2881 55 2888 55Q2892 55 2892 46Q2891 -5 2889 9Q2904 1 2914 0Q2948 -1 2997 0Q3014 2 3014 17ZM2903 297Q2903 82 2830 78Q2774 75 2749 156Q2732 213 2732 280Q2732 357 2746 390Q2756 411 2761.5 423.0Q2767 435 2769 438Q2789 467 2821 467Q2865 467 2887 400Q2903 355 2903 297Z" fill="#fab387" transform="translate(31.00,35.16) scale(0.02500,-0.02500)"/>
</svg>