<svg xmlns="http://www.w3.org/2000/svg" viewBox="0 0 244 46" width="244" height="46">
  <rect x="1" y="1" width="242" height="44" rx="12" fill="#181825" stroke="#313244" stroke-width="1.5"/>
  <rect x="14" y="11" width="5" height="24" rx="2.5" fill="#fab387"/>
  <path d="M489 567Q489 633 456 678Q418 729 355 729Q312 729 287.0 704.5Q262 680 262 637Q262 591 289 591Q290 591 296.0 592.0Q302 593 308.5 593.5Q315 594 322.0 595.0Q329 596 332 596Q367 594 384 553Q397 523 397 481Q397 424 370 330Q336 210 273 121Q266 111 258 111Q251 111 245 121Q155 278 155 481Q155 613 181 679Q188 694 188 700Q188 711 167 713Q96 715 39 713Q18 711 18 695Q18 690 27 669Q32 624 34.5 601.0Q37 578 37 575Q34 425 55 312Q77 189 139 63Q143 43 145 36V11Q145 1 166 0Q227 -5 310 0Q328 1 328 12V34Q328 61 339 81Q367 132 392.0 191.0Q417 250 439 317Q489 470 489 567ZM880 116Q884 138 867 138Q858 138 848 123Q819 81 764 81Q706 81 669 141Q660 156 673 168Q704 194 734.0 220.5Q764 247 795 273Q876 349 876 401Q876 461 836.5 492.0Q797 523 736 523Q626 523 569 412Q524 325 524 203Q524 113 569 49Q618 -24 704 -24Q771 -24 819.5 13.0Q868 50 880 116ZM755 388Q755 331 703 276Q667 237 641 223Q630 258 630 303Q630 354 644 398Q664 457 707 457Q730 457 744 433Q755 413 755 388ZM1217 486Q1217 520 1165 520Q1106 520 1065 476Q1060 471 1057 471Q1052 471 1052 483Q1052 507 1030 508Q1015 509 940 508Q918 508 925 483Q947 414 947 235Q947 190 943.5 139.5Q940 89 933 32Q929 2 944 0Q988 -2 1053 0Q1065 2 1066 15L1063 38Q1059 69 1057.0 112.5Q1055 156 1055 214Q1055 311 1059 330Q1074 411 1101 411Q1120 411 1130 401L1155 367Q1168 349 1175 349Q1183 349 1187 368Q1193 388 1197.5 402.5Q1202 417 1205 427Q1217 466 1217 486ZM1600 132Q1600 212 1551 257Q1518 287 1433 319Q1362 344 1349 352Q1306 374 1306 408Q1306 424 1318.0 435.0Q1330 446 1347 446Q1365 446 1414 421Q1464 396 1492 396Q1558 396 1558 464Q1558 484 1550 495Q1540 510 1521 502Q1507 496 1485 496Q1469 496 1431.0 504.0Q1393 512 1377 512Q1349 512 1325.5 502.0Q1302 492 1285.5 475.0Q1269 458 1260.0 433.5Q1251 409 1251 381Q1251 311 1283.5 270.0Q1316 229 1379 208L1493 169Q1546 143 1546 110Q1546 75 1500 75Q1478 75 1422.0 100.0Q1366 125 1335 125Q1296 125 1273.0 103.0Q1250 81 1250 43Q1250 -3 1271 -3Q1276 -3 1278 -2Q1290 4 1302.0 10.0Q1314 16 1336 16Q1356 16 1405.0 5.0Q1454 -6 1476 -6Q1534 -6 1568 34Q1600 72 1600 132ZM1779 621Q1778 647 1759.0 666.0Q1740 685 1714.0 684.0Q1688 683 1669.0 664.0Q1650 645 1651.0 619.0Q1652 593 1671.0 574.0Q1690 555 1716.0 556.0Q1742 557 1761.0 576.0Q1780 595 1779 621ZM1772 462Q1779 510 1756 510H1668Q1647 510 1647 488Q1647 482 1648 478Q1654 446 1654 240Q1654 183 1650.5 131.5Q1647 80 1640 32Q1635 0 1660 0H1703H1728H1746Q1773 0 1770 46Q1765 127 1762.5 185.0Q1760 243 1760 280Q1760 387 1772 462ZM2197 265Q2197 371 2155 448Q2104 541 2005 541Q1957 541 1926 522Q1887 499 1887 455Q1887 423 1917 410Q1818 357 1818 234Q1818 131 1860 67Q1909 -8 2006 -8Q2101 -8 2154 85Q2197 161 2197 265ZM2124 238Q2124 188 2100 154Q2073 116 2025 116Q1973 116 1944 166Q1919 207 1919 264Q1919 372 1994 383Q2005 385 2005 393Q2005 410 1973 418Q1987 426 2020 412Q2069 393 2098 341Q2124 294 2124 238ZM2613 19Q2613 29 2612 31Q2606 61 2604.5 96.0Q2603 131 2602 162Q2601 182 2601.5 207.0Q2602 232 2603 264Q2606 343 2606 365Q2607 442 2586 477Q2559 520 2484 520Q2415 520 2384 484Q2379 479 2376 479Q2371 479 2371 492Q2371 507 2349 508Q2334 509 2259 508Q2238 508 2244 483Q2254 443 2254 235Q2254 190 2250.5 139.5Q2247 89 2240 32Q2236 2 2251 0Q2295 -2 2360 0Q2372 2 2373 15L2370 38Q2366 69 2364.0 112.5Q2362 156 2362 214Q2362 260 2363.0 289.0Q2364 318 2366 330Q2372 368 2393 400Q2418 439 2452 439Q2485 439 2493 386Q2495 371 2495.5 346.5Q2496 322 2494 287L2484 79Q2484 73 2478 49Q2473 24 2473 18Q2473 0 2495 0H2593Q2613 0 2613 19ZM3562 218Q3562 245 3536 245Q3515 245 3510 228Q3498 179 3463.5 148.5Q3429 118 3381 118Q3284 118 3229 224Q3182 313 3182 416Q3182 509 3212 577Q3252 667 3334 667Q3359 667 3380.0 649.0Q3401 631 3401 607Q3401 576 3379.0 558.0Q3357 540 3323 540Q3304 540 3297.0 536.0Q3290 532 3290 514Q3290 473 3327 445Q3362 419 3403 419Q3481 419 3518 489Q3536 523 3536 575Q3536 648 3486 698Q3436 749 3363 749Q3203 749 3107 564Q3053 460 3053 320Q3053 244 3063 208Q3088 110 3149 49Q3216 -17 3312 -17Q3456 -17 3521 85Q3562 150 3562 218ZM3979 265Q3979 371 3937 448Q3886 541 3787 541Q3739 541 3708 522Q3669 499 3669 455Q3669 423 3699 410Q3600 357 3600 234Q3600 131 3642 67Q3691 -8 3788 -8Q3883 -8 3936 85Q3979 161 3979 265ZM3906 238Q3906 188 3882 154Q3855 116 3807 116Q3755 116 3726 166Q3701 207 3701 264Q3701 372 3776 383Q3787 385 3787 393Q3787 410 3755 418Q3769 426 3802 412Q3851 393 3880 341Q3906 294 3906 238ZM4395 19Q4395 29 4394 31Q4388 61 4386.5 96.0Q4385 131 4384 162Q4383 182 4383.5 207.0Q4384 232 4385 264Q4388 343 4388 365Q4389 442 4368 477Q4341 520 4266 520Q4197 520 4166 484Q4161 479 4158 479Q4153 479 4153 492Q4153 507 4131 508Q4116 509 4041 508Q4020 508 4026 483Q4036 443 4036 235Q4036 190 4032.5 139.5Q4029 89 4022 32Q4018 2 4033 0Q4077 -2 4142 0Q4154 2 4155 15L4152 38Q4148 69 4146.0 112.5Q4144 156 4144 214Q4144 260 4145.0 289.0Q4146 318 4148 330Q4154 368 4175 400Q4200 439 4234 439Q4267 439 4275 386Q4277 371 4277.5 346.5Q4278 322 4276 287L4266 79Q4266 73 4260 49Q4255 24 4255 18Q4255 0 4277 0H4375Q4395 0 4395 19ZM4659 486Q4659 503 4645 508Q4640 509 4633.0 509.5Q4626 510 4617 510H4600Q4600 576 4603 588Q4606 615 4608.0 633.0Q4610 651 4611 659Q4611 673 4602 673Q4596 673 4586 667Q4549 647 4519.0 633.0Q4489 619 4464 611Q4451 607 4451 596Q4451 588 4457 578Q4473 550 4477 510H4469Q4430 510 4430 486Q4430 467 4468 467H4481Q4482 459 4482 440Q4482 422 4482 391Q4482 280 4477.5 190.5Q4473 101 4465 32Q4461 1 4480 0Q4546 -1 4601 0Q4615 1 4611 38Q4603 103 4598.5 147.0Q4594 191 4595 214L4599 467H4616Q4659 467 4659 486ZM4989 486Q4989 520 4937 520Q4878 520 4837 476Q4832 471 4829 471Q4824 471 4824 483Q4824 507 4802 508Q4787 509 4712 508Q4690 508 4697 483Q4719 414 4719 235Q4719 190 4715.5 139.5Q4712 89 4705 32Q4701 2 4716 0Q4760 -2 4825 0Q4837 2 4838 15L4835 38Q4831 69 4829.0 112.5Q4827 156 4827 214Q4827 311 4831 330Q4846 411 4873 411Q4892 411 4902 401L4927 367Q4940 349 4947 349Q4955 349 4959 368Q4965 388 4969.5 402.5Q4974 417 4977 427Q4989 466 4989 486ZM5399 265Q5399 371 5357 448Q5306 541 5207 541Q5159 541 5128 522Q5089 499 5089 455Q5089 423 5119 410Q5020 357 5020 234Q5020 131 5062 67Q5111 -8 5208 -8Q5303 -8 5356 85Q5399 161 5399 265ZM5326 238Q5326 188 5302 154Q5275 116 5227 116Q5175 116 5146 166Q5121 207 5121 264Q5121 372 5196 383Q5207 385 5207 393Q5207 410 5175 418Q5189 426 5222 412Q5271 393 5300 341Q5326 294 5326 238ZM5596 689Q5596 708 5585 708Q5579 708 5569 702Q5540 685 5511.5 672.0Q5483 659 5456 649Q5435 641 5435 631Q5435 625 5440 613Q5447 598 5452.0 575.5Q5457 553 5459 522Q5460 515 5460 483Q5460 451 5460 391Q5460 126 5448 32Q5444 1 5463 0Q5529 -1 5584 0Q5598 1 5594 38Q5586 107 5581.5 151.0Q5577 195 5578 214L5589 605Q5590 615 5590 620Q5590 626 5590 627Q5594 677 5596 689ZM6561 314Q6561 327 6556 332L6518 371Q6492 396 6473 395L6461 394L6445 366Q6435 350 6435 338L6409 282Q6396 253 6367 236Q6343 250 6315 296L6273 364Q6340 470 6340 531Q6340 581 6303 612Q6265 645 6216 645Q6175 645 6135 607Q6096 569 6096 528Q6096 499 6129 445Q6163 388 6166 361Q6152 329 6085 242Q6034 177 6034 119Q6034 63 6092 29Q6138 1 6181 1Q6208 1 6281.0 53.0Q6354 105 6367 105Q6385 101 6394 82L6409 50Q6414 33 6414 20Q6414 -16 6394 -39Q6346 -45 6325 -45Q6295 -62 6295 -95L6305 -116Q6317 -141 6347 -141Q6374 -141 6403 -125Q6476 -88 6470 4L6468 37Q6433 131 6414 172Q6457 242 6559 299Q6561 307 6561 314ZM6265 523Q6265 505 6254 472Q6240 434 6224 433Q6206 446 6193.0 476.0Q6180 506 6180 531Q6180 570 6222 570Q6265 570 6265 523ZM6313 180 6312 175Q6265 136 6220 136Q6163 136 6163 185Q6163 214 6182 253Q6203 296 6227 301L6275 244Q6313 198 6313 180ZM7503 218Q7503 245 7477 245Q7456 245 7451 228Q7439 179 7404.5 148.5Q7370 118 7322 118Q7225 118 7170 224Q7123 313 7123 416Q7123 509 7153 577Q7193 667 7275 667Q7300 667 7321.0 649.0Q7342 631 7342 607Q7342 576 7320.0 558.0Q7298 540 7264 540Q7245 540 7238.0 536.0Q7231 532 7231 514Q7231 473 7268 445Q7303 419 7344 419Q7422 419 7459 489Q7477 523 7477 575Q7477 648 7427 698Q7377 749 7304 749Q7144 749 7048 564Q6994 460 6994 320Q6994 244 7004 208Q7029 110 7090 49Q7157 -17 7253 -17Q7397 -17 7462 85Q7503 150 7503 218ZM7706 685Q7706 706 7675 707Q7628 708 7585 707Q7555 705 7555 685Q7556 683 7561 655Q7568 615 7571.5 584.0Q7575 553 7575 530V403Q7575 313 7568.5 231.0Q7562 149 7549 71Q7543 36 7543 17Q7543 0 7563 0H7683Q7706 0 7703 21Q7694 91 7689.0 166.0Q7684 241 7683 323Q7682 401 7686.5 483.0Q7691 565 7699 653Q7699 656 7702.5 668.5Q7706 681 7706 685Z" fill="#fab387" transform="translate(31.00,35.16) scale(0.02500,-0.02500)"/>
</svg>