<svg xmlns="http://www.w3.org/2000/svg" viewBox="0 0 129 46" width="129" height="46">
  <rect x="1" y="1" width="127" height="44" rx="12" fill="#181825" stroke="#313244" stroke-width="1.5"/>
  <rect x="14" y="11" width="5" height="24" rx="2.5" fill="#fab387"/>
  <path d="M494 648Q494 731 359 731Q342 731 317.5 729.0Q293 727 261.0 723.0Q229 719 205.0 717.0Q181 715 164 715Q76 715 51 727Q45 730 41 730Q25 730 30 707Q52 610 52 501V355Q52 269 31 38Q27 22 23 16Q22 0 48 0H110H160Q177 -1 189 -1Q202 -1 210 -1Q230 -1 230 8Q230 15 220 22Q171 56 168 147Q166 217 187 264Q216 329 276 329Q316 329 381 290Q391 284 397 284Q410 284 399 307Q391 338 384.5 361.0Q378 384 373 400Q359 441 312 441Q246 441 181 361Q172 350 169 362Q168 367 167.5 369.5Q167 372 167 373Q173 413 176 510Q179 589 191 616Q214 666 286 666Q351 666 350 633Q350 627 345.5 618.0Q341 609 337.0 603.0Q333 597 332 596Q332 590 341 584Q363 569 406 569Q445 569 469.5 590.5Q494 612 494 648ZM784 486Q784 520 732 520Q673 520 632 476Q627 471 624 471Q619 471 619 483Q619 507 597 508Q582 509 507 508Q485 508 492 483Q514 414 514 235Q514 190 510.5 139.5Q507 89 500 32Q496 2 511 0Q555 -2 620 0Q632 2 633 15L630 38Q626 69 624.0 112.5Q622 156 622 214Q622 311 626 330Q641 411 668 411Q687 411 697 401L722 367Q735 349 742 349Q750 349 754 368Q760 388 764.5 402.5Q769 417 772 427Q784 466 784 486ZM1194 265Q1194 371 1152 448Q1101 541 1002 541Q954 541 923 522Q884 499 884 455Q884 423 914 410Q815 357 815 234Q815 131 857 67Q906 -8 1003 -8Q1098 -8 1151 85Q1194 161 1194 265ZM1121 238Q1121 188 1097 154Q1070 116 1022 116Q970 116 941 166Q916 207 916 264Q916 372 991 383Q1002 385 1002 393Q1002 410 970 418Q984 426 1017 412Q1066 393 1095 341Q1121 294 1121 238ZM1610 19Q1610 29 1609 31Q1603 61 1601.5 96.0Q1600 131 1599 162Q1598 182 1598.5 207.0Q1599 232 1600 264Q1603 343 1603 365Q1604 442 1583 477Q1556 520 1481 520Q1412 520 1381 484Q1376 479 1373 479Q1368 479 1368 492Q1368 507 1346 508Q1331 509 1256 508Q1235 508 1241 483Q1251 443 1251 235Q1251 190 1247.5 139.5Q1244 89 1237 32Q1233 2 1248 0Q1292 -2 1357 0Q1369 2 1370 15L1367 38Q1363 69 1361.0 112.5Q1359 156 1359 214Q1359 260 1360.0 289.0Q1361 318 1363 330Q1369 368 1390 400Q1415 439 1449 439Q1482 439 1490 386Q1492 371 1492.5 346.5Q1493 322 1491 287L1481 79Q1481 73 1475 49Q1470 24 1470 18Q1470 0 1492 0H1590Q1610 0 1610 19ZM1874 486Q1874 503 1860 508Q1855 509 1848.0 509.5Q1841 510 1832 510H1815Q1815 576 1818 588Q1821 615 1823.0 633.0Q1825 651 1826 659Q1826 673 1817 673Q1811 673 1801 667Q1764 647 1734.0 633.0Q1704 619 1679 611Q1666 607 1666 596Q1666 588 1672 578Q1688 550 1692 510H1684Q1645 510 1645 486Q1645 467 1683 467H1696Q1697 459 1697 440Q1697 422 1697 391Q1697 280 1692.5 190.5Q1688 101 1680 32Q1676 1 1695 0Q1761 -1 1816 0Q1830 1 1826 38Q1818 103 1813.5 147.0Q1809 191 1810 214L1814 467H1831Q1874 467 1874 486ZM2262 116Q2266 138 2249 138Q2240 138 2230 123Q2201 81 2146 81Q2088 81 2051 141Q2042 156 2055 168Q2086 194 2116.0 220.5Q2146 247 2177 273Q2258 349 2258 401Q2258 461 2218.5 492.0Q2179 523 2118 523Q2008 523 1951 412Q1906 325 1906 203Q1906 113 1951 49Q2000 -24 2086 -24Q2153 -24 2201.5 13.0Q2250 50 2262 116ZM2137 388Q2137 331 2085 276Q2049 237 2023 223Q2012 258 2012 303Q2012 354 2026 398Q2046 457 2089 457Q2112 457 2126 433Q2137 413 2137 388ZM2680 19Q2680 29 2679 31Q2673 61 2671.5 96.0Q2670 131 2669 162Q2668 182 2668.5 207.0Q2669 232 2670 264Q2673 343 2673 365Q2674 442 2653 477Q2626 520 2551 520Q2482 520 2451 484Q2446 479 2443 479Q2438 479 2438 492Q2438 507 2416 508Q2401 509 2326 508Q2305 508 2311 483Q2321 443 2321 235Q2321 190 2317.5 139.5Q2314 89 2307 32Q2303 2 2318 0Q2362 -2 2427 0Q2439 2 2440 15L2437 38Q2433 69 2431.0 112.5Q2429 156 2429 214Q2429 260 2430.0 289.0Q2431 318 2433 330Q2439 368 2460 400Q2485 439 2519 439Q2552 439 2560 386Q2562 371 2562.5 346.5Q2563 322 2561 287L2551 79Q2551 73 2545 49Q2540 24 2540 18Q2540 0 2562 0H2660Q2680 0 2680 19ZM3113 17Q3113 20 3108.0 38.0Q3103 56 3103 58Q3100 125 3100 119L3105 522Q3106 586 3108.0 622.5Q3110 659 3112 669Q3120 698 3104 698Q3098 698 3094 695L3030 665Q2976 639 2976 634Q2976 631 2982 615Q2995 579 2997 561Q2998 557 2998 505Q2998 491 2993 491Q2990 491 2984 497Q2961 519 2948 527Q2931 536 2901 536Q2812 536 2759 444Q2715 367 2715 270Q2715 -5 2862 -5Q2925 -5 2973 46Q2980 55 2987 55Q2991 55 2991 46Q2990 -5 2988 9Q3003 1 3013 0Q3047 -1 3096 0Q3113 2 3113 17ZM3002 297Q3002 82 2929 78Q2873 75 2848 156Q2831 213 2831 280Q2831 357 2845 390Q2855 411 2860.5 423.0Q2866 435 2868 438Q2888 467 2920 467Q2964 467 2986 400Q3002 355 3002 297Z" fill="#fab387" transform="translate(31.00,35.16) scale(0.02500,-0.02500)"/>
</svg>