<svg xmlns="http://www.w3.org/2000/svg" viewBox="0 0 259 46" width="259" height="46">
  <rect x="1" y="1" width="257" height="44" rx="12" fill="#181825" stroke="#313244" stroke-width="1.5"/>
  <rect x="14" y="11" width="5" height="24" rx="2.5" fill="#fab387"/>
  <path d="M510 652Q510 682 491 707Q479 723 471 723Q463 723 440 719Q416 716 409 716Q392 716 363 723Q335 730 318 730Q287 730 232 717Q175 705 146 705Q118 705 109 709L95 714Q60 726 50 726Q40 726 40 715Q40 706 44 689Q60 613 60 529Q60 420 54.0 310.0Q48 200 35 87Q35 82 32.5 73.0Q30 64 27.5 53.5Q25 43 23.0 32.5Q21 22 21 15Q21 0 40 0H174Q191 0 191 16Q191 29 185 52Q181 66 179.5 74.5Q178 83 177 88Q165 176 165 281Q165 326 168.5 395.5Q172 465 179 562Q185 642 232 642L282 616Q332 590 367 590Q389 590 400 594Q401 594 405.5 596.5Q410 599 415.0 601.5Q420 604 424.5 606.5Q429 609 430 609Q434 609 434 604Q434 598 428 589Q337 450 337 313Q337 299 338.5 276.5Q340 254 342.0 225.0Q344 196 345.5 173.5Q347 151 347 137Q347 108 344 80Q339 55 336.5 39.0Q334 23 334 15Q334 0 356 0H455Q478 0 478 34Q478 66 473.5 112.0Q469 158 461.0 221.0Q453 284 448.5 330.0Q444 376 444 408Q444 451 477 534Q510 616 510 652ZM905 116Q909 138 892 138Q883 138 873 123Q844 81 789 81Q731 81 694 141Q685 156 698 168Q729 194 759.0 220.5Q789 247 820 273Q901 349 901 401Q901 461 861.5 492.0Q822 523 761 523Q651 523 594 412Q549 325 549 203Q549 113 594 49Q643 -24 729 -24Q796 -24 844.5 13.0Q893 50 905 116ZM780 388Q780 331 728 276Q692 237 666 223Q655 258 655 303Q655 354 669 398Q689 457 732 457Q755 457 769 433Q780 413 780 388ZM1169 486Q1169 503 1155 508Q1150 509 1143.0 509.5Q1136 510 1127 510H1110Q1110 576 1113 588Q1116 615 1118.0 633.0Q1120 651 1121 659Q1121 673 1112 673Q1106 673 1096 667Q1059 647 1029.0 633.0Q999 619 974 611Q961 607 961 596Q961 588 967 578Q983 550 987 510H979Q940 510 940 486Q940 467 978 467H991Q992 459 992 440Q992 422 992 391Q992 280 987.5 190.5Q983 101 975 32Q971 1 990 0Q1056 -1 1111 0Q1125 1 1121 38Q1113 103 1108.5 147.0Q1104 191 1105 214L1109 467H1126Q1169 467 1169 486ZM1807 417Q1807 465 1780.0 497.5Q1753 530 1708 530Q1678 530 1654.5 508.5Q1631 487 1631 457Q1631 408 1658 408Q1660 408 1668.0 410.0Q1676 412 1679 412Q1723 412 1723 349Q1723 310 1703 256Q1699 245 1687.5 220.5Q1676 196 1657 156Q1653 146 1644 146Q1636 146 1632 155Q1562 276 1562 407Q1562 428 1562.5 441.5Q1563 455 1564 461Q1564 460 1569 478Q1575 494 1575 499Q1575 512 1557 512Q1491 513 1436 512Q1419 512 1419 494Q1419 488 1426 470Q1434 451 1434 450Q1453 362 1464.0 310.5Q1475 259 1479 242Q1465 210 1456.0 188.5Q1447 167 1442 154Q1437 143 1429 143Q1423 143 1417 153Q1344 277 1344 407Q1344 428 1344.5 441.5Q1345 455 1346 461Q1346 460 1351 478Q1357 494 1357 499Q1357 512 1339 512Q1273 513 1218 512Q1201 512 1201 494Q1201 495 1216 450Q1233 367 1244.0 317.0Q1255 267 1260 248Q1299 87 1362 11Q1379 -9 1394 -9Q1435 -9 1509 146Q1540 60 1580 11Q1597 -9 1614 -9Q1632 -9 1649 15Q1675 53 1701.0 101.0Q1727 149 1752 208Q1807 336 1807 417ZM2222 265Q2222 371 2180 448Q2129 541 2030 541Q1982 541 1951 522Q1912 499 1912 455Q1912 423 1942 410Q1843 357 1843 234Q1843 131 1885 67Q1934 -8 2031 -8Q2126 -8 2179 85Q2222 161 2222 265ZM2149 238Q2149 188 2125 154Q2098 116 2050 116Q1998 116 1969 166Q1944 207 1944 264Q1944 372 2019 383Q2030 385 2030 393Q2030 410 1998 418Q2012 426 2045 412Q2094 393 2123 341Q2149 294 2149 238ZM2557 486Q2557 520 2505 520Q2446 520 2405 476Q2400 471 2397 471Q2392 471 2392 483Q2392 507 2370 508Q2355 509 2280 508Q2258 508 2265 483Q2287 414 2287 235Q2287 190 2283.5 139.5Q2280 89 2273 32Q2269 2 2284 0Q2328 -2 2393 0Q2405 2 2406 15L2403 38Q2399 69 2397.0 112.5Q2395 156 2395 214Q2395 311 2399 330Q2414 411 2441 411Q2460 411 2470 401L2495 367Q2508 349 2515 349Q2523 349 2527 368Q2533 388 2537.5 402.5Q2542 417 2545 427Q2557 466 2557 486ZM2989 20Q2989 24 2984 42Q2980 57 2980 60Q2958 228 2922 270Q2907 286 2907 296Q2907 300 2918 314Q2976 381 2976 434Q2976 482 2933 507Q2898 528 2846 528Q2776 528 2730 476Q2732 529 2733.0 561.5Q2734 594 2734 607Q2734 621 2737 648Q2739 662 2740.0 672.0Q2741 682 2741 689Q2741 708 2730 708Q2724 708 2714 702Q2670 679 2642.5 665.0Q2615 651 2603 646Q2590 642 2590 631Q2590 625 2595 613Q2602 599 2607.0 576.0Q2612 553 2614 522Q2615 515 2615 483Q2615 451 2615 391Q2615 275 2610.0 185.5Q2605 96 2595 32Q2591 1 2610 0Q2672 -2 2731 0Q2750 1 2741 38Q2724 104 2723 188Q2789 230 2800 230Q2809 230 2826 198Q2862 130 2862 58Q2862 54 2859.0 41.0Q2856 28 2856 24Q2856 3 2882 0Q2925 -5 2966 0Q2989 3 2989 20ZM2846 396Q2846 334 2772 284Q2748 268 2724 261L2727 358Q2746 440 2794 440Q2846 440 2846 396ZM3163 621Q3162 647 3143.0 666.0Q3124 685 3098.0 684.0Q3072 683 3053.0 664.0Q3034 645 3035.0 619.0Q3036 593 3055.0 574.0Q3074 555 3100.0 556.0Q3126 557 3145.0 576.0Q3164 595 3163 621ZM3156 462Q3163 510 3140 510H3052Q3031 510 3031 488Q3031 482 3032 478Q3038 446 3038 240Q3038 183 3034.5 131.5Q3031 80 3024 32Q3019 0 3044 0H3087H3112H3130Q3157 0 3154 46Q3149 127 3146.5 185.0Q3144 243 3144 280Q3144 387 3156 462ZM3581 19Q3581 29 3580 31Q3574 61 3572.5 96.0Q3571 131 3570 162Q3569 182 3569.5 207.0Q3570 232 3571 264Q3574 343 3574 365Q3575 442 3554 477Q3527 520 3452 520Q3383 520 3352 484Q3347 479 3344 479Q3339 479 3339 492Q3339 507 3317 508Q3302 509 3227 508Q3206 508 3212 483Q3222 443 3222 235Q3222 190 3218.5 139.5Q3215 89 3208 32Q3204 2 3219 0Q3263 -2 3328 0Q3340 2 3341 15L3338 38Q3334 69 3332.0 112.5Q3330 156 3330 214Q3330 260 3331.0 289.0Q3332 318 3334 330Q3340 368 3361 400Q3386 439 3420 439Q3453 439 3461 386Q3463 371 3463.5 346.5Q3464 322 3462 287L3452 79Q3452 73 3446 49Q3441 24 3441 18Q3441 0 3463 0H3561Q3581 0 3581 19ZM4025 462Q4025 470 4005 476Q3998 478 3991.0 479.0Q3984 480 3977 482Q3954 493 3937.5 500.5Q3921 508 3913 512Q3874 524 3843 524Q3737 522 3676 433Q3623 354 3621 244Q3619 85 3731 12Q3746 1 3746 -5Q3746 -11 3719 -36Q3660 -92 3653 -96Q3635 -110 3635 -121Q3635 -131 3649 -148Q3707 -220 3795 -220Q3895 -220 3957 -136Q4013 -60 4013 42Q4013 64 4010.5 96.5Q4008 129 4003.0 174.0Q3998 219 3995.5 251.5Q3993 284 3993 306Q3993 379 4017 438Q4025 459 4025 462ZM3887 125Q3887 95 3854 95Q3804 95 3762 195Q3726 280 3726 339Q3726 380 3743 411Q3764 448 3803 448Q3825 448 3845 434Q3848 432 3878 404Q3878 384 3875 344Q3874 324 3873.5 309.0Q3873 294 3873 284Q3873 270 3874.5 250.0Q3876 230 3880.0 204.0Q3884 178 3885.5 158.5Q3887 139 3887 125ZM3920 -51Q3920 -87 3894.0 -116.0Q3868 -145 3834 -145Q3810 -145 3780 -114Q3749 -84 3757 -67Q3758 -66 3758.5 -65.0Q3759 -64 3760 -63Q3791 -35 3821.5 -8.5Q3852 18 3883 44Q3897 55 3901 55Q3907 55 3909 49Q3920 19 3920 -51ZM4987 314Q4987 327 4982 332L4944 371Q4918 396 4899 395L4887 394L4871 366Q4861 350 4861 338L4835 282Q4822 253 4793 236Q4769 250 4741 296L4699 364Q4766 470 4766 531Q4766 581 4729 612Q4691 645 4642 645Q4601 645 4561 607Q4522 569 4522 528Q4522 499 4555 445Q4589 388 4592 361Q4578 329 4511 242Q4460 177 4460 119Q4460 63 4518 29Q4564 1 4607 1Q4634 1 4707.0 53.0Q4780 105 4793 105Q4811 101 4820 82L4835 50Q4840 33 4840 20Q4840 -16 4820 -39Q4772 -45 4751 -45Q4721 -62 4721 -95L4731 -116Q4743 -141 4773 -141Q4800 -141 4829 -125Q4902 -88 4896 4L4894 37Q4859 131 4840 172Q4883 242 4985 299Q4987 307 4987 314ZM4691 523Q4691 505 4680 472Q4666 434 4650 433Q4632 446 4619.0 476.0Q4606 506 4606 531Q4606 570 4648 570Q4691 570 4691 523ZM4739 180 4738 175Q4691 136 4646 136Q4589 136 4589 185Q4589 214 4608 253Q4629 296 4653 301L4701 244Q4739 198 4739 180ZM5929 209Q5929 391 5742 446Q5683 463 5643.0 474.5Q5603 486 5580 493Q5497 519 5497 580Q5497 604 5515.5 621.5Q5534 639 5559 639Q5579 639 5648.0 605.0Q5717 571 5756 571Q5777 571 5796.0 577.5Q5815 584 5829.5 596.0Q5844 608 5852.5 624.5Q5861 641 5861 662Q5861 705 5836 724Q5828 732 5816 724Q5796 711 5765 711Q5751 711 5731.5 714.0Q5712 717 5686 722Q5633 734 5608 734Q5527 734 5478 676Q5429 620 5429 537Q5429 358 5660 295Q5858 241 5858 153Q5858 122 5837.0 101.0Q5816 80 5785 80Q5759 80 5671 125Q5582 170 5541 170Q5503 170 5473 152Q5420 120 5422 65Q5424 19 5457 -7Q5467 -17 5485 -5Q5520 18 5561 18Q5592 18 5651 0Q5713 -17 5742 -17Q5829 -17 5882 54Q5929 119 5929 209ZM6321 116Q6325 138 6308 138Q6299 138 6289 123Q6260 81 6205 81Q6147 81 6110 141Q6101 156 6114 168Q6145 194 6175.0 220.5Q6205 247 6236 273Q6317 349 6317 401Q6317 461 6277.5 492.0Q6238 523 6177 523Q6067 523 6010 412Q5965 325 5965 203Q5965 113 6010 49Q6059 -24 6145 -24Q6212 -24 6260.5 13.0Q6309 50 6321 116ZM6196 388Q6196 331 6144 276Q6108 237 6082 223Q6071 258 6071 303Q6071 354 6085 398Q6105 457 6148 457Q6171 457 6185 433Q6196 413 6196 388ZM6705 128Q6705 140 6697 140Q6687 140 6675 123Q6649 85 6597 85Q6524 85 6490 170Q6465 230 6465 318Q6465 375 6486 419Q6512 475 6563 475Q6592 475 6592 458Q6592 465 6568 431Q6545 396 6545 377Q6545 350 6561 330L6599 292Q6606 285 6613 285Q6623 285 6622 303Q6619 329 6638 342Q6689 379 6689 424Q6689 469 6650 498Q6615 524 6567 524Q6462 524 6406 420Q6360 337 6360 222Q6360 118 6400 54Q6448 -23 6546 -23Q6608 -23 6648 14Q6658 24 6668.5 38.0Q6679 52 6687.0 68.0Q6695 84 6700.0 99.5Q6705 115 6705 128ZM7117 25Q7101 89 7101 273Q7101 318 7104.5 368.5Q7108 419 7115 476Q7119 507 7100 508Q7040 511 6991 508Q6977 507 6981 470Q6985 438 6987.0 394.0Q6989 350 6989 294Q6989 250 6988.0 221.0Q6987 192 6985 178Q6981 141 6964 111Q6943 71 6913 71Q6880 71 6871 124Q6869 135 6868.0 159.5Q6867 184 6867 221Q6867 337 6873 429Q6873 431 6874.5 438.5Q6876 446 6878 458Q6884 482 6884 490Q6884 508 6862 508Q6778 510 6764 508Q6744 506 6744 489Q6744 476 6745.0 458.0Q6746 440 6748 416Q6750 393 6751.5 375.0Q6753 357 6753 346Q6753 335 6753 313Q6753 291 6752 258Q6751 228 6751 202Q6751 177 6750 157Q6749 135 6749 132Q6749 129 6749 145Q6749 -10 6873 -10Q6942 -10 6973 24Q6978 29 6981 29Q6984 29 6986 14Q6989 0 7008 0H7102Q7123 0 7117 25ZM7458 486Q7458 520 7406 520Q7347 520 7306 476Q7301 471 7298 471Q7293 471 7293 483Q7293 507 7271 508Q7256 509 7181 508Q7159 508 7166 483Q7188 414 7188 235Q7188 190 7184.5 139.5Q7181 89 7174 32Q7170 2 7185 0Q7229 -2 7294 0Q7306 2 7307 15L7304 38Q7300 69 7298.0 112.5Q7296 156 7296 214Q7296 311 7300 330Q7315 411 7342 411Q7361 411 7371 401L7396 367Q7409 349 7416 349Q7424 349 7428 368Q7434 388 7438.5 402.5Q7443 417 7446 427Q7458 466 7458 486ZM7631 621Q7630 647 7611.0 666.0Q7592 685 7566.0 684.0Q7540 683 7521.0 664.0Q7502 645 7503.0 619.0Q7504 593 7523.0 574.0Q7542 555 7568.0 556.0Q7594 557 7613.0 576.0Q7632 595 7631 621ZM7624 462Q7631 510 7608 510H7520Q7499 510 7499 488Q7499 482 7500 478Q7506 446 7506 240Q7506 183 7502.5 131.5Q7499 80 7492 32Q7487 0 7512 0H7555H7580H7598Q7625 0 7622 46Q7617 127 7614.5 185.0Q7612 243 7612 280Q7612 387 7624 462ZM7895 486Q7895 503 7881 508Q7876 509 7869.0 509.5Q7862 510 7853 510H7836Q7836 576 7839 588Q7842 615 7844.0 633.0Q7846 651 7847 659Q7847 673 7838 673Q7832 673 7822 667Q7785 647 7755.0 633.0Q7725 619 7700 611Q7687 607 7687 596Q7687 588 7693 578Q7709 550 7713 510H7705Q7666 510 7666 486Q7666 467 7704 467H7717Q7718 459 7718 440Q7718 422 7718 391Q7718 280 7713.5 190.5Q7709 101 7701 32Q7697 1 7716 0Q7782 -1 7837 0Q7851 1 7847 38Q7839 103 7834.5 147.0Q7830 191 7831 214L7835 467H7852Q7895 467 7895 486ZM8319 419Q8319 467 8291.5 498.0Q8264 529 8219 529Q8188 529 8165 512Q8139 492 8139 463Q8139 414 8166 414Q8168 414 8176.0 416.0Q8184 418 8187 418Q8232 418 8232 349Q8232 307 8208 250Q8194 218 8183.5 194.0Q8173 170 8165 154Q8160 143 8152 143Q8146 143 8140 153Q8067 277 8067 407Q8067 428 8067.5 441.5Q8068 455 8069 461Q8069 460 8074 478Q8080 494 8080 499Q8080 512 8062 512Q7996 513 7941 512Q7924 512 7924 494Q7924 488 7931 470Q7939 451 7939 450Q7952 389 7962.5 341.0Q7973 293 7982 256Q8020 100 8080 15Q8087 5 8081 -6Q8047 -77 8047 -159Q8047 -206 8068 -207Q8083 -208 8141 -207Q8155 -207 8158 -193Q8154 -183 8152 -176Q8141 -143 8135.0 -117.5Q8129 -92 8130 -73Q8131 -30 8173 42L8175 44Q8225 117 8269 224Q8319 347 8319 419Z" fill="#fab387" transform="translate(31.00,35.16) scale(0.02500,-0.02500)"/>
</svg>