<svg xmlns="http://www.w3.org/2000/svg" viewBox="0 0 143 46" width="143" height="46">
  <rect x="1" y="1" width="141" height="44" rx="12" fill="#181825" stroke="#313244" stroke-width="1.5"/>
  <rect x="14" y="11" width="5" height="24" rx="2.5" fill="#fab387"/>
  <path d="M530 334Q530 425 509 505Q450 729 261 729Q234 729 180 723Q127 717 100 717Q64 717 48 730Q21 712 21 654Q21 566 122 566Q133 566 150.0 567.5Q167 569 190.0 573.0Q213 577 230.0 578.5Q247 580 258 580Q340 580 379 480Q398 432 412 363Q428 292 428 243Q428 178 404 120Q372 43 318 43Q282 43 284 66Q286 83 309 89Q322 92 322 103Q322 107 319 112Q295 147 262 147Q200 147 178 65Q171 75 171 234Q171 254 172.0 288.0Q173 322 175 370Q176 414 181 482Q187 579 187 536Q187 558 168 558H73Q47 558 47 533Q47 517 48.0 494.5Q49 472 51.0 441.0Q53 410 54.0 387.5Q55 365 55 349Q55 277 51.0 197.5Q47 118 39 27Q38 4 34 -9Q33 -8 33 12Q33 -1 45 -1H166Q185 -1 185 16Q185 28 194 18Q228 -21 288 -21Q411 -21 477 101Q530 201 530 334ZM951 23Q944 75 941.0 136.0Q938 197 938 269Q938 321 939.5 375.0Q941 429 945 486Q946 499 936 504Q926 508 913 504Q888 499 859 499Q835 499 789 505Q742 511 719 511Q593 511 593 421Q593 388 615.5 368.0Q638 348 672 348Q691 348 712.5 362.0Q734 376 741 393Q751 417 736 426Q722 434 736 448Q741 453 760 453Q814 453 823 383V343Q812 338 797.0 334.5Q782 331 763 329Q677 322 625 276Q568 226 568 142Q568 -14 699 -14Q768 -14 814 23Q824 32 826 18Q827 -1 859 -1H902Q905 0 905 0Q954 0 951 23ZM827 254Q827 199 824 135Q823 110 796 86Q770 62 745 62Q692 62 692 150Q692 219 723 244Q731 251 751.0 259.5Q771 268 803 278Q811 280 815 280Q827 280 827 254ZM1217 486Q1217 503 1203 508Q1198 509 1191.0 509.5Q1184 510 1175 510H1158Q1158 576 1161 588Q1164 615 1166.0 633.0Q1168 651 1169 659Q1169 673 1160 673Q1154 673 1144 667Q1107 647 1077.0 633.0Q1047 619 1022 611Q1009 607 1009 596Q1009 588 1015 578Q1031 550 1035 510H1027Q988 510 988 486Q988 467 1026 467H1039Q1040 459 1040 440Q1040 422 1040 391Q1040 280 1035.5 190.5Q1031 101 1023 32Q1019 1 1038 0Q1104 -1 1159 0Q1173 1 1169 38Q1161 103 1156.5 147.0Q1152 191 1153 214L1157 467H1174Q1217 467 1217 486ZM1633 23Q1626 75 1623.0 136.0Q1620 197 1620 269Q1620 321 1621.5 375.0Q1623 429 1627 486Q1628 499 1618 504Q1608 508 1595 504Q1570 499 1541 499Q1517 499 1471 505Q1424 511 1401 511Q1275 511 1275 421Q1275 388 1297.5 368.0Q1320 348 1354 348Q1373 348 1394.5 362.0Q1416 376 1423 393Q1433 417 1418 426Q1404 434 1418 448Q1423 453 1442 453Q1496 453 1505 383V343Q1494 338 1479.0 334.5Q1464 331 1445 329Q1359 322 1307 276Q1250 226 1250 142Q1250 -14 1381 -14Q1450 -14 1496 23Q1506 32 1508 18Q1509 -1 1541 -1H1584Q1587 0 1587 0Q1636 0 1633 23ZM1509 254Q1509 199 1506 135Q1505 110 1478 86Q1452 62 1427 62Q1374 62 1374 150Q1374 219 1405 244Q1413 251 1433.0 259.5Q1453 268 1485 278Q1493 280 1497 280Q1509 280 1509 254ZM2086 260Q2086 360 2057 430Q2016 526 1930 526Q1875 526 1832 487Q1829 484 1826 484Q1820 484 1819 497Q1816 542 1828 671Q1830 694 1818 695H1816Q1811 695 1793 686Q1765 672 1738.0 660.0Q1711 648 1685 637Q1675 633 1675 627Q1679 619 1681.0 615.0Q1683 611 1683 611Q1705 571 1705 531V91Q1717 34 1768 2Q1814 -24 1876 -24Q1988 -24 2042 66Q2086 140 2086 260ZM1951 233Q1951 132 1942 101Q1925 41 1878 41Q1823 41 1823 124V359Q1841 437 1895 437Q1927 437 1942 392Q1951 365 1951 233ZM2503 23Q2496 75 2493.0 136.0Q2490 197 2490 269Q2490 321 2491.5 375.0Q2493 429 2497 486Q2498 499 2488 504Q2478 508 2465 504Q2440 499 2411 499Q2387 499 2341 505Q2294 511 2271 511Q2145 511 2145 421Q2145 388 2167.5 368.0Q2190 348 2224 348Q2243 348 2264.5 362.0Q2286 376 2293 393Q2303 417 2288 426Q2274 434 2288 448Q2293 453 2312 453Q2366 453 2375 383V343Q2364 338 2349.0 334.5Q2334 331 2315 329Q2229 322 2177 276Q2120 226 2120 142Q2120 -14 2251 -14Q2320 -14 2366 23Q2376 32 2378 18Q2379 -1 2411 -1H2454Q2457 0 2457 0Q2506 0 2503 23ZM2379 254Q2379 199 2376 135Q2375 110 2348 86Q2322 62 2297 62Q2244 62 2244 150Q2244 219 2275 244Q2283 251 2303.0 259.5Q2323 268 2355 278Q2363 280 2367 280Q2379 280 2379 254ZM2896 132Q2896 212 2847 257Q2814 287 2729 319Q2658 344 2645 352Q2602 374 2602 408Q2602 424 2614.0 435.0Q2626 446 2643 446Q2661 446 2710 421Q2760 396 2788 396Q2854 396 2854 464Q2854 484 2846 495Q2836 510 2817 502Q2803 496 2781 496Q2765 496 2727.0 504.0Q2689 512 2673 512Q2645 512 2621.5 502.0Q2598 492 2581.5 475.0Q2565 458 2556.0 433.5Q2547 409 2547 381Q2547 311 2579.5 270.0Q2612 229 2675 208L2789 169Q2842 143 2842 110Q2842 75 2796 75Q2774 75 2718.0 100.0Q2662 125 2631 125Q2592 125 2569.0 103.0Q2546 81 2546 43Q2546 -3 2567 -3Q2572 -3 2574 -2Q2586 4 2598.0 10.0Q2610 16 2632 16Q2652 16 2701.0 5.0Q2750 -6 2772 -6Q2830 -6 2864 34Q2896 72 2896 132ZM3289 116Q3293 138 3276 138Q3267 138 3257 123Q3228 81 3173 81Q3115 81 3078 141Q3069 156 3082 168Q3113 194 3143.0 220.5Q3173 247 3204 273Q3285 349 3285 401Q3285 461 3245.5 492.0Q3206 523 3145 523Q3035 523 2978 412Q2933 325 2933 203Q2933 113 2978 49Q3027 -24 3113 -24Q3180 -24 3228.5 13.0Q3277 50 3289 116ZM3164 388Q3164 331 3112 276Q3076 237 3050 223Q3039 258 3039 303Q3039 354 3053 398Q3073 457 3116 457Q3139 457 3153 433Q3164 413 3164 388ZM3680 132Q3680 212 3631 257Q3598 287 3513 319Q3442 344 3429 352Q3386 374 3386 408Q3386 424 3398.0 435.0Q3410 446 3427 446Q3445 446 3494 421Q3544 396 3572 396Q3638 396 3638 464Q3638 484 3630 495Q3620 510 3601 502Q3587 496 3565 496Q3549 496 3511.0 504.0Q3473 512 3457 512Q3429 512 3405.5 502.0Q3382 492 3365.5 475.0Q3349 458 3340.0 433.5Q3331 409 3331 381Q3331 311 3363.5 270.0Q3396 229 3459 208L3573 169Q3626 143 3626 110Q3626 75 3580 75Q3558 75 3502.0 100.0Q3446 125 3415 125Q3376 125 3353.0 103.0Q3330 81 3330 43Q3330 -3 3351 -3Q3356 -3 3358 -2Q3370 4 3382.0 10.0Q3394 16 3416 16Q3436 16 3485.0 5.0Q3534 -6 3556 -6Q3614 -6 3648 34Q3680 72 3680 132Z" fill="#fab387" transform="translate(31.00,35.16) scale(0.02500,-0.02500)"/>
</svg>