<svg xmlns="http://www.w3.org/2000/svg" viewBox="0 0 239 46" width="239" height="46">
  <rect x="1" y="1" width="237" height="44" rx="12" fill="#181825" stroke="#313244" stroke-width="1.5"/>
  <rect x="14" y="11" width="5" height="24" rx="2.5" fill="#fab387"/>
  <path d="M534 201Q534 280 498 342Q454 416 381 416Q342 416 311 392Q279 368 279 331Q279 288 324 258Q334 251 344 258Q355 263 356 275Q360 302 393 302Q421 302 439.5 279.0Q458 256 458 225Q458 174 419 141Q381 108 329 108Q253 108 208 178Q169 239 169 318Q169 391 198.5 460.5Q228 530 282 581Q298 597 313 597Q318 597 329 594Q368 583 403 583Q452 583 487 611Q527 641 524 688Q522 722 506 739Q497 748 482 740Q459 727 437 727Q426 727 408.0 728.5Q390 730 367 732Q320 738 299 738Q106 738 42 638Q18 600 18 586Q18 561 41 561Q52 561 63 572Q118 627 175 627Q195 627 209 621Q224 615 207 604Q124 548 75 461Q23 370 23 274Q23 151 91 65Q164 -28 286 -23Q389 -18 458 39Q534 103 534 201ZM951 265Q951 371 909 448Q858 541 759 541Q711 541 680 522Q641 499 641 455Q641 423 671 410Q572 357 572 234Q572 131 614 67Q663 -8 760 -8Q855 -8 908 85Q951 161 951 265ZM878 238Q878 188 854 154Q827 116 779 116Q727 116 698 166Q673 207 673 264Q673 372 748 383Q759 385 759 393Q759 410 727 418Q741 426 774 412Q823 393 852 341Q878 294 878 238ZM1367 265Q1367 371 1325 448Q1274 541 1175 541Q1127 541 1096 522Q1057 499 1057 455Q1057 423 1087 410Q988 357 988 234Q988 131 1030 67Q1079 -8 1176 -8Q1271 -8 1324 85Q1367 161 1367 265ZM1294 238Q1294 188 1270 154Q1243 116 1195 116Q1143 116 1114 166Q1089 207 1089 264Q1089 372 1164 383Q1175 385 1175 393Q1175 410 1143 418Q1157 426 1190 412Q1239 393 1268 341Q1294 294 1294 238ZM1564 689Q1564 708 1553 708Q1547 708 1537 702Q1508 685 1479.5 672.0Q1451 659 1424 649Q1403 641 1403 631Q1403 625 1408 613Q1415 598 1420.0 575.5Q1425 553 1427 522Q1428 515 1428 483Q1428 451 1428 391Q1428 126 1416 32Q1412 1 1431 0Q1497 -1 1552 0Q1566 1 1562 38Q1554 107 1549.5 151.0Q1545 195 1546 214L1557 605Q1558 615 1558 620Q1558 626 1558 627Q1562 677 1564 689ZM1956 132Q1956 212 1907 257Q1874 287 1789 319Q1718 344 1705 352Q1662 374 1662 408Q1662 424 1674.0 435.0Q1686 446 1703 446Q1721 446 1770 421Q1820 396 1848 396Q1914 396 1914 464Q1914 484 1906 495Q1896 510 1877 502Q1863 496 1841 496Q1825 496 1787.0 504.0Q1749 512 1733 512Q1705 512 1681.5 502.0Q1658 492 1641.5 475.0Q1625 458 1616.0 433.5Q1607 409 1607 381Q1607 311 1639.5 270.0Q1672 229 1735 208L1849 169Q1902 143 1902 110Q1902 75 1856 75Q1834 75 1778.0 100.0Q1722 125 1691 125Q1652 125 1629.0 103.0Q1606 81 1606 43Q1606 -3 1627 -3Q1632 -3 1634 -2Q1646 4 1658.0 10.0Q1670 16 1692 16Q1712 16 1761.0 5.0Q1810 -6 1832 -6Q1890 -6 1924 34Q1956 72 1956 132ZM2918 314Q2918 327 2913 332L2875 371Q2849 396 2830 395L2818 394L2802 366Q2792 350 2792 338L2766 282Q2753 253 2724 236Q2700 250 2672 296L2630 364Q2697 470 2697 531Q2697 581 2660 612Q2622 645 2573 645Q2532 645 2492 607Q2453 569 2453 528Q2453 499 2486 445Q2520 388 2523 361Q2509 329 2442 242Q2391 177 2391 119Q2391 63 2449 29Q2495 1 2538 1Q2565 1 2638.0 53.0Q2711 105 2724 105Q2742 101 2751 82L2766 50Q2771 33 2771 20Q2771 -16 2751 -39Q2703 -45 2682 -45Q2652 -62 2652 -95L2662 -116Q2674 -141 2704 -141Q2731 -141 2760 -125Q2833 -88 2827 4L2825 37Q2790 131 2771 172Q2814 242 2916 299Q2918 307 2918 314ZM2622 523Q2622 505 2611 472Q2597 434 2581 433Q2563 446 2550.0 476.0Q2537 506 2537 531Q2537 570 2579 570Q2622 570 2622 523ZM2670 180 2669 175Q2622 136 2577 136Q2520 136 2520 185Q2520 214 2539 253Q2560 296 2584 301L2632 244Q2670 198 2670 180ZM3835 504Q3834 609 3781 671Q3725 736 3621 736Q3593 736 3540 726Q3484 717 3457 718Q3431 719 3412.5 721.0Q3394 723 3381 726Q3372 728 3366.0 719.5Q3360 711 3361 700Q3379 520 3379 398Q3379 249 3367 132Q3366 127 3364.5 112.5Q3363 98 3359 74Q3353 39 3353 16Q3353 0 3381 0H3493Q3534 0 3529 20Q3501 145 3501 270Q3501 285 3503.0 307.0Q3505 329 3509 358Q3543 270 3649 270Q3737 270 3789 346Q3836 415 3835 504ZM3703 460Q3703 388 3675 356Q3664 344 3651 344Q3623 344 3623 382Q3623 411 3649 434Q3625 466 3585 466Q3539 466 3509 414V502Q3509 586 3524 621Q3543 667 3597 664Q3663 661 3681 596Q3703 521 3703 460ZM4165 486Q4165 520 4113 520Q4054 520 4013 476Q4008 471 4005 471Q4000 471 4000 483Q4000 507 3978 508Q3963 509 3888 508Q3866 508 3873 483Q3895 414 3895 235Q3895 190 3891.5 139.5Q3888 89 3881 32Q3877 2 3892 0Q3936 -2 4001 0Q4013 2 4014 15L4011 38Q4007 69 4005.0 112.5Q4003 156 4003 214Q4003 311 4007 330Q4022 411 4049 411Q4068 411 4078 401L4103 367Q4116 349 4123 349Q4131 349 4135 368Q4141 388 4145.5 402.5Q4150 417 4153 427Q4165 466 4165 486ZM4575 265Q4575 371 4533 448Q4482 541 4383 541Q4335 541 4304 522Q4265 499 4265 455Q4265 423 4295 410Q4196 357 4196 234Q4196 131 4238 67Q4287 -8 4384 -8Q4479 -8 4532 85Q4575 161 4575 265ZM4502 238Q4502 188 4478 154Q4451 116 4403 116Q4351 116 4322 166Q4297 207 4297 264Q4297 372 4372 383Q4383 385 4383 393Q4383 410 4351 418Q4365 426 4398 412Q4447 393 4476 341Q4502 294 4502 238ZM5006 17Q5006 20 5001.0 38.0Q4996 56 4996 58Q4993 125 4993 119L4998 522Q4999 586 5001.0 622.5Q5003 659 5005 669Q5013 698 4997 698Q4991 698 4987 695L4923 665Q4869 639 4869 634Q4869 631 4875 615Q4888 579 4890 561Q4891 557 4891 505Q4891 491 4886 491Q4883 491 4877 497Q4854 519 4841 527Q4824 536 4794 536Q4705 536 4652 444Q4608 367 4608 270Q4608 -5 4755 -5Q4818 -5 4866 46Q4873 55 4880 55Q4884 55 4884 46Q4883 -5 4881 9Q4896 1 4906 0Q4940 -1 4989 0Q5006 2 5006 17ZM4895 297Q4895 82 4822 78Q4766 75 4741 156Q4724 213 4724 280Q4724 357 4738 390Q4748 411 4753.5 423.0Q4759 435 4761 438Q4781 467 4813 467Q4857 467 4879 400Q4895 355 4895 297ZM5425 25Q5409 89 5409 273Q5409 318 5412.5 368.5Q5416 419 5423 476Q5427 507 5408 508Q5348 511 5299 508Q5285 507 5289 470Q5293 438 5295.0 394.0Q5297 350 5297 294Q5297 250 5296.0 221.0Q5295 192 5293 178Q5289 141 5272 111Q5251 71 5221 71Q5188 71 5179 124Q5177 135 5176.0 159.5Q5175 184 5175 221Q5175 337 5181 429Q5181 431 5182.5 438.5Q5184 446 5186 458Q5192 482 5192 490Q5192 508 5170 508Q5086 510 5072 508Q5052 506 5052 489Q5052 476 5053.0 458.0Q5054 440 5056 416Q5058 393 5059.5 375.0Q5061 357 5061 346Q5061 335 5061 313Q5061 291 5060 258Q5059 228 5059 202Q5059 177 5058 157Q5057 135 5057 132Q5057 129 5057 145Q5057 -10 5181 -10Q5250 -10 5281 24Q5286 29 5289 29Q5292 29 5294 14Q5297 0 5316 0H5410Q5431 0 5425 25ZM5813 128Q5813 140 5805 140Q5795 140 5783 123Q5757 85 5705 85Q5632 85 5598 170Q5573 230 5573 318Q5573 375 5594 419Q5620 475 5671 475Q5700 475 5700 458Q5700 465 5676 431Q5653 396 5653 377Q5653 350 5669 330L5707 292Q5714 285 5721 285Q5731 285 5730 303Q5727 329 5746 342Q5797 379 5797 424Q5797 469 5758 498Q5723 524 5675 524Q5570 524 5514 420Q5468 337 5468 222Q5468 118 5508 54Q5556 -23 5654 -23Q5716 -23 5756 14Q5766 24 5776.5 38.0Q5787 52 5795.0 68.0Q5803 84 5808.0 99.5Q5813 115 5813 128ZM6074 486Q6074 503 6060 508Q6055 509 6048.0 509.5Q6041 510 6032 510H6015Q6015 576 6018 588Q6021 615 6023.0 633.0Q6025 651 6026 659Q6026 673 6017 673Q6011 673 6001 667Q5964 647 5934.0 633.0Q5904 619 5879 611Q5866 607 5866 596Q5866 588 5872 578Q5888 550 5892 510H5884Q5845 510 5845 486Q5845 467 5883 467H5896Q5897 459 5897 440Q5897 422 5897 391Q5897 280 5892.5 190.5Q5888 101 5880 32Q5876 1 5895 0Q5961 -1 6016 0Q6030 1 6026 38Q6018 103 6013.5 147.0Q6009 191 6010 214L6014 467H6031Q6074 467 6074 486ZM6248 621Q6247 647 6228.0 666.0Q6209 685 6183.0 684.0Q6157 683 6138.0 664.0Q6119 645 6120.0 619.0Q6121 593 6140.0 574.0Q6159 555 6185.0 556.0Q6211 557 6230.0 576.0Q6249 595 6248 621ZM6241 462Q6248 510 6225 510H6137Q6116 510 6116 488Q6116 482 6117 478Q6123 446 6123 240Q6123 183 6119.5 131.5Q6116 80 6109 32Q6104 0 6129 0H6172H6197H6215Q6242 0 6239 46Q6234 127 6231.5 185.0Q6229 243 6229 280Q6229 387 6241 462ZM6676 424Q6676 472 6648.5 503.0Q6621 534 6576 534Q6545 534 6522 517Q6496 497 6496 468Q6496 419 6523 419Q6525 419 6533.0 421.0Q6541 423 6544 423Q6588 423 6588 349Q6588 303 6566 250Q6552 218 6542.0 194.0Q6532 170 6525 154Q6520 143 6512 143Q6506 143 6500 153Q6427 277 6427 407Q6427 428 6427.5 441.5Q6428 455 6429 461Q6429 460 6434 478Q6440 494 6440 499Q6440 512 6422 512Q6356 513 6301 512Q6284 512 6284 494Q6284 495 6299 450Q6316 367 6327.0 317.0Q6338 267 6343 248Q6382 87 6445 11Q6462 -9 6477 -9Q6494 -9 6514 15Q6572 91 6622 210Q6676 339 6676 424ZM6853 621Q6852 647 6833.0 666.0Q6814 685 6788.0 684.0Q6762 683 6743.0 664.0Q6724 645 6725.0 619.0Q6726 593 6745.0 574.0Q6764 555 6790.0 556.0Q6816 557 6835.0 576.0Q6854 595 6853 621ZM6846 462Q6853 510 6830 510H6742Q6721 510 6721 488Q6721 482 6722 478Q6728 446 6728 240Q6728 183 6724.5 131.5Q6721 80 6714 32Q6709 0 6734 0H6777H6802H6820Q6847 0 6844 46Q6839 127 6836.5 185.0Q6834 243 6834 280Q6834 387 6846 462ZM7117 486Q7117 503 7103 508Q7098 509 7091.0 509.5Q7084 510 7075 510H7058Q7058 576 7061 588Q7064 615 7066.0 633.0Q7068 651 7069 659Q7069 673 7060 673Q7054 673 7044 667Q7007 647 6977.0 633.0Q6947 619 6922 611Q6909 607 6909 596Q6909 588 6915 578Q6931 550 6935 510H6927Q6888 510 6888 486Q6888 467 6926 467H6939Q6940 459 6940 440Q6940 422 6940 391Q6940 280 6935.5 190.5Q6931 101 6923 32Q6919 1 6938 0Q7004 -1 7059 0Q7073 1 7069 38Q7061 103 7056.5 147.0Q7052 191 7053 214L7057 467H7074Q7117 467 7117 486ZM7541 419Q7541 467 7513.5 498.0Q7486 529 7441 529Q7410 529 7387 512Q7361 492 7361 463Q7361 414 7388 414Q7390 414 7398.0 416.0Q7406 418 7409 418Q7454 418 7454 349Q7454 307 7430 250Q7416 218 7405.5 194.0Q7395 170 7387 154Q7382 143 7374 143Q7368 143 7362 153Q7289 277 7289 407Q7289 428 7289.5 441.5Q7290 455 7291 461Q7291 460 7296 478Q7302 494 7302 499Q7302 512 7284 512Q7218 513 7163 512Q7146 512 7146 494Q7146 488 7153 470Q7161 451 7161 450Q7174 389 7184.5 341.0Q7195 293 7204 256Q7242 100 7302 15Q7309 5 7303 -6Q7269 -77 7269 -159Q7269 -206 7290 -207Q7305 -208 7363 -207Q7377 -207 7380 -193Q7376 -183 7374 -176Q7363 -143 7357.0 -117.5Q7351 -92 7352 -73Q7353 -30 7395 42L7397 44Q7447 117 7491 224Q7541 347 7541 419Z" fill="#fab387" transform="translate(31.00,35.16) scale(0.02500,-0.02500)"/>
</svg>