<svg xmlns="http://www.w3.org/2000/svg" viewBox="0 0 147 46" width="147" height="46">
  <rect x="1" y="1" width="145" height="44" rx="12" fill="#181825" stroke="#313244" stroke-width="1.5"/>
  <rect x="14" y="11" width="5" height="24" rx="2.5" fill="#fab387"/>
  <path d="M494 110Q494 161 468 208Q461 219 449.5 236.0Q438 253 421 276Q395 311 395 329Q395 357 435 357Q448 357 448 391V450Q448 472 431 472Q391 472 361 431Q334 393 334 352Q334 325 348 267Q363 211 363 183Q363 132 340 100Q314 64 265 64Q168 64 168 177V443Q168 580 187 660L193 686Q197 701 197 709Q197 724 174 724Q107 725 55 724Q38 724 38 707Q38 704 39.0 697.5Q40 691 41.5 684.0Q43 677 44.5 671.0Q46 665 46 664Q51 604 54.0 534.5Q57 465 57 385Q57 201 35 73Q31 50 28.5 37.0Q26 24 24 19Q21 11 24 -1Q36 -6 55 0Q113 15 172 15Q203 15 265 6Q296 2 319.0 0.0Q342 -2 358 -2Q418 -2 453 23Q494 53 494 110ZM909 23Q902 75 899.0 136.0Q896 197 896 269Q896 321 897.5 375.0Q899 429 903 486Q904 499 894 504Q884 508 871 504Q846 499 817 499Q793 499 747 505Q700 511 677 511Q551 511 551 421Q551 388 573.5 368.0Q596 348 630 348Q649 348 670.5 362.0Q692 376 699 393Q709 417 694 426Q680 434 694 448Q699 453 718 453Q772 453 781 383V343Q770 338 755.0 334.5Q740 331 721 329Q635 322 583 276Q526 226 526 142Q526 -14 657 -14Q726 -14 772 23Q782 32 784 18Q785 -1 817 -1H860Q863 0 863 0Q912 0 909 23ZM785 254Q785 199 782 135Q781 110 754 86Q728 62 703 62Q650 62 650 150Q650 219 681 244Q689 251 709.0 259.5Q729 268 761 278Q769 280 773 280Q785 280 785 254ZM1329 19Q1329 29 1328 31Q1322 61 1320.5 96.0Q1319 131 1318 162Q1317 182 1317.5 207.0Q1318 232 1319 264Q1322 343 1322 365Q1323 442 1302 477Q1275 520 1200 520Q1131 520 1100 484Q1095 479 1092 479Q1087 479 1087 492Q1087 507 1065 508Q1050 509 975 508Q954 508 960 483Q970 443 970 235Q970 190 966.5 139.5Q963 89 956 32Q952 2 967 0Q1011 -2 1076 0Q1088 2 1089 15L1086 38Q1082 69 1080.0 112.5Q1078 156 1078 214Q1078 260 1079.0 289.0Q1080 318 1082 330Q1088 368 1109 400Q1134 439 1168 439Q1201 439 1209 386Q1211 371 1211.5 346.5Q1212 322 1210 287L1200 79Q1200 73 1194 49Q1189 24 1189 18Q1189 0 1211 0H1309Q1329 0 1329 19ZM1773 462Q1773 470 1753 476Q1746 478 1739.0 479.0Q1732 480 1725 482Q1702 493 1685.5 500.5Q1669 508 1661 512Q1622 524 1591 524Q1485 522 1424 433Q1371 354 1369 244Q1367 85 1479 12Q1494 1 1494 -5Q1494 -11 1467 -36Q1408 -92 1401 -96Q1383 -110 1383 -121Q1383 -131 1397 -148Q1455 -220 1543 -220Q1643 -220 1705 -136Q1761 -60 1761 42Q1761 64 1758.5 96.5Q1756 129 1751.0 174.0Q1746 219 1743.5 251.5Q1741 284 1741 306Q1741 379 1765 438Q1773 459 1773 462ZM1635 125Q1635 95 1602 95Q1552 95 1510 195Q1474 280 1474 339Q1474 380 1491 411Q1512 448 1551 448Q1573 448 1593 434Q1596 432 1626 404Q1626 384 1623 344Q1622 324 1621.5 309.0Q1621 294 1621 284Q1621 270 1622.5 250.0Q1624 230 1628.0 204.0Q1632 178 1633.5 158.5Q1635 139 1635 125ZM1668 -51Q1668 -87 1642.0 -116.0Q1616 -145 1582 -145Q1558 -145 1528 -114Q1497 -84 1505 -67Q1506 -66 1506.5 -65.0Q1507 -64 1508 -63Q1539 -35 1569.5 -8.5Q1600 18 1631 44Q1645 55 1649 55Q1655 55 1657 49Q1668 19 1668 -51ZM2186 25Q2170 89 2170 273Q2170 318 2173.5 368.5Q2177 419 2184 476Q2188 507 2169 508Q2109 511 2060 508Q2046 507 2050 470Q2054 438 2056.0 394.0Q2058 350 2058 294Q2058 250 2057.0 221.0Q2056 192 2054 178Q2050 141 2033 111Q2012 71 1982 71Q1949 71 1940 124Q1938 135 1937.0 159.5Q1936 184 1936 221Q1936 337 1942 429Q1942 431 1943.5 438.5Q1945 446 1947 458Q1953 482 1953 490Q1953 508 1931 508Q1847 510 1833 508Q1813 506 1813 489Q1813 476 1814.0 458.0Q1815 440 1817 416Q1819 393 1820.5 375.0Q1822 357 1822 346Q1822 335 1822 313Q1822 291 1821 258Q1820 228 1820 202Q1820 177 1819 157Q1818 135 1818 132Q1818 129 1818 145Q1818 -10 1942 -10Q2011 -10 2042 24Q2047 29 2050 29Q2053 29 2055 14Q2058 0 2077 0H2171Q2192 0 2186 25ZM2613 23Q2606 75 2603.0 136.0Q2600 197 2600 269Q2600 321 2601.5 375.0Q2603 429 2607 486Q2608 499 2598 504Q2588 508 2575 504Q2550 499 2521 499Q2497 499 2451 505Q2404 511 2381 511Q2255 511 2255 421Q2255 388 2277.5 368.0Q2300 348 2334 348Q2353 348 2374.5 362.0Q2396 376 2403 393Q2413 417 2398 426Q2384 434 2398 448Q2403 453 2422 453Q2476 453 2485 383V343Q2474 338 2459.0 334.5Q2444 331 2425 329Q2339 322 2287 276Q2230 226 2230 142Q2230 -14 2361 -14Q2430 -14 2476 23Q2486 32 2488 18Q2489 -1 2521 -1H2564Q2567 0 2567 0Q2616 0 2613 23ZM2489 254Q2489 199 2486 135Q2485 110 2458 86Q2432 62 2407 62Q2354 62 2354 150Q2354 219 2385 244Q2393 251 2413.0 259.5Q2433 268 2465 278Q2473 280 2477 280Q2489 280 2489 254ZM3059 462Q3059 470 3039 476Q3032 478 3025.0 479.0Q3018 480 3011 482Q2988 493 2971.5 500.5Q2955 508 2947 512Q2908 524 2877 524Q2771 522 2710 433Q2657 354 2655 244Q2653 85 2765 12Q2780 1 2780 -5Q2780 -11 2753 -36Q2694 -92 2687 -96Q2669 -110 2669 -121Q2669 -131 2683 -148Q2741 -220 2829 -220Q2929 -220 2991 -136Q3047 -60 3047 42Q3047 64 3044.5 96.5Q3042 129 3037.0 174.0Q3032 219 3029.5 251.5Q3027 284 3027 306Q3027 379 3051 438Q3059 459 3059 462ZM2921 125Q2921 95 2888 95Q2838 95 2796 195Q2760 280 2760 339Q2760 380 2777 411Q2798 448 2837 448Q2859 448 2879 434Q2882 432 2912 404Q2912 384 2909 344Q2908 324 2907.5 309.0Q2907 294 2907 284Q2907 270 2908.5 250.0Q2910 230 2914.0 204.0Q2918 178 2919.5 158.5Q2921 139 2921 125ZM2954 -51Q2954 -87 2928.0 -116.0Q2902 -145 2868 -145Q2844 -145 2814 -114Q2783 -84 2791 -67Q2792 -66 2792.5 -65.0Q2793 -64 2794 -63Q2825 -35 2855.5 -8.5Q2886 18 2917 44Q2931 55 2935 55Q2941 55 2943 49Q2954 19 2954 -51ZM3452 116Q3456 138 3439 138Q3430 138 3420 123Q3391 81 3336 81Q3278 81 3241 141Q3232 156 3245 168Q3276 194 3306.0 220.5Q3336 247 3367 273Q3448 349 3448 401Q3448 461 3408.5 492.0Q3369 523 3308 523Q3198 523 3141 412Q3096 325 3096 203Q3096 113 3141 49Q3190 -24 3276 -24Q3343 -24 3391.5 13.0Q3440 50 3452 116ZM3327 388Q3327 331 3275 276Q3239 237 3213 223Q3202 258 3202 303Q3202 354 3216 398Q3236 457 3279 457Q3302 457 3316 433Q3327 413 3327 388ZM3843 132Q3843 212 3794 257Q3761 287 3676 319Q3605 344 3592 352Q3549 374 3549 408Q3549 424 3561.0 435.0Q3573 446 3590 446Q3608 446 3657 421Q3707 396 3735 396Q3801 396 3801 464Q3801 484 3793 495Q3783 510 3764 502Q3750 496 3728 496Q3712 496 3674.0 504.0Q3636 512 3620 512Q3592 512 3568.5 502.0Q3545 492 3528.5 475.0Q3512 458 3503.0 433.5Q3494 409 3494 381Q3494 311 3526.5 270.0Q3559 229 3622 208L3736 169Q3789 143 3789 110Q3789 75 3743 75Q3721 75 3665.0 100.0Q3609 125 3578 125Q3539 125 3516.0 103.0Q3493 81 3493 43Q3493 -3 3514 -3Q3519 -3 3521 -2Q3533 4 3545.0 10.0Q3557 16 3579 16Q3599 16 3648.0 5.0Q3697 -6 3719 -6Q3777 -6 3811 34Q3843 72 3843 132Z" fill="#fab387" transform="translate(31.00,35.16) scale(0.02500,-0.02500)"/>
</svg>