<svg xmlns="http://www.w3.org/2000/svg" viewBox="0 0 900 70" width="900" height="70">
  <rect x="1" y="1" width="898" height="68" rx="16" fill="#181825" stroke="#313244" stroke-width="1.5"/>
  <rect x="26" y="18" width="7" height="34" rx="3.5" fill="#fab387"/>
  <path d="M528 218Q528 245 502 245Q481 245 476 228Q464 179 429.5 148.5Q395 118 347 118Q250 118 195 224Q148 313 148 416Q148 509 178 577Q218 667 300 667Q325 667 346.0 649.0Q367 631 367 607Q367 576 345.0 558.0Q323 540 289 540Q270 540 263.0 536.0Q256 532 256 514Q256 473 293 445Q328 419 369 419Q447 419 484 489Q502 523 502 575Q502 648 452 698Q402 749 329 749Q169 749 73 564Q19 460 19 320Q19 244 29 208Q54 110 115 49Q182 -17 278 -17Q422 -17 487 85Q528 150 528 218ZM945 265Q945 371 903 448Q852 541 753 541Q705 541 674 522Q635 499 635 455Q635 423 665 410Q566 357 566 234Q566 131 608 67Q657 -8 754 -8Q849 -8 902 85Q945 161 945 265ZM872 238Q872 188 848 154Q821 116 773 116Q721 116 692 166Q667 207 667 264Q667 372 742 383Q753 385 753 393Q753 410 721 418Q735 426 768 412Q817 393 846 341Q872 294 872 238ZM1361 19Q1361 29 1360 31Q1354 61 1352.5 96.0Q1351 131 1350 162Q1349 182 1349.5 207.0Q1350 232 1351 264Q1354 343 1354 365Q1355 442 1334 477Q1307 520 1232 520Q1163 520 1132 484Q1127 479 1124 479Q1119 479 1119 492Q1119 507 1097 508Q1082 509 1007 508Q986 508 992 483Q1002 443 1002 235Q1002 190 998.5 139.5Q995 89 988 32Q984 2 999 0Q1043 -2 1108 0Q1120 2 1121 15L1118 38Q1114 69 1112.0 112.5Q1110 156 1110 214Q1110 260 1111.0 289.0Q1112 318 1114 330Q1120 368 1141 400Q1166 439 1200 439Q1233 439 1241 386Q1243 371 1243.5 346.5Q1244 322 1242 287L1232 79Q1232 73 1226 49Q1221 24 1221 18Q1221 0 1243 0H1341Q1361 0 1361 19ZM1625 486Q1625 503 1611 508Q1606 509 1599.0 509.5Q1592 510 1583 510H1566Q1566 576 1569 588Q1572 615 1574.0 633.0Q1576 651 1577 659Q1577 673 1568 673Q1562 673 1552 667Q1515 647 1485.0 633.0Q1455 619 1430 611Q1417 607 1417 596Q1417 588 1423 578Q1439 550 1443 510H1435Q1396 510 1396 486Q1396 467 1434 467H1447Q1448 459 1448 440Q1448 422 1448 391Q1448 280 1443.5 190.5Q1439 101 1431 32Q1427 1 1446 0Q1512 -1 1567 0Q1581 1 1577 38Q1569 103 1564.5 147.0Q1560 191 1561 214L1565 467H1582Q1625 467 1625 486ZM2041 23Q2034 75 2031.0 136.0Q2028 197 2028 269Q2028 321 2029.5 375.0Q2031 429 2035 486Q2036 499 2026 504Q2016 508 2003 504Q1978 499 1949 499Q1925 499 1879 505Q1832 511 1809 511Q1683 511 1683 421Q1683 388 1705.5 368.0Q1728 348 1762 348Q1781 348 1802.5 362.0Q1824 376 1831 393Q1841 417 1826 426Q1812 434 1826 448Q1831 453 1850 453Q1904 453 1913 383V343Q1902 338 1887.0 334.5Q1872 331 1853 329Q1767 322 1715 276Q1658 226 1658 142Q1658 -14 1789 -14Q1858 -14 1904 23Q1914 32 1916 18Q1917 -1 1949 -1H1992Q1995 0 1995 0Q2044 0 2041 23ZM1917 254Q1917 199 1914 135Q1913 110 1886 86Q1860 62 1835 62Q1782 62 1782 150Q1782 219 1813 244Q1821 251 1841.0 259.5Q1861 268 1893 278Q1901 280 1905 280Q1917 280 1917 254ZM2427 128Q2427 140 2419 140Q2409 140 2397 123Q2371 85 2319 85Q2246 85 2212 170Q2187 230 2187 318Q2187 375 2208 419Q2234 475 2285 475Q2314 475 2314 458Q2314 465 2290 431Q2267 396 2267 377Q2267 350 2283 330L2321 292Q2328 285 2335 285Q2345 285 2344 303Q2341 329 2360 342Q2411 379 2411 424Q2411 469 2372 498Q2337 524 2289 524Q2184 524 2128 420Q2082 337 2082 222Q2082 118 2122 54Q2170 -23 2268 -23Q2330 -23 2370 14Q2380 24 2390.5 38.0Q2401 52 2409.0 68.0Q2417 84 2422.0 99.5Q2427 115 2427 128ZM2688 486Q2688 503 2674 508Q2669 509 2662.0 509.5Q2655 510 2646 510H2629Q2629 576 2632 588Q2635 615 2637.0 633.0Q2639 651 2640 659Q2640 673 2631 673Q2625 673 2615 667Q2578 647 2548.0 633.0Q2518 619 2493 611Q2480 607 2480 596Q2480 588 2486 578Q2502 550 2506 510H2498Q2459 510 2459 486Q2459 467 2497 467H2510Q2511 459 2511 440Q2511 422 2511 391Q2511 280 2506.5 190.5Q2502 101 2494 32Q2490 1 2509 0Q2575 -1 2630 0Q2644 1 2640 38Q2632 103 2627.5 147.0Q2623 191 2624 214L2628 467H2645Q2688 467 2688 486Z" fill="#fab387" transform="translate(51.00,54.46) scale(0.04000,-0.04000)"/>
  <circle cx="842" cy="35" r="3.5" fill="#45475a"/>
  <circle cx="856" cy="35" r="3.5" fill="#fab387" opacity="0.5"/>
  <circle cx="870" cy="35" r="3.5" fill="#fab387"/>
</svg>