<svg xmlns="http://www.w3.org/2000/svg" viewBox="0 0 900 110" width="900" height="110">
  <defs>
    <linearGradient id="fg" x1="0" y1="0" x2="0" y2="1">
      <stop offset="0%" stop-color="#11111b"/>
      <stop offset="100%" stop-color="#1e1e2e"/>
    </linearGradient>
    <linearGradient id="frule" x1="0" y1="0" x2="1" y2="0">
      <stop offset="0%" stop-color="#fab387" stop-opacity="0"/>
      <stop offset="50%" stop-color="#fab387"/>
      <stop offset="100%" stop-color="#fab387" stop-opacity="0"/>
    </linearGradient>
  </defs>
  <rect width="900" height="110" rx="20" fill="url(#fg)"/>
  <rect x="200" y="34" width="500" height="2.5" rx="1.25" fill="url(#frule)"/>
  <path d="M243 486Q243 503 229 508Q224 509 217.0 509.5Q210 510 201 510H184Q184 576 187 588Q190 615 192.0 633.0Q194 651 195 659Q195 673 186 673Q180 673 170 667Q133 647 103.0 633.0Q73 619 48 611Q35 607 35 596Q35 588 41 578Q57 550 61 510H53Q14 510 14 486Q14 467 52 467H65Q66 459 66 440Q66 422 66 391Q66 280 61.5 190.5Q57 101 49 32Q45 1 64 0Q130 -1 185 0Q199 1 195 38Q187 103 182.5 147.0Q178 191 179 214L183 467H200Q243 467 243 486ZM667 19Q667 31 665.5 49.0Q664 67 662 90Q660 114 659.0 132.0Q658 150 658 162L660 262Q661 304 661.5 329.0Q662 354 662 363Q663 526 534 526Q472 526 438 486Q433 480 428 480Q421 480 423 491L426 546Q427 565 427.5 587.0Q428 609 428 635Q428 702 419 698Q372 673 340.0 656.5Q308 640 291 630Q273 618 284 597Q292 581 297.0 560.5Q302 540 304 514Q305 501 305.5 470.5Q306 440 306 391Q306 319 299.5 230.0Q293 141 280 32Q276 1 295 0Q361 -1 416 0Q430 1 426 38Q422 70 420.0 114.0Q418 158 418 214Q418 307 422 330Q439 437 498 437Q551 437 544 289L534 81Q534 79 533.0 71.5Q532 64 530.0 52.0Q528 40 527.0 32.0Q526 24 526 20Q526 0 549 0H647Q667 0 667 19ZM1085 23Q1078 75 1075.0 136.0Q1072 197 1072 269Q1072 321 1073.5 375.0Q1075 429 1079 486Q1080 499 1070 504Q1060 508 1047 504Q1022 499 993 499Q969 499 923 505Q876 511 853 511Q727 511 727 421Q727 388 749.5 368.0Q772 348 806 348Q825 348 846.5 362.0Q868 376 875 393Q885 417 870 426Q856 434 870 448Q875 453 894 453Q948 453 957 383V343Q946 338 931.0 334.5Q916 331 897 329Q811 322 759 276Q702 226 702 142Q702 -14 833 -14Q902 -14 948 23Q958 32 960 18Q961 -1 993 -1H1036Q1039 0 1039 0Q1088 0 1085 23ZM961 254Q961 199 958 135Q957 110 930 86Q904 62 879 62Q826 62 826 150Q826 219 857 244Q865 251 885.0 259.5Q905 268 937 278Q945 280 949 280Q961 280 961 254ZM1505 19Q1505 29 1504 31Q1498 61 1496.5 96.0Q1495 131 1494 162Q1493 182 1493.5 207.0Q1494 232 1495 264Q1498 343 1498 365Q1499 442 1478 477Q1451 520 1376 520Q1307 520 1276 484Q1271 479 1268 479Q1263 479 1263 492Q1263 507 1241 508Q1226 509 1151 508Q1130 508 1136 483Q1146 443 1146 235Q1146 190 1142.5 139.5Q1139 89 1132 32Q1128 2 1143 0Q1187 -2 1252 0Q1264 2 1265 15L1262 38Q1258 69 1256.0 112.5Q1254 156 1254 214Q1254 260 1255.0 289.0Q1256 318 1258 330Q1264 368 1285 400Q1310 439 1344 439Q1377 439 1385 386Q1387 371 1387.5 346.5Q1388 322 1386 287L1376 79Q1376 73 1370 49Q1365 24 1365 18Q1365 0 1387 0H1485Q1505 0 1505 19ZM1945 20Q1945 24 1940 42Q1936 57 1936 60Q1914 228 1878 270Q1863 286 1863 296Q1863 300 1874 314Q1932 381 1932 434Q1932 482 1889 507Q1854 528 1802 528Q1732 528 1686 476Q1688 529 1689.0 561.5Q1690 594 1690 607Q1690 621 1693 648Q1695 662 1696.0 672.0Q1697 682 1697 689Q1697 708 1686 708Q1680 708 1670 702Q1626 679 1598.5 665.0Q1571 651 1559 646Q1546 642 1546 631Q1546 625 1551 613Q1558 599 1563.0 576.0Q1568 553 1570 522Q1571 515 1571 483Q1571 451 1571 391Q1571 275 1566.0 185.5Q1561 96 1551 32Q1547 1 1566 0Q1628 -2 1687 0Q1706 1 1697 38Q1680 104 1679 188Q1745 230 1756 230Q1765 230 1782 198Q1818 130 1818 58Q1818 54 1815.0 41.0Q1812 28 1812 24Q1812 3 1838 0Q1881 -5 1922 0Q1945 3 1945 20ZM1802 396Q1802 334 1728 284Q1704 268 1680 261L1683 358Q1702 440 1750 440Q1802 440 1802 396ZM2329 132Q2329 212 2280 257Q2247 287 2162 319Q2091 344 2078 352Q2035 374 2035 408Q2035 424 2047.0 435.0Q2059 446 2076 446Q2094 446 2143 421Q2193 396 2221 396Q2287 396 2287 464Q2287 484 2279 495Q2269 510 2250 502Q2236 496 2214 496Q2198 496 2160.0 504.0Q2122 512 2106 512Q2078 512 2054.5 502.0Q2031 492 2014.5 475.0Q1998 458 1989.0 433.5Q1980 409 1980 381Q1980 311 2012.5 270.0Q2045 229 2108 208L2222 169Q2275 143 2275 110Q2275 75 2229 75Q2207 75 2151.0 100.0Q2095 125 2064 125Q2025 125 2002.0 103.0Q1979 81 1979 43Q1979 -3 2000 -3Q2005 -3 2007 -2Q2019 4 2031.0 10.0Q2043 16 2065 16Q2085 16 2134.0 5.0Q2183 -6 2205 -6Q2263 -6 2297 34Q2329 72 2329 132ZM3007 667Q3007 687 2988 699Q2981 689 2958 689Q2950 689 2939.5 690.5Q2929 692 2917 694Q2877 702 2867 702Q2827 702 2802.0 677.0Q2777 652 2777 612Q2777 601 2791 548Q2800 515 2804 515Q2805 515 2805 522Q2805 516 2785 508Q2766 501 2765 488Q2763 467 2797 467Q2820 467 2820 447V76Q2820 72 2818.5 64.5Q2817 57 2815 45Q2810 20 2810 14Q2810 2 2827 0Q2875 -2 2925 0Q2943 1 2943 16Q2943 21 2938 46Q2936 58 2935.0 65.5Q2934 73 2934 76V449Q2934 459 2966.0 467.0Q2998 475 2998 488Q2998 505 2983 508H2952Q2932 508 2932 520Q2932 540 2892 562Q2872 574 2862.0 580.0Q2852 586 2852 586Q2852 596 2868 596Q2874 596 2883.5 594.0Q2893 592 2902.5 590.0Q2912 588 2921.5 586.0Q2931 584 2937 584Q3007 584 3007 667ZM3420 265Q3420 371 3378 448Q3327 541 3228 541Q3180 541 3149 522Q3110 499 3110 455Q3110 423 3140 410Q3041 357 3041 234Q3041 131 3083 67Q3132 -8 3229 -8Q3324 -8 3377 85Q3420 161 3420 265ZM3347 238Q3347 188 3323 154Q3296 116 3248 116Q3196 116 3167 166Q3142 207 3142 264Q3142 372 3217 383Q3228 385 3228 393Q3228 410 3196 418Q3210 426 3243 412Q3292 393 3321 341Q3347 294 3347 238ZM3755 486Q3755 520 3703 520Q3644 520 3603 476Q3598 471 3595 471Q3590 471 3590 483Q3590 507 3568 508Q3553 509 3478 508Q3456 508 3463 483Q3485 414 3485 235Q3485 190 3481.5 139.5Q3478 89 3471 32Q3467 2 3482 0Q3526 -2 3591 0Q3603 2 3604 15L3601 38Q3597 69 3595.0 112.5Q3593 156 3593 214Q3593 311 3597 330Q3612 411 3639 411Q3658 411 3668 401L3693 367Q3706 349 3713 349Q3721 349 3725 368Q3731 388 3735.5 402.5Q3740 417 3743 427Q3755 466 3755 486ZM4538 132Q4538 212 4489 257Q4456 287 4371 319Q4300 344 4287 352Q4244 374 4244 408Q4244 424 4256.0 435.0Q4268 446 4285 446Q4303 446 4352 421Q4402 396 4430 396Q4496 396 4496 464Q4496 484 4488 495Q4478 510 4459 502Q4445 496 4423 496Q4407 496 4369.0 504.0Q4331 512 4315 512Q4287 512 4263.5 502.0Q4240 492 4223.5 475.0Q4207 458 4198.0 433.5Q4189 409 4189 381Q4189 311 4221.5 270.0Q4254 229 4317 208L4431 169Q4484 143 4484 110Q4484 75 4438 75Q4416 75 4360.0 100.0Q4304 125 4273 125Q4234 125 4211.0 103.0Q4188 81 4188 43Q4188 -3 4209 -3Q4214 -3 4216 -2Q4228 4 4240.0 10.0Q4252 16 4274 16Q4294 16 4343.0 5.0Q4392 -6 4414 -6Q4472 -6 4506 34Q4538 72 4538 132ZM4800 486Q4800 503 4786 508Q4781 509 4774.0 509.5Q4767 510 4758 510H4741Q4741 576 4744 588Q4747 615 4749.0 633.0Q4751 651 4752 659Q4752 673 4743 673Q4737 673 4727 667Q4690 647 4660.0 633.0Q4630 619 4605 611Q4592 607 4592 596Q4592 588 4598 578Q4614 550 4618 510H4610Q4571 510 4571 486Q4571 467 4609 467H4622Q4623 459 4623 440Q4623 422 4623 391Q4623 280 4618.5 190.5Q4614 101 4606 32Q4602 1 4621 0Q4687 -1 4742 0Q4756 1 4752 38Q4744 103 4739.5 147.0Q4735 191 4736 214L4740 467H4757Q4800 467 4800 486ZM5211 265Q5211 371 5169 448Q5118 541 5019 541Q4971 541 4940 522Q4901 499 4901 455Q4901 423 4931 410Q4832 357 4832 234Q4832 131 4874 67Q4923 -8 5020 -8Q5115 -8 5168 85Q5211 161 5211 265ZM5138 238Q5138 188 5114 154Q5087 116 5039 116Q4987 116 4958 166Q4933 207 4933 264Q4933 372 5008 383Q5019 385 5019 393Q5019 410 4987 418Q5001 426 5034 412Q5083 393 5112 341Q5138 294 5138 238ZM5689 262Q5689 539 5516 539Q5448 539 5407 486Q5400 476 5394 476Q5388 476 5389 486Q5389 487 5391.0 494.0Q5393 501 5392 505Q5381 513 5367 514Q5328 518 5274 514Q5257 512 5257 497Q5257 475 5267 456Q5266 417 5264 395L5268 251Q5271 143 5271 107Q5271 77 5270.0 45.0Q5269 13 5267 -22Q5260 -156 5256 -169Q5248 -198 5264 -198Q5269 -198 5274 -195Q5348 -154 5386 -142Q5412 -134 5412 -124Q5412 -122 5406 -105Q5384 -48 5384 33Q5384 48 5389 48H5390Q5392 48 5397 43Q5437 -9 5498 -9Q5588 -9 5643 85Q5689 162 5689 262ZM5571 193Q5571 142 5563 120Q5537 54 5496 54Q5470 54 5468 74Q5467 83 5472.5 91.5Q5478 100 5486 100Q5502 99 5506.0 103.5Q5510 108 5509 124Q5508 145 5491.0 162.0Q5474 179 5453 179Q5408 179 5381 133Q5381 140 5380.5 150.5Q5380 161 5379.0 175.0Q5378 189 5378 199Q5378 210 5378 217Q5378 436 5463 436Q5504 436 5533 382Q5571 309 5571 193ZM6162 262Q6162 539 5989 539Q5921 539 5880 486Q5873 476 5867 476Q5861 476 5862 486Q5862 487 5864.0 494.0Q5866 501 5865 505Q5854 513 5840 514Q5801 518 5747 514Q5730 512 5730 497Q5730 475 5740 456Q5739 417 5737 395L5741 251Q5744 143 5744 107Q5744 77 5743.0 45.0Q5742 13 5740 -22Q5733 -156 5729 -169Q5721 -198 5737 -198Q5742 -198 5747 -195Q5821 -154 5859 -142Q5885 -134 5885 -124Q5885 -122 5879 -105Q5857 -48 5857 33Q5857 48 5862 48H5863Q5865 48 5870 43Q5910 -9 5971 -9Q6061 -9 6116 85Q6162 162 6162 262ZM6044 193Q6044 142 6036 120Q6010 54 5969 54Q5943 54 5941 74Q5940 83 5945.5 91.5Q5951 100 5959 100Q5975 99 5979.0 103.5Q5983 108 5982 124Q5981 145 5964.0 162.0Q5947 179 5926 179Q5881 179 5854 133Q5854 140 5853.5 150.5Q5853 161 5852.0 175.0Q5851 189 5851 199Q5851 210 5851 217Q5851 436 5936 436Q5977 436 6006 382Q6044 309 6044 193ZM6336 621Q6335 647 6316.0 666.0Q6297 685 6271.0 684.0Q6245 683 6226.0 664.0Q6207 645 6208.0 619.0Q6209 593 6228.0 574.0Q6247 555 6273.0 556.0Q6299 557 6318.0 576.0Q6337 595 6336 621ZM6329 462Q6336 510 6313 510H6225Q6204 510 6204 488Q6204 482 6205 478Q6211 446 6211 240Q6211 183 6207.5 131.5Q6204 80 6197 32Q6192 0 6217 0H6260H6285H6303Q6330 0 6327 46Q6322 127 6319.5 185.0Q6317 243 6317 280Q6317 387 6329 462ZM6754 19Q6754 29 6753 31Q6747 61 6745.5 96.0Q6744 131 6743 162Q6742 182 6742.5 207.0Q6743 232 6744 264Q6747 343 6747 365Q6748 442 6727 477Q6700 520 6625 520Q6556 520 6525 484Q6520 479 6517 479Q6512 479 6512 492Q6512 507 6490 508Q6475 509 6400 508Q6379 508 6385 483Q6395 443 6395 235Q6395 190 6391.5 139.5Q6388 89 6381 32Q6377 2 6392 0Q6436 -2 6501 0Q6513 2 6514 15L6511 38Q6507 69 6505.0 112.5Q6503 156 6503 214Q6503 260 6504.0 289.0Q6505 318 6507 330Q6513 368 6534 400Q6559 439 6593 439Q6626 439 6634 386Q6636 371 6636.5 346.5Q6637 322 6635 287L6625 79Q6625 73 6619 49Q6614 24 6614 18Q6614 0 6636 0H6734Q6754 0 6754 19ZM7198 462Q7198 470 7178 476Q7171 478 7164.0 479.0Q7157 480 7150 482Q7127 493 7110.5 500.5Q7094 508 7086 512Q7047 524 7016 524Q6910 522 6849 433Q6796 354 6794 244Q6792 85 6904 12Q6919 1 6919 -5Q6919 -11 6892 -36Q6833 -92 6826 -96Q6808 -110 6808 -121Q6808 -131 6822 -148Q6880 -220 6968 -220Q7068 -220 7130 -136Q7186 -60 7186 42Q7186 64 7183.5 96.5Q7181 129 7176.0 174.0Q7171 219 7168.5 251.5Q7166 284 7166 306Q7166 379 7190 438Q7198 459 7198 462ZM7060 125Q7060 95 7027 95Q6977 95 6935 195Q6899 280 6899 339Q6899 380 6916 411Q6937 448 6976 448Q6998 448 7018 434Q7021 432 7051 404Q7051 384 7048 344Q7047 324 7046.5 309.0Q7046 294 7046 284Q7046 270 7047.5 250.0Q7049 230 7053.0 204.0Q7057 178 7058.5 158.5Q7060 139 7060 125ZM7093 -51Q7093 -87 7067.0 -116.0Q7041 -145 7007 -145Q6983 -145 6953 -114Q6922 -84 6930 -67Q6931 -66 6931.5 -65.0Q6932 -64 6933 -63Q6964 -35 6994.5 -8.5Q7025 18 7056 44Q7070 55 7074 55Q7080 55 7082 49Q7093 19 7093 -51ZM8047 260Q8047 360 8018 430Q7977 526 7891 526Q7836 526 7793 487Q7790 484 7787 484Q7781 484 7780 497Q7777 542 7789 671Q7791 694 7779 695H7777Q7772 695 7754 686Q7726 672 7699.0 660.0Q7672 648 7646 637Q7636 633 7636 627Q7640 619 7642.0 615.0Q7644 611 7644 611Q7666 571 7666 531V91Q7678 34 7729 2Q7775 -24 7837 -24Q7949 -24 8003 66Q8047 140 8047 260ZM7912 233Q7912 132 7903 101Q7886 41 7839 41Q7784 41 7784 124V359Q7802 437 7856 437Q7888 437 7903 392Q7912 365 7912 233ZM8472 419Q8472 467 8444.5 498.0Q8417 529 8372 529Q8341 529 8318 512Q8292 492 8292 463Q8292 414 8319 414Q8321 414 8329.0 416.0Q8337 418 8340 418Q8385 418 8385 349Q8385 307 8361 250Q8347 218 8336.5 194.0Q8326 170 8318 154Q8313 143 8305 143Q8299 143 8293 153Q8220 277 8220 407Q8220 428 8220.5 441.5Q8221 455 8222 461Q8222 460 8227 478Q8233 494 8233 499Q8233 512 8215 512Q8149 513 8094 512Q8077 512 8077 494Q8077 488 8084 470Q8092 451 8092 450Q8105 389 8115.5 341.0Q8126 293 8135 256Q8173 100 8233 15Q8240 5 8234 -6Q8200 -77 8200 -159Q8200 -206 8221 -207Q8236 -208 8294 -207Q8308 -207 8311 -193Q8307 -183 8305 -176Q8294 -143 8288.0 -117.5Q8282 -92 8283 -73Q8284 -30 8326 42L8328 44Q8378 117 8422 224Q8472 347 8472 419Z" fill="#a6adc8" transform="translate(339.68,78) scale(0.02600,-0.02600)"/>
</svg>