<svg xmlns="http://www.w3.org/2000/svg" viewBox="0 0 900 200" width="100%">
  <defs>
    <linearGradient id="g" x1="0%" y1="0%" x2="100%" y2="0%">
      <stop offset="0%" stop-color="#FF6B35"/>
      <stop offset="100%" stop-color="#FF9F1C"/>
    </linearGradient>
  </defs>
  <path d="M 0 0 H 900 V 155 C 700 200 550 195 450 170 C 350 145 150 180 0 165 Z" fill="url(#g)"/>
  <path d="M325.792 58.488Q325.792 56.808 324.72799999999995 55.408Q324.056 54.512 323.60799999999995 54.512Q323.15999999999997 54.512 321.87199999999996 54.736Q320.52799999999996 54.903999999999996 320.13599999999997 54.903999999999996Q319.18399999999997 54.903999999999996 317.55999999999995 54.512Q315.99199999999996 54.12 315.03999999999996 54.12Q313.304 54.12 310.224 54.848Q307.032 55.519999999999996 305.40799999999996 55.519999999999996Q303.84 55.519999999999996 303.33599999999996 55.296L302.55199999999996 55.016Q300.592 54.344 300.032 54.344Q299.472 54.344 299.472 54.96Q299.472 55.464 299.69599999999997 56.416Q300.592 60.672 300.592 65.376Q300.592 71.48 300.256 77.64Q299.91999999999996 83.8 299.19199999999995 90.128Q299.19199999999995 90.408 299.05199999999996 90.912Q298.912 91.416 298.77199999999993 92.00399999999999Q298.63199999999995 92.592 298.52 93.18Q298.40799999999996 93.768 298.40799999999996 94.16Q298.40799999999996 95.0 299.472 95.0H306.976Q307.928 95.0 307.928 94.104Q307.928 93.376 307.592 92.088Q307.368 91.304 307.284 90.828Q307.2 90.352 307.14399999999995 90.072Q306.472 85.144 306.472 79.264Q306.472 76.744 306.668 72.852Q306.864 68.96000000000001 307.256 63.528Q307.592 59.048 310.224 59.048L313.02399999999994 60.504Q315.82399999999996 61.96 317.784 61.96Q319.01599999999996 61.96 319.63199999999995 61.736Q319.688 61.736 319.93999999999994 61.596Q320.19199999999995 61.455999999999996 320.472 61.316Q320.75199999999995 61.176 321.00399999999996 61.036Q321.256 60.896 321.31199999999995 60.896Q321.53599999999994 60.896 321.53599999999994 61.176Q321.53599999999994 61.512 321.2 62.016Q316.104 69.8 316.104 77.47200000000001Q316.104 78.256 316.188 79.51599999999999Q316.272 80.776 316.384 82.4Q316.496 84.024 316.58 85.28399999999999Q316.664 86.544 316.664 87.328Q316.664 88.952 316.496 90.52Q316.21599999999995 91.92 316.07599999999996 92.816Q315.936 93.712 315.936 94.16Q315.936 95.0 317.16799999999995 95.0H322.712Q324.0 95.0 324.0 93.096Q324.0 91.304 323.748 88.72800000000001Q323.496 86.152 323.048 82.624Q322.59999999999997 79.096 322.34799999999996 76.52000000000001Q322.09599999999995 73.944 322.09599999999995 72.152Q322.09599999999995 69.744 323.94399999999996 65.096Q325.792 60.504 325.792 58.488Z" fill="white"/>
  <path d="M349.47999999999996 93.712Q349.08799999999997 90.8 348.91999999999996 87.384Q348.75199999999995 83.968 348.75199999999995 79.936Q348.75199999999995 77.024 348.83599999999996 74.0Q348.91999999999996 70.976 349.14399999999995 67.78399999999999Q349.19999999999993 67.056 348.64 66.776Q348.08 66.55199999999999 347.352 66.776Q345.95199999999994 67.056 344.328 67.056Q342.984 67.056 340.40799999999996 66.72Q337.77599999999995 66.384 336.48799999999994 66.384Q329.43199999999996 66.384 329.43199999999996 71.424Q329.43199999999996 73.27199999999999 330.69199999999995 74.392Q331.95199999999994 75.512 333.85599999999994 75.512Q334.91999999999996 75.512 336.12399999999997 74.72800000000001Q337.328 73.944 337.71999999999997 72.992Q338.28 71.648 337.43999999999994 71.144Q336.65599999999995 70.696 337.43999999999994 69.912Q337.71999999999997 69.632 338.78399999999993 69.632Q341.80799999999994 69.632 342.31199999999995 73.55199999999999V75.792Q341.69599999999997 76.072 340.856 76.268Q340.01599999999996 76.464 338.95199999999994 76.576Q334.13599999999997 76.968 331.22399999999993 79.544Q328.032 82.344 328.032 87.048Q328.032 95.784 335.36799999999994 95.784Q339.23199999999997 95.784 341.80799999999994 93.712Q342.36799999999994 93.208 342.47999999999996 93.992Q342.53599999999994 95.056 344.328 95.056H346.736Q346.90399999999994 95.0 346.90399999999994 95.0Q349.64799999999997 95.0 349.47999999999996 93.712ZM342.53599999999994 80.776Q342.53599999999994 83.856 342.36799999999994 87.44Q342.31199999999995 88.84 340.79999999999995 90.184Q339.34399999999994 91.528 337.94399999999996 91.528Q334.97599999999994 91.528 334.97599999999994 86.6Q334.97599999999994 82.736 336.712 81.336Q337.15999999999997 80.944 338.28 80.468Q339.4 79.992 341.19199999999995 79.432Q341.64 79.32 341.864 79.32Q342.53599999999994 79.32 342.53599999999994 80.776Z" fill="white"/>
  <path d="M364.376 67.78399999999999Q364.376 66.832 363.592 66.55199999999999Q363.31199999999995 66.496 362.91999999999996 66.46799999999999Q362.52799999999996 66.44 362.024 66.44H361.07199999999995Q361.07199999999995 62.744 361.23999999999995 62.072Q361.40799999999996 60.56 361.52 59.552Q361.63199999999995 58.544 361.688 58.096Q361.688 57.312 361.18399999999997 57.312Q360.84799999999996 57.312 360.28799999999995 57.647999999999996Q358.21599999999995 58.768 356.53599999999994 59.552Q354.856 60.336 353.45599999999996 60.784Q352.72799999999995 61.008 352.72799999999995 61.624Q352.72799999999995 62.072 353.06399999999996 62.632Q353.96 64.2 354.18399999999997 66.44H353.736Q351.55199999999996 66.44 351.55199999999996 67.78399999999999Q351.55199999999996 68.848 353.67999999999995 68.848H354.40799999999996Q354.464 69.29599999999999 354.464 70.36Q354.464 71.368 354.464 73.104Q354.464 79.32 354.212 84.332Q353.96 89.344 353.512 93.208Q353.28799999999995 94.944 354.352 95.0Q358.04799999999994 95.056 361.128 95.0Q361.912 94.944 361.688 92.872Q361.23999999999995 89.232 360.98799999999994 86.768Q360.736 84.304 360.792 83.016L361.01599999999996 68.848H361.96799999999996Q364.376 68.848 364.376 67.78399999999999Z" fill="white"/>
  <path d="M388.11999999999995 93.936Q388.11999999999995 93.264 388.03599999999994 92.256Q387.952 91.248 387.84 89.96Q387.72799999999995 88.616 387.67199999999997 87.608Q387.616 86.6 387.616 85.928L387.72799999999995 80.328Q387.784 77.976 387.812 76.576Q387.84 75.176 387.84 74.672Q387.89599999999996 65.544 380.67199999999997 65.544Q377.2 65.544 375.296 67.78399999999999Q375.01599999999996 68.12 374.736 68.12Q374.344 68.12 374.45599999999996 67.50399999999999L374.62399999999997 64.424Q374.67999999999995 63.36 374.70799999999997 62.128Q374.736 60.896 374.736 59.44Q374.736 55.688 374.23199999999997 55.912Q371.59999999999997 57.312 369.808 58.236Q368.01599999999996 59.16 367.06399999999996 59.72Q366.056 60.391999999999996 366.67199999999997 61.568Q367.11999999999995 62.464 367.4 63.611999999999995Q367.67999999999995 64.75999999999999 367.792 66.21600000000001Q367.84799999999996 66.944 367.876 68.652Q367.904 70.36 367.904 73.104Q367.904 77.136 367.53999999999996 82.12Q367.176 87.104 366.448 93.208Q366.224 94.944 367.28799999999995 95.0Q370.984 95.056 374.06399999999996 95.0Q374.84799999999996 94.944 374.62399999999997 92.872Q374.4 91.08 374.288 88.616Q374.176 86.152 374.176 83.016Q374.176 77.80799999999999 374.4 76.52Q375.352 70.52799999999999 378.65599999999995 70.52799999999999Q381.62399999999997 70.52799999999999 381.23199999999997 78.816L380.67199999999997 90.464Q380.67199999999997 90.576 380.616 90.996Q380.55999999999995 91.416 380.448 92.088Q380.33599999999996 92.76 380.28 93.208Q380.224 93.656 380.224 93.88Q380.224 95.0 381.51199999999994 95.0H386.99999999999994Q388.11999999999995 95.0 388.11999999999995 93.936Z" fill="white"/>
  <path d="M411.52799999999996 93.712Q411.13599999999997 90.8 410.96799999999996 87.384Q410.79999999999995 83.968 410.79999999999995 79.936Q410.79999999999995 77.024 410.88399999999996 74.0Q410.96799999999996 70.976 411.19199999999995 67.78399999999999Q411.24799999999993 67.056 410.688 66.776Q410.128 66.55199999999999 409.4 66.776Q407.99999999999994 67.056 406.376 67.056Q405.032 67.056 402.45599999999996 66.72Q399.82399999999996 66.384 398.53599999999994 66.384Q391.47999999999996 66.384 391.47999999999996 71.424Q391.47999999999996 73.27199999999999 392.73999999999995 74.392Q393.99999999999994 75.512 395.90399999999994 75.512Q396.96799999999996 75.512 398.17199999999997 74.72800000000001Q399.376 73.944 399.768 72.992Q400.328 71.648 399.48799999999994 71.144Q398.70399999999995 70.696 399.48799999999994 69.912Q399.768 69.632 400.83199999999994 69.632Q403.85599999999994 69.632 404.35999999999996 73.55199999999999V75.792Q403.74399999999997 76.072 402.904 76.268Q402.06399999999996 76.464 400.99999999999994 76.576Q396.18399999999997 76.968 393.27199999999993 79.544Q390.08 82.344 390.08 87.048Q390.08 95.784 397.41599999999994 95.784Q401.28 95.784 403.85599999999994 93.712Q404.41599999999994 93.208 404.52799999999996 93.992Q404.58399999999995 95.056 406.376 95.056H408.784Q408.95199999999994 95.0 408.95199999999994 95.0Q411.69599999999997 95.0 411.52799999999996 93.712ZM404.58399999999995 80.776Q404.58399999999995 83.856 404.41599999999994 87.44Q404.35999999999996 88.84 402.84799999999996 90.184Q401.39199999999994 91.528 399.99199999999996 91.528Q397.02399999999994 91.528 397.02399999999994 86.6Q397.02399999999994 82.736 398.76 81.336Q399.20799999999997 80.944 400.328 80.468Q401.448 79.992 403.23999999999995 79.432Q403.688 79.32 403.912 79.32Q404.58399999999995 79.32 404.58399999999995 80.776Z" fill="white"/>
  <path d="M435.048 93.936Q435.048 93.376 434.99199999999996 93.264Q434.65599999999995 91.584 434.572 89.624Q434.488 87.664 434.43199999999996 85.928Q434.376 84.80799999999999 434.404 83.40799999999999Q434.43199999999996 82.008 434.488 80.216Q434.65599999999995 75.792 434.65599999999995 74.56Q434.712 70.248 433.53599999999994 68.288Q432.024 65.88 427.82399999999996 65.88Q423.96 65.88 422.224 67.896Q421.94399999999996 68.176 421.77599999999995 68.176Q421.496 68.176 421.496 67.44800000000001Q421.496 66.608 420.26399999999995 66.55199999999999Q419.424 66.496 415.224 66.55199999999999Q414.048 66.55199999999999 414.38399999999996 67.952Q414.94399999999996 70.19200000000001 414.94399999999996 81.84Q414.94399999999996 84.36 414.74799999999993 87.188Q414.55199999999996 90.016 414.15999999999997 93.208Q413.936 94.888 414.77599999999995 95.0Q417.23999999999995 95.112 420.88 95.0Q421.55199999999996 94.888 421.60799999999995 94.16L421.44 92.872Q421.21599999999995 91.136 421.1039999999999 88.69999999999999Q420.99199999999996 86.264 420.99199999999996 83.016Q420.99199999999996 80.44 421.048 78.816Q421.104 77.19200000000001 421.21599999999995 76.52Q421.55199999999996 74.392 422.72799999999995 72.6Q424.128 70.416 426.032 70.416Q427.88 70.416 428.328 73.384Q428.44 74.224 428.46799999999996 75.596Q428.496 76.968 428.38399999999996 78.928L427.82399999999996 90.576Q427.82399999999996 90.912 427.488 92.256Q427.20799999999997 93.656 427.20799999999997 93.992Q427.20799999999997 95.0 428.44 95.0H433.928Q435.048 95.0 435.048 93.936Z" fill="white"/>
  <path d="M486.28799999999995 58.711999999999996Q486.28799999999995 54.064 478.72799999999995 54.064Q477.77599999999995 54.064 476.404 54.176Q475.032 54.288 473.24 54.512Q471.448 54.736 470.104 54.848Q468.76 54.96 467.808 54.96Q462.88 54.96 461.47999999999996 54.288Q461.14399999999995 54.12 460.91999999999996 54.12Q460.02399999999994 54.12 460.304 55.408Q461.53599999999994 60.839999999999996 461.53599999999994 66.944V75.12Q461.53599999999994 79.936 460.35999999999996 92.872Q460.13599999999997 93.768 459.912 94.104Q459.856 95.0 461.31199999999995 95.0H464.784H467.58399999999995Q468.53599999999994 95.056 469.20799999999997 95.056Q469.936 95.056 470.38399999999996 95.056Q471.50399999999996 95.056 471.50399999999996 94.552Q471.50399999999996 94.16 470.94399999999996 93.768Q468.2 91.864 468.032 86.768Q467.91999999999996 82.848 469.09599999999995 80.216Q470.71999999999997 76.576 474.08 76.576Q476.32 76.576 479.96 78.75999999999999Q480.52 79.096 480.856 79.096Q481.58399999999995 79.096 480.96799999999996 77.80799999999999Q480.52 76.072 480.15599999999995 74.78399999999999Q479.792 73.496 479.51199999999994 72.6Q478.72799999999995 70.304 476.09599999999995 70.304Q472.4 70.304 468.76 74.78399999999999Q468.256 75.4 468.08799999999997 74.728Q468.032 74.44800000000001 468.00399999999996 74.308Q467.97599999999994 74.168 467.97599999999994 74.112Q468.31199999999995 71.872 468.47999999999996 66.44Q468.64799999999997 62.016 469.32 60.504Q470.60799999999995 57.704 474.64 57.704Q478.28 57.704 478.224 59.552Q478.224 59.888 477.972 60.391999999999996Q477.71999999999997 60.896 477.496 61.232Q477.272 61.568 477.21599999999995 61.624Q477.21599999999995 61.96 477.71999999999997 62.296Q478.95199999999994 63.135999999999996 481.35999999999996 63.135999999999996Q483.544 63.135999999999996 484.91599999999994 61.932Q486.28799999999995 60.728 486.28799999999995 58.711999999999996Z" fill="white"/>
  <path d="M513.112 89.512Q513.112 88.504 512.692 87.636Q512.272 86.768 511.572 86.124Q510.872 85.48 509.948 85.116Q509.024 84.752 508.016 84.752Q506.336 84.752 505.15999999999997 85.928Q505.216 86.432 505.244 86.684Q505.272 86.936 505.272 86.936Q505.272 88.896 503.956 90.24000000000001Q502.64 91.584 500.68 91.584Q496.424 91.584 494.968 87.944Q494.072 85.76 494.072 80.55199999999999Q494.072 73.55199999999999 497.768 73.55199999999999Q499.11199999999997 73.55199999999999 500.568 74.952Q500.96 75.344 501.464 75.344Q502.024 75.344 502.864 74.224Q503.312 73.664 503.592 73.244Q503.872 72.824 504.096 72.544Q505.15999999999997 70.80799999999999 504.656 70.136Q502.976 68.008 500.288 68.008Q498.15999999999997 68.008 494.968 70.36Q494.856 70.472 494.688 70.472Q494.18399999999997 70.472 494.18399999999997 68.624Q494.18399999999997 63.416 494.856 60.896Q495.808 57.424 500.12 57.424Q504.936 57.424 504.936 60.336Q504.936 60.336 504.908 60.672Q504.88 61.008 504.824 61.68Q506.11199999999997 62.8 507.344 62.8Q509.36 62.8 510.76 61.483999999999995Q512.16 60.168 512.16 58.208Q512.16 55.8 509.472 54.512Q507.512 53.616 504.656 53.616Q503.592 53.616 502.024 53.784Q500.456 53.952 498.328 54.232Q496.256 54.512 494.688 54.652Q493.12 54.792 492.056 54.792Q490.20799999999997 54.792 488.192 54.288Q487.632 54.176 487.576 54.176Q486.288 54.176 486.62399999999997 55.352Q487.52 58.6 487.464 73.55199999999999Q487.408 80.944 487.156 85.732Q486.904 90.52 486.344 92.76L486.176 93.488Q486.008 94.272 486.008 94.384Q486.064 95.504 487.688 95.056Q489.928 94.608 492.896 94.608Q493.848 94.608 495.304 94.72Q496.76 94.832 498.72 95.056Q500.68 95.28 502.13599999999997 95.392Q503.592 95.504 504.544 95.504Q508.016 95.504 510.256 94.272Q513.112 92.704 513.112 89.512Z" fill="white"/>
  <path d="M542.68 61.68Q542.68 57.816 539.712 55.856Q537.192 54.176 533.1039999999999 54.176Q532.208 54.176 530.864 54.316Q529.52 54.455999999999996 527.728 54.736Q524.088 55.24 522.352 55.24Q519.4399999999999 55.24 517.8159999999999 54.68Q516.8639999999999 54.4 516.752 54.4Q515.9119999999999 54.4 516.0799999999999 55.632Q516.472 58.824 516.6679999999999 61.176Q516.8639999999999 63.528 516.8639999999999 65.152L516.808 74.672Q516.6959999999999 82.064 515.968 87.832Q515.9119999999999 88.112 515.7719999999999 88.868Q515.632 89.624 515.352 90.912Q515.1279999999999 91.976 515.016 92.70400000000001Q514.904 93.432 514.904 93.88Q514.904 95.0 515.8 95.0H523.472Q524.424 95.0 524.424 94.272Q524.424 92.648 523.92 89.512Q523.64 87.944 523.528 86.79599999999999Q523.4159999999999 85.648 523.3599999999999 84.92Q523.304 82.96 523.304 81.616Q523.304 80.216 523.4159999999999 79.432Q523.6959999999999 77.304 524.3119999999999 77.08L526.2159999999999 76.184Q527.616 75.512 528.0079999999999 75.512Q528.736 75.512 529.352 76.29599999999999Q533.4399999999999 81.28 533.4399999999999 89.176Q533.4399999999999 89.568 533.356 90.184Q533.2719999999999 90.8 533.16 91.584Q533.048 92.368 532.992 92.95599999999999Q532.9359999999999 93.544 532.9359999999999 93.992Q532.9359999999999 95.0 534.28 95.0H539.656Q541.0559999999999 95.0 541.0559999999999 93.656Q541.0559999999999 90.464 540.972 88.168Q540.8879999999999 85.872 540.664 84.416Q539.656 77.024 536.016 73.21600000000001Q535.512 72.712 535.512 72.32Q535.512 71.984 536.184 71.536Q542.68 67.224 542.68 61.68ZM534.0 62.576Q533.8879999999999 66.048 530.8639999999999 68.96000000000001Q528.232 71.48 524.6479999999999 72.824Q523.8639999999999 73.104 523.6959999999999 72.376Q523.6959999999999 72.376 523.584 71.032Q523.5279999999999 68.68 523.752 66.776Q523.976 65.096 524.06 64.032Q524.144 62.967999999999996 524.1999999999999 62.519999999999996Q524.592 57.816 529.4079999999999 58.096Q531.4799999999999 58.208 532.7679999999999 59.412Q534.0559999999999 60.616 534.0 62.576Z" fill="white"/>
  <path d="M572.752 61.68Q572.752 57.816 569.784 55.856Q567.264 54.176 563.1759999999999 54.176Q562.28 54.176 560.9359999999999 54.316Q559.592 54.455999999999996 557.8 54.736Q554.16 55.24 552.424 55.24Q549.512 55.24 547.8879999999999 54.68Q546.9359999999999 54.4 546.824 54.4Q545.9839999999999 54.4 546.1519999999999 55.632Q546.544 58.824 546.74 61.176Q546.9359999999999 63.528 546.9359999999999 65.152L546.88 74.672Q546.7679999999999 82.064 546.04 87.832Q545.9839999999999 88.112 545.8439999999999 88.868Q545.704 89.624 545.424 90.912Q545.1999999999999 91.976 545.088 92.70400000000001Q544.976 93.432 544.976 93.88Q544.976 95.0 545.872 95.0H553.544Q554.496 95.0 554.496 94.272Q554.496 92.648 553.992 89.512Q553.712 87.944 553.5999999999999 86.79599999999999Q553.4879999999999 85.648 553.4319999999999 84.92Q553.376 82.96 553.376 81.616Q553.376 80.216 553.4879999999999 79.432Q553.7679999999999 77.304 554.3839999999999 77.08L556.288 76.184Q557.688 75.512 558.0799999999999 75.512Q558.808 75.512 559.424 76.29599999999999Q563.512 81.28 563.512 89.176Q563.512 89.568 563.4279999999999 90.184Q563.3439999999999 90.8 563.232 91.584Q563.12 92.368 563.064 92.95599999999999Q563.0079999999999 93.544 563.0079999999999 93.992Q563.0079999999999 95.0 564.352 95.0H569.728Q571.1279999999999 95.0 571.1279999999999 93.656Q571.1279999999999 90.464 571.0439999999999 88.168Q570.9599999999999 85.872 570.736 84.416Q569.728 77.024 566.088 73.21600000000001Q565.584 72.712 565.584 72.32Q565.584 71.984 566.256 71.536Q572.752 67.224 572.752 61.68ZM564.072 62.576Q563.9599999999999 66.048 560.9359999999999 68.96000000000001Q558.304 71.48 554.7199999999999 72.824Q553.9359999999999 73.104 553.7679999999999 72.376Q553.7679999999999 72.376 553.656 71.032Q553.5999999999999 68.68 553.824 66.776Q554.048 65.096 554.1320000000001 64.032Q554.216 62.967999999999996 554.2719999999999 62.519999999999996Q554.664 57.816 559.4799999999999 58.096Q561.5519999999999 58.208 562.8399999999999 59.412Q564.1279999999999 60.616 564.072 62.576Z" fill="white"/>
  <path d="M602.1519999999999 89.512Q602.1519999999999 88.504 601.732 87.636Q601.312 86.768 600.612 86.124Q599.9119999999999 85.48 598.9879999999999 85.116Q598.064 84.752 597.0559999999999 84.752Q595.376 84.752 594.1999999999999 85.928Q594.256 86.432 594.284 86.684Q594.312 86.936 594.312 86.936Q594.312 88.896 592.996 90.24000000000001Q591.68 91.584 589.7199999999999 91.584Q585.4639999999999 91.584 584.0079999999999 87.944Q583.112 85.76 583.112 80.55199999999999Q583.112 73.55199999999999 586.808 73.55199999999999Q588.1519999999999 73.55199999999999 589.608 74.952Q590.0 75.344 590.5039999999999 75.344Q591.064 75.344 591.904 74.224Q592.352 73.664 592.632 73.244Q592.9119999999999 72.824 593.136 72.544Q594.1999999999999 70.80799999999999 593.6959999999999 70.136Q592.016 68.008 589.328 68.008Q587.1999999999999 68.008 584.0079999999999 70.36Q583.896 70.472 583.728 70.472Q583.2239999999999 70.472 583.2239999999999 68.624Q583.2239999999999 63.416 583.896 60.896Q584.848 57.424 589.16 57.424Q593.976 57.424 593.976 60.336Q593.976 60.336 593.948 60.672Q593.92 61.008 593.8639999999999 61.68Q595.1519999999999 62.8 596.384 62.8Q598.4 62.8 599.8 61.483999999999995Q601.1999999999999 60.168 601.1999999999999 58.208Q601.1999999999999 55.8 598.512 54.512Q596.5519999999999 53.616 593.6959999999999 53.616Q592.632 53.616 591.064 53.784Q589.496 53.952 587.3679999999999 54.232Q585.2959999999999 54.512 583.728 54.652Q582.16 54.792 581.096 54.792Q579.2479999999999 54.792 577.232 54.288Q576.6719999999999 54.176 576.616 54.176Q575.328 54.176 575.664 55.352Q576.56 58.6 576.5039999999999 73.55199999999999Q576.448 80.944 576.1959999999999 85.732Q575.944 90.52 575.3839999999999 92.76L575.216 93.488Q575.048 94.272 575.048 94.384Q575.1039999999999 95.504 576.728 95.056Q578.968 94.608 581.9359999999999 94.608Q582.8879999999999 94.608 584.3439999999999 94.72Q585.8 94.832 587.76 95.056Q589.7199999999999 95.28 591.1759999999999 95.392Q592.632 95.504 593.584 95.504Q597.0559999999999 95.504 599.2959999999999 94.272Q602.1519999999999 92.704 602.1519999999999 89.512Z" fill="white"/>
  <path d="M317.032 119.93Q317.032 119.468 316.34999999999997 119.446Q315.316 119.424 314.36999999999995 119.446Q313.71 119.49 313.71 119.93Q313.73199999999997 119.974 313.842 120.59Q313.996 121.47 314.073 122.152Q314.15 122.834 314.15 123.34V126.134Q314.15 128.114 314.00699999999995 129.918Q313.864 131.722 313.578 133.438Q313.44599999999997 134.208 313.44599999999997 134.626Q313.44599999999997 135.0 313.88599999999997 135.0H316.52599999999995Q317.032 135.0 316.96599999999995 134.538Q316.768 132.998 316.65799999999996 131.348Q316.54799999999994 129.698 316.52599999999995 127.894Q316.50399999999996 126.178 316.60299999999995 124.374Q316.702 122.57 316.878 120.634Q316.878 120.568 316.955 120.293Q317.032 120.018 317.032 119.93Z" fill="white"/>
  <path d="M326.24999999999994 134.582Q326.24999999999994 134.362 326.22799999999995 134.318Q326.09599999999995 133.658 326.063 132.88799999999998Q326.03 132.118 326.008 131.436Q325.986 130.996 325.99699999999996 130.446Q326.008 129.896 326.03 129.192Q326.09599999999995 127.45400000000001 326.09599999999995 126.97Q326.11799999999994 125.276 325.65599999999995 124.506Q325.06199999999995 123.56 323.412 123.56Q321.89399999999995 123.56 321.212 124.352Q321.102 124.462 321.03599999999994 124.462Q320.926 124.462 320.926 124.176Q320.926 123.846 320.44199999999995 123.824Q320.11199999999997 123.802 318.462 123.824Q317.99999999999994 123.824 318.13199999999995 124.374Q318.352 125.254 318.352 129.83Q318.352 130.82 318.275 131.93099999999998Q318.198 133.042 318.044 134.296Q317.95599999999996 134.956 318.28599999999994 135.0Q319.25399999999996 135.044 320.68399999999997 135.0Q320.948 134.956 320.96999999999997 134.67L320.90399999999994 134.164Q320.816 133.482 320.77199999999993 132.525Q320.72799999999995 131.568 320.72799999999995 130.292Q320.72799999999995 129.28 320.74999999999994 128.642Q320.77199999999993 128.004 320.816 127.74Q320.948 126.904 321.40999999999997 126.2Q321.96 125.342 322.70799999999997 125.342Q323.43399999999997 125.342 323.60999999999996 126.508Q323.65399999999994 126.838 323.66499999999996 127.377Q323.676 127.916 323.63199999999995 128.686L323.412 133.262Q323.412 133.394 323.28 133.922Q323.16999999999996 134.472 323.16999999999996 134.604Q323.16999999999996 135.0 323.65399999999994 135.0H325.80999999999995Q326.24999999999994 135.0 326.24999999999994 134.582Z" fill="white"/>
  <path d="M332.40999999999997 120.326Q332.40999999999997 119.886 331.99199999999996 119.622Q331.83799999999997 119.842 331.332 119.842Q331.156 119.842 330.925 119.809Q330.694 119.776 330.43 119.732Q329.55 119.556 329.33 119.556Q328.45 119.556 327.9 120.106Q327.34999999999997 120.656 327.34999999999997 121.536Q327.34999999999997 121.778 327.658 122.944Q327.856 123.67 327.944 123.67Q327.966 123.67 327.966 123.516Q327.966 123.648 327.526 123.824Q327.108 123.978 327.086 124.264Q327.042 124.726 327.78999999999996 124.726Q328.296 124.726 328.296 125.166V133.328Q328.296 133.416 328.263 133.58100000000002Q328.22999999999996 133.746 328.186 134.01Q328.07599999999996 134.56 328.07599999999996 134.692Q328.07599999999996 134.956 328.45 135.0Q329.506 135.044 330.606 135.0Q331.002 134.978 331.002 134.648Q331.002 134.538 330.892 133.988Q330.848 133.724 330.826 133.559Q330.804 133.394 330.804 133.328V125.122Q330.804 124.902 331.508 124.726Q332.212 124.55 332.212 124.264Q332.212 123.89 331.882 123.824H331.2Q330.76 123.824 330.76 123.56Q330.76 123.12 329.88 122.636Q329.44 122.372 329.22 122.24000000000001Q329.0 122.108 329.0 122.108Q329.0 121.888 329.352 121.888Q329.484 121.888 329.693 121.932Q329.902 121.976 330.111 122.02Q330.32 122.064 330.529 122.108Q330.738 122.152 330.87 122.152Q332.40999999999997 122.152 332.40999999999997 120.326Z" fill="white"/>
  <path d="M339.714 124.30799999999999Q339.714 123.56 338.57 123.56Q337.272 123.56 336.37 124.528Q336.26 124.638 336.194 124.638Q336.084 124.638 336.084 124.374Q336.084 123.846 335.6 123.824Q335.27 123.802 333.62 123.824Q333.136 123.824 333.29 124.374Q333.774 125.892 333.774 129.83Q333.774 130.82 333.697 131.93099999999998Q333.62 133.042 333.466 134.296Q333.378 134.956 333.708 135.0Q334.676 135.044 336.106 135.0Q336.37 134.956 336.392 134.67L336.326 134.164Q336.238 133.482 336.19399999999996 132.525Q336.15 131.568 336.15 130.292Q336.15 128.158 336.238 127.74Q336.568 125.958 337.162 125.958Q337.58 125.958 337.8 126.178L338.35 126.926Q338.636 127.322 338.79 127.322Q338.966 127.322 339.054 126.904Q339.186 126.464 339.28499999999997 126.145Q339.384 125.826 339.45 125.606Q339.714 124.748 339.714 124.30799999999999Z" fill="white"/>
  <path d="M348.844 134.494Q348.69 133.35 348.624 132.00799999999998Q348.558 130.666 348.558 129.082Q348.558 127.938 348.591 126.75Q348.624 125.562 348.712 124.30799999999999Q348.734 124.022 348.514 123.912Q348.294 123.824 348.008 123.912Q347.458 124.022 346.82 124.022Q346.292 124.022 345.28 123.89Q344.246 123.758 343.74 123.758Q340.968 123.758 340.968 125.738Q340.968 126.464 341.463 126.904Q341.958 127.344 342.706 127.344Q343.124 127.344 343.597 127.036Q344.07 126.728 344.224 126.354Q344.444 125.826 344.114 125.628Q343.806 125.452 344.114 125.144Q344.224 125.034 344.642 125.034Q345.83 125.034 346.028 126.574V127.45400000000001Q345.786 127.564 345.456 127.64099999999999Q345.126 127.718 344.708 127.762Q342.816 127.916 341.672 128.928Q340.418 130.028 340.418 131.876Q340.418 135.308 343.3 135.308Q344.818 135.308 345.83 134.494Q346.05 134.296 346.094 134.604Q346.116 135.022 346.82 135.022H347.766Q347.832 135.0 347.832 135.0Q348.91 135.0 348.844 134.494ZM346.116 129.412Q346.116 130.622 346.05 132.03Q346.028 132.58 345.434 133.108Q344.862 133.636 344.312 133.636Q343.146 133.636 343.146 131.7Q343.146 130.182 343.828 129.632Q344.004 129.478 344.444 129.291Q344.884 129.104 345.588 128.88400000000001Q345.764 128.84 345.852 128.84Q346.116 128.84 346.116 129.412Z" fill="white"/>
  <path d="M357.49 132.096Q357.49 130.336 356.41200000000003 129.346Q355.68600000000004 128.686 353.81600000000003 127.982Q352.254 127.432 351.968 127.256Q351.02200000000005 126.772 351.02200000000005 126.024Q351.02200000000005 125.672 351.28600000000006 125.43Q351.55 125.188 351.92400000000004 125.188Q352.32000000000005 125.188 353.398 125.738Q354.49800000000005 126.288 355.11400000000003 126.288Q356.56600000000003 126.288 356.56600000000003 124.792Q356.56600000000003 124.352 356.39000000000004 124.11Q356.17 123.78 355.752 123.956Q355.444 124.088 354.96000000000004 124.088Q354.608 124.088 353.77200000000005 123.912Q352.93600000000004 123.736 352.584 123.736Q351.968 123.736 351.451 123.956Q350.934 124.176 350.571 124.55000000000001Q350.208 124.924 350.01 125.463Q349.812 126.002 349.812 126.618Q349.812 128.158 350.52700000000004 129.06Q351.242 129.962 352.62800000000004 130.424L355.136 131.282Q356.302 131.854 356.302 132.58Q356.302 133.35 355.29 133.35Q354.80600000000004 133.35 353.57400000000007 132.8Q352.34200000000004 132.25 351.66 132.25Q350.802 132.25 350.29600000000005 132.73399999999998Q349.79 133.218 349.79 134.054Q349.79 135.066 350.252 135.066Q350.362 135.066 350.406 135.044Q350.67 134.912 350.934 134.78Q351.19800000000004 134.648 351.682 134.648Q352.122 134.648 353.20000000000005 134.89Q354.278 135.132 354.762 135.132Q356.038 135.132 356.786 134.252Q357.49 133.416 357.49 132.096Z" fill="white"/>
  <path d="M363.254 124.30799999999999Q363.254 123.934 362.946 123.824Q362.836 123.802 362.682 123.791Q362.528 123.78 362.33000000000004 123.78H361.956Q361.956 122.328 362.022 122.064Q362.088 121.47 362.132 121.074Q362.176 120.678 362.19800000000004 120.502Q362.19800000000004 120.194 362.0 120.194Q361.868 120.194 361.648 120.326Q360.834 120.766 360.174 121.07400000000001Q359.514 121.382 358.964 121.558Q358.678 121.646 358.678 121.888Q358.678 122.064 358.81 122.284Q359.16200000000003 122.9 359.25 123.78H359.074Q358.216 123.78 358.216 124.30799999999999Q358.216 124.726 359.052 124.726H359.338Q359.36 124.902 359.36 125.32Q359.36 125.71600000000001 359.36 126.398Q359.36 128.84 359.261 130.809Q359.16200000000003 132.778 358.986 134.296Q358.898 134.978 359.31600000000003 135.0Q360.76800000000003 135.022 361.978 135.0Q362.286 134.978 362.19800000000004 134.164Q362.022 132.734 361.923 131.76600000000002Q361.824 130.798 361.846 130.292L361.934 124.726H362.308Q363.254 124.726 363.254 124.30799999999999Z" fill="white"/>
  <path d="M370.514 124.30799999999999Q370.514 123.56 369.37 123.56Q368.072 123.56 367.17 124.528Q367.06 124.638 366.994 124.638Q366.884 124.638 366.884 124.374Q366.884 123.846 366.40000000000003 123.824Q366.07 123.802 364.42 123.824Q363.93600000000004 123.824 364.09000000000003 124.374Q364.574 125.892 364.574 129.83Q364.574 130.82 364.497 131.93099999999998Q364.42 133.042 364.266 134.296Q364.178 134.956 364.50800000000004 135.0Q365.476 135.044 366.906 135.0Q367.17 134.956 367.192 134.67L367.12600000000003 134.164Q367.038 133.482 366.994 132.525Q366.95 131.568 366.95 130.292Q366.95 128.158 367.038 127.74Q367.368 125.958 367.962 125.958Q368.38 125.958 368.6 126.178L369.15000000000003 126.926Q369.43600000000004 127.322 369.59000000000003 127.322Q369.766 127.322 369.854 126.904Q369.986 126.464 370.08500000000004 126.145Q370.184 125.826 370.25 125.606Q370.514 124.748 370.514 124.30799999999999Z" fill="white"/>
  <path d="M379.468 134.45Q379.116 133.042 379.116 128.994Q379.116 128.004 379.193 126.893Q379.27 125.782 379.42400000000004 124.528Q379.512 123.846 379.094 123.824Q377.774 123.758 376.696 123.824Q376.38800000000003 123.846 376.476 124.66Q376.564 125.364 376.608 126.332Q376.652 127.3 376.652 128.532Q376.652 129.5 376.63 130.138Q376.608 130.776 376.564 131.084Q376.476 131.898 376.10200000000003 132.558Q375.64 133.438 374.98 133.438Q374.254 133.438 374.056 132.272Q374.012 132.03 373.99 131.49099999999999Q373.968 130.952 373.968 130.138Q373.968 127.586 374.1 125.562Q374.1 125.518 374.13300000000004 125.35300000000001Q374.166 125.188 374.21000000000004 124.924Q374.342 124.396 374.342 124.22Q374.342 123.824 373.858 123.824Q372.01 123.78 371.702 123.824Q371.262 123.868 371.262 124.242Q371.262 124.528 371.284 124.924Q371.306 125.32 371.35 125.848Q371.394 126.354 371.427 126.75Q371.46000000000004 127.146 371.46000000000004 127.388Q371.46000000000004 127.63 371.46000000000004 128.114Q371.46000000000004 128.598 371.438 129.324Q371.416 129.984 371.416 130.556Q371.416 131.106 371.394 131.546Q371.372 132.03 371.372 132.096Q371.372 132.162 371.372 131.81Q371.372 135.22 374.1 135.22Q375.618 135.22 376.3 134.472Q376.41 134.362 376.476 134.362Q376.54200000000003 134.362 376.586 134.692Q376.652 135.0 377.07 135.0H379.13800000000003Q379.6 135.0 379.468 134.45Z" fill="white"/>
  <path d="M388.004 132.184Q388.004 131.92 387.82800000000003 131.92Q387.608 131.92 387.34400000000005 132.294Q386.77200000000005 133.13 385.62800000000004 133.13Q384.02200000000005 133.13 383.274 131.26Q382.72400000000005 129.94 382.72400000000005 128.004Q382.72400000000005 126.75 383.18600000000004 125.782Q383.75800000000004 124.55 384.88000000000005 124.55Q385.51800000000003 124.55 385.51800000000003 124.924Q385.51800000000003 124.77 384.99 125.518Q384.48400000000004 126.288 384.48400000000004 126.706Q384.48400000000004 127.3 384.836 127.74L385.672 128.576Q385.826 128.73 385.98 128.73Q386.20000000000005 128.73 386.17800000000005 128.334Q386.112 127.762 386.53000000000003 127.476Q387.65200000000004 126.662 387.65200000000004 125.672Q387.65200000000004 124.682 386.79400000000004 124.044Q386.024 123.47200000000001 384.968 123.47200000000001Q382.658 123.47200000000001 381.42600000000004 125.76Q380.41400000000004 127.586 380.41400000000004 130.116Q380.41400000000004 132.404 381.29400000000004 133.812Q382.35 135.506 384.50600000000003 135.506Q385.87 135.506 386.75 134.692Q386.97 134.472 387.201 134.164Q387.432 133.856 387.60800000000006 133.504Q387.78400000000005 133.152 387.894 132.81099999999998Q388.004 132.47 388.004 132.184Z" fill="white"/>
  <path d="M393.74600000000004 124.30799999999999Q393.74600000000004 123.934 393.43800000000005 123.824Q393.32800000000003 123.802 393.17400000000004 123.791Q393.02000000000004 123.78 392.82200000000006 123.78H392.44800000000004Q392.44800000000004 122.328 392.514 122.064Q392.58000000000004 121.47 392.624 121.074Q392.668 120.678 392.69000000000005 120.502Q392.69000000000005 120.194 392.492 120.194Q392.36 120.194 392.14000000000004 120.326Q391.326 120.766 390.66600000000005 121.07400000000001Q390.00600000000003 121.382 389.456 121.558Q389.17 121.646 389.17 121.888Q389.17 122.064 389.302 122.284Q389.65400000000005 122.9 389.742 123.78H389.56600000000003Q388.708 123.78 388.708 124.30799999999999Q388.708 124.726 389.54400000000004 124.726H389.83000000000004Q389.85200000000003 124.902 389.85200000000003 125.32Q389.85200000000003 125.71600000000001 389.85200000000003 126.398Q389.85200000000003 128.84 389.75300000000004 130.809Q389.65400000000005 132.778 389.478 134.296Q389.39000000000004 134.978 389.80800000000005 135.0Q391.26000000000005 135.022 392.47 135.0Q392.778 134.978 392.69000000000005 134.164Q392.514 132.734 392.415 131.76600000000002Q392.31600000000003 130.798 392.338 130.292L392.42600000000004 124.726H392.8Q393.74600000000004 124.726 393.74600000000004 124.30799999999999Z" fill="white"/>
  <path d="M402.72200000000004 134.45Q402.37 133.042 402.37 128.994Q402.37 128.004 402.447 126.893Q402.524 125.782 402.67800000000005 124.528Q402.766 123.846 402.348 123.824Q401.028 123.758 399.95000000000005 123.824Q399.64200000000005 123.846 399.73 124.66Q399.81800000000004 125.364 399.862 126.332Q399.906 127.3 399.906 128.532Q399.906 129.5 399.884 130.138Q399.862 130.776 399.81800000000004 131.084Q399.73 131.898 399.35600000000005 132.558Q398.894 133.438 398.23400000000004 133.438Q397.50800000000004 133.438 397.31 132.272Q397.266 132.03 397.244 131.49099999999999Q397.22200000000004 130.952 397.22200000000004 130.138Q397.22200000000004 127.586 397.35400000000004 125.562Q397.35400000000004 125.518 397.38700000000006 125.35300000000001Q397.42 125.188 397.46400000000006 124.924Q397.596 124.396 397.596 124.22Q397.596 123.824 397.112 123.824Q395.264 123.78 394.956 123.824Q394.516 123.868 394.516 124.242Q394.516 124.528 394.538 124.924Q394.56 125.32 394.60400000000004 125.848Q394.648 126.354 394.68100000000004 126.75Q394.71400000000006 127.146 394.71400000000006 127.388Q394.71400000000006 127.63 394.71400000000006 128.114Q394.71400000000006 128.598 394.692 129.324Q394.67 129.984 394.67 130.556Q394.67 131.106 394.648 131.546Q394.62600000000003 132.03 394.62600000000003 132.096Q394.62600000000003 132.162 394.62600000000003 131.81Q394.62600000000003 135.22 397.35400000000004 135.22Q398.872 135.22 399.55400000000003 134.472Q399.66400000000004 134.362 399.73 134.362Q399.79600000000005 134.362 399.84000000000003 134.692Q399.906 135.0 400.324 135.0H402.39200000000005Q402.85400000000004 135.0 402.72200000000004 134.45Z" fill="white"/>
  <path d="M410.22400000000005 124.30799999999999Q410.22400000000005 123.56 409.08000000000004 123.56Q407.78200000000004 123.56 406.88000000000005 124.528Q406.77000000000004 124.638 406.70400000000006 124.638Q406.59400000000005 124.638 406.59400000000005 124.374Q406.59400000000005 123.846 406.11000000000007 123.824Q405.78000000000003 123.802 404.13000000000005 123.824Q403.6460000000001 123.824 403.80000000000007 124.374Q404.28400000000005 125.892 404.28400000000005 129.83Q404.28400000000005 130.82 404.20700000000005 131.93099999999998Q404.13000000000005 133.042 403.97600000000006 134.296Q403.88800000000003 134.956 404.2180000000001 135.0Q405.18600000000004 135.044 406.61600000000004 135.0Q406.88000000000005 134.956 406.90200000000004 134.67L406.83600000000007 134.164Q406.74800000000005 133.482 406.70400000000006 132.525Q406.66 131.568 406.66 130.292Q406.66 128.158 406.74800000000005 127.74Q407.07800000000003 125.958 407.672 125.958Q408.09000000000003 125.958 408.31000000000006 126.178L408.86000000000007 126.926Q409.1460000000001 127.322 409.30000000000007 127.322Q409.47600000000006 127.322 409.564 126.904Q409.696 126.464 409.7950000000001 126.145Q409.89400000000006 125.826 409.96000000000004 125.606Q410.22400000000005 124.748 410.22400000000005 124.30799999999999Z" fill="white"/>
  <path d="M418.73800000000006 132.448Q418.826 131.964 418.45200000000006 131.964Q418.254 131.964 418.03400000000005 132.294Q417.3960000000001 133.218 416.18600000000004 133.218Q414.91 133.218 414.09600000000006 131.898Q413.898 131.568 414.184 131.304Q414.86600000000004 130.732 415.52600000000007 130.149Q416.18600000000004 129.566 416.86800000000005 128.994Q418.65000000000003 127.322 418.65000000000003 126.178Q418.65000000000003 124.858 417.78100000000006 124.176Q416.91200000000003 123.494 415.57000000000005 123.494Q413.15000000000003 123.494 411.8960000000001 125.936Q410.90600000000006 127.85 410.90600000000006 130.534Q410.90600000000006 132.514 411.8960000000001 133.922Q412.97400000000005 135.528 414.86600000000004 135.528Q416.34000000000003 135.528 417.40700000000004 134.714Q418.47400000000005 133.9 418.73800000000006 132.448ZM415.98800000000006 126.464Q415.98800000000006 127.718 414.84400000000005 128.928Q414.052 129.786 413.4800000000001 130.094Q413.23800000000006 129.324 413.23800000000006 128.334Q413.23800000000006 127.212 413.54600000000005 126.244Q413.98600000000005 124.946 414.9320000000001 124.946Q415.43800000000005 124.946 415.74600000000004 125.474Q415.98800000000006 125.914 415.98800000000006 126.464Z" fill="white"/>
  <path d="M434.29200000000003 127.85Q434.29200000000003 126.618 433.4340000000001 125.75999999999999Q432.5760000000001 124.902 431.34400000000005 124.902Q430.1120000000001 124.902 429.2540000000001 125.75999999999999Q428.3960000000001 126.618 428.3960000000001 127.85Q428.3960000000001 129.082 429.2540000000001 129.94Q430.1120000000001 130.798 431.34400000000005 130.798Q432.5760000000001 130.798 433.4340000000001 129.94Q434.29200000000003 129.082 434.29200000000003 127.85Z" fill="white"/>
  <path d="M460.45000000000005 123.186Q460.45000000000005 121.624 459.72400000000005 120.436Q458.88800000000003 119.05 457.41400000000004 119.05Q455.434 119.05 455.434 121.03Q455.434 122.174 455.94000000000005 122.174Q455.96200000000005 122.174 456.35800000000006 122.042Q456.77600000000007 121.91 456.97400000000005 121.91Q457.72200000000004 121.95400000000001 458.16200000000003 122.834Q458.4920000000001 123.538 458.4920000000001 124.396Q458.4920000000001 125.474 457.85400000000004 127.652Q457.48 128.972 456.97400000000005 130.11599999999999Q456.4680000000001 131.26 455.85200000000003 132.316Q455.7420000000001 132.514 455.63200000000006 132.514Q455.54400000000004 132.514 455.47800000000007 132.338Q453.63000000000005 127.564 453.63000000000005 123.604Q453.63000000000005 122.724 453.63000000000005 122.24Q453.63000000000005 121.756 453.65200000000004 121.646Q453.74000000000007 120.898 453.982 120.238Q454.11400000000003 119.908 454.11400000000003 119.71000000000001Q454.11400000000003 119.336 453.63000000000005 119.314Q451.98 119.27 450.946 119.314Q450.59400000000005 119.336 450.59400000000005 119.666Q450.59400000000005 119.6 450.61600000000004 119.75399999999999Q450.63800000000003 119.908 450.6820000000001 120.282Q450.77000000000004 121.052 450.82500000000005 121.55799999999999Q450.88000000000005 122.064 450.90200000000004 122.35Q450.83600000000007 125.232 451.16600000000005 126.882Q451.34200000000004 127.762 451.14400000000006 128.268Q450.72600000000006 129.412 450.28600000000006 130.402Q449.84600000000006 131.392 449.362 132.272Q449.2300000000001 132.514 449.03200000000004 132.514Q448.85600000000005 132.514 448.74600000000004 132.272Q446.96400000000006 127.234 446.96400000000006 124.242Q446.96400000000006 121.58 447.40400000000005 120.062Q447.47 119.842 447.47 119.688Q447.47 119.314 447.09600000000006 119.314Q444.56600000000003 119.292 444.28000000000003 119.314Q443.92800000000005 119.336 443.92800000000005 119.666Q443.92800000000005 119.6 443.95000000000005 119.75399999999999Q443.97200000000004 119.908 444.016 120.282Q444.10400000000004 121.052 444.15900000000005 121.55799999999999Q444.21400000000006 122.064 444.23600000000005 122.35Q444.1700000000001 125.364 444.67600000000004 127.916Q445.20400000000006 130.424 446.458 133.218Q446.612 133.812 446.612 134.208V134.758Q446.612 134.978 447.07400000000007 135.0Q448.37200000000007 135.11 450.088 135.0Q450.48400000000004 134.978 450.48400000000004 134.736V134.252Q450.48400000000004 133.746 450.72600000000006 133.218Q451.12200000000007 132.404 451.4080000000001 131.79899999999998Q451.6940000000001 131.194 451.87000000000006 130.776Q451.93600000000004 130.666 452.02400000000006 130.666Q452.17800000000005 130.666 452.28800000000007 130.908Q453.278 133.658 453.278 134.208V134.758Q453.278 134.978 453.74000000000007 135.0Q455.03800000000007 135.11 456.754 135.0Q457.15000000000003 134.978 457.15000000000003 134.736V134.252Q457.15000000000003 133.746 457.39200000000005 133.218Q460.45000000000005 126.816 460.45000000000005 123.186Z" fill="white"/>
  <path d="M469.09600000000006 132.448Q469.184 131.964 468.81000000000006 131.964Q468.6120000000001 131.964 468.39200000000005 132.294Q467.7540000000001 133.218 466.54400000000004 133.218Q465.26800000000003 133.218 464.45400000000006 131.898Q464.25600000000003 131.568 464.54200000000003 131.304Q465.22400000000005 130.732 465.884 130.149Q466.54400000000004 129.566 467.22600000000006 128.994Q469.00800000000004 127.322 469.00800000000004 126.178Q469.00800000000004 124.858 468.139 124.176Q467.27000000000004 123.494 465.92800000000005 123.494Q463.50800000000004 123.494 462.2540000000001 125.936Q461.26400000000007 127.85 461.26400000000007 130.534Q461.26400000000007 132.514 462.2540000000001 133.922Q463.33200000000005 135.528 465.22400000000005 135.528Q466.69800000000004 135.528 467.76500000000004 134.714Q468.83200000000005 133.9 469.09600000000006 132.448ZM466.34600000000006 126.464Q466.34600000000006 127.718 465.20200000000006 128.928Q464.41 129.786 463.8380000000001 130.094Q463.59600000000006 129.324 463.59600000000006 128.334Q463.59600000000006 127.212 463.90400000000005 126.244Q464.34400000000005 124.946 465.2900000000001 124.946Q465.79600000000005 124.946 466.10400000000004 125.474Q466.34600000000006 125.914 466.34600000000006 126.464Z" fill="white"/>
  <path d="M479.01800000000003 129.28Q479.01800000000003 127.08 478.38000000000005 125.54Q477.47800000000007 123.428 475.58600000000007 123.428Q474.37600000000003 123.428 473.43000000000006 124.286Q473.36400000000003 124.352 473.29800000000006 124.352Q473.16600000000005 124.352 473.14400000000006 124.066Q473.07800000000003 123.076 473.34200000000004 120.238Q473.386 119.732 473.12200000000007 119.71000000000001H473.07800000000003Q472.9680000000001 119.71000000000001 472.57200000000006 119.908Q471.9560000000001 120.21600000000001 471.3620000000001 120.48Q470.76800000000003 120.744 470.196 120.986Q469.97600000000006 121.074 469.97600000000006 121.206Q470.064 121.382 470.10800000000006 121.47Q470.15200000000004 121.558 470.15200000000004 121.558Q470.636 122.438 470.636 123.318V132.998Q470.90000000000003 134.252 472.02200000000005 134.956Q473.03400000000005 135.528 474.398 135.528Q476.862 135.528 478.05000000000007 133.548Q479.01800000000003 131.92 479.01800000000003 129.28ZM476.04800000000006 129.874Q476.04800000000006 132.096 475.85 132.778Q475.47600000000006 134.098 474.44200000000006 134.098Q473.232 134.098 473.232 132.272V127.102Q473.62800000000004 125.386 474.81600000000003 125.386Q475.52000000000004 125.386 475.85 126.376Q476.04800000000006 126.97 476.04800000000006 129.874Z" fill="white"/>
  <path d="M499.8080000000001 127.652Q499.8080000000001 125.65 499.34600000000006 123.89Q498.04800000000006 118.962 493.8900000000001 118.962Q493.2960000000001 118.962 492.10800000000006 119.094Q490.94200000000006 119.226 490.34800000000007 119.226Q489.5560000000001 119.226 489.20400000000006 118.94Q488.61000000000007 119.336 488.61000000000007 120.612Q488.61000000000007 122.548 490.8320000000001 122.548Q491.07400000000007 122.548 491.4480000000001 122.515Q491.82200000000006 122.482 492.3280000000001 122.394Q492.83400000000006 122.306 493.2080000000001 122.273Q493.5820000000001 122.24 493.82400000000007 122.24Q495.6280000000001 122.24 496.4860000000001 124.44Q496.9040000000001 125.496 497.2120000000001 127.014Q497.5640000000001 128.576 497.5640000000001 129.654Q497.5640000000001 131.084 497.03600000000006 132.36Q496.3320000000001 134.054 495.14400000000006 134.054Q494.3520000000001 134.054 494.3960000000001 133.548Q494.44000000000005 133.174 494.9460000000001 133.042Q495.2320000000001 132.976 495.2320000000001 132.734Q495.2320000000001 132.646 495.16600000000005 132.536Q494.6380000000001 131.766 493.9120000000001 131.766Q492.54800000000006 131.766 492.0640000000001 133.57Q491.9100000000001 133.35 491.9100000000001 129.852Q491.9100000000001 129.412 491.9320000000001 128.664Q491.95400000000006 127.916 491.9980000000001 126.86Q492.0200000000001 125.892 492.1300000000001 124.396Q492.26200000000006 122.262 492.26200000000006 123.208Q492.26200000000006 122.724 491.8440000000001 122.724H489.7540000000001Q489.1820000000001 122.724 489.1820000000001 123.274Q489.1820000000001 123.626 489.20400000000006 124.12100000000001Q489.22600000000006 124.616 489.2700000000001 125.298Q489.3140000000001 125.98 489.33600000000007 126.475Q489.35800000000006 126.97 489.35800000000006 127.322Q489.35800000000006 128.906 489.2700000000001 130.655Q489.1820000000001 132.404 489.0060000000001 134.406Q488.9840000000001 134.912 488.8960000000001 135.198Q488.8740000000001 135.176 488.8740000000001 134.736Q488.8740000000001 135.022 489.1380000000001 135.022H491.80000000000007Q492.2180000000001 135.022 492.2180000000001 134.648Q492.2180000000001 134.384 492.41600000000005 134.604Q493.1640000000001 135.462 494.4840000000001 135.462Q497.19000000000005 135.462 498.64200000000005 132.778Q499.8080000000001 130.578 499.8080000000001 127.652Z" fill="white"/>
  <path d="M508.45400000000006 132.448Q508.54200000000003 131.964 508.16800000000006 131.964Q507.97 131.964 507.75000000000006 132.294Q507.1120000000001 133.218 505.90200000000004 133.218Q504.62600000000003 133.218 503.81200000000007 131.898Q503.61400000000003 131.568 503.90000000000003 131.304Q504.58200000000005 130.732 505.2420000000001 130.149Q505.90200000000004 129.566 506.58400000000006 128.994Q508.36600000000004 127.322 508.36600000000004 126.178Q508.36600000000004 124.858 507.49700000000007 124.176Q506.62800000000004 123.494 505.28600000000006 123.494Q502.86600000000004 123.494 501.6120000000001 125.936Q500.62200000000007 127.85 500.62200000000007 130.534Q500.62200000000007 132.514 501.6120000000001 133.922Q502.69000000000005 135.528 504.58200000000005 135.528Q506.05600000000004 135.528 507.12300000000005 134.714Q508.19000000000005 133.9 508.45400000000006 132.448ZM505.70400000000006 126.464Q505.70400000000006 127.718 504.56000000000006 128.928Q503.76800000000003 129.786 503.1960000000001 130.094Q502.95400000000006 129.324 502.95400000000006 128.334Q502.95400000000006 127.212 503.26200000000006 126.244Q503.70200000000006 124.946 504.6480000000001 124.946Q505.15400000000005 124.946 505.46200000000005 125.474Q505.70400000000006 125.914 505.70400000000006 126.464Z" fill="white"/>
  <path d="M517.87 125.672Q517.87 124.616 517.2650000000001 123.934Q516.6600000000001 123.252 515.6700000000001 123.252Q514.988 123.252 514.4820000000001 123.626Q513.9100000000001 124.066 513.9100000000001 124.70400000000001Q513.9100000000001 125.782 514.504 125.782Q514.548 125.782 514.724 125.738Q514.9000000000001 125.694 514.966 125.694Q515.9340000000001 125.694 515.9340000000001 127.322Q515.9340000000001 128.334 515.45 129.5Q515.142 130.204 514.922 130.732Q514.702 131.26 514.548 131.612Q514.4380000000001 131.854 514.2620000000001 131.854Q514.1300000000001 131.854 513.998 131.63400000000001Q512.392 128.906 512.392 126.046Q512.392 125.584 512.403 125.287Q512.4140000000001 124.99 512.436 124.858Q512.436 124.88 512.546 124.484Q512.678 124.132 512.678 124.022Q512.678 123.736 512.282 123.736Q510.83000000000004 123.714 509.62000000000006 123.736Q509.24600000000004 123.736 509.24600000000004 124.132Q509.24600000000004 124.11 509.5760000000001 125.1Q509.95000000000005 126.926 510.192 128.026Q510.434 129.126 510.54400000000004 129.544Q511.40200000000004 133.086 512.788 134.758Q513.162 135.198 513.4920000000001 135.198Q513.8660000000001 135.198 514.306 134.67Q515.5820000000001 132.998 516.682 130.38Q517.87 127.542 517.87 125.672Z" fill="white"/>
  <path d="M533.336 127.85Q533.336 126.618 532.4780000000001 125.75999999999999Q531.62 124.902 530.388 124.902Q529.156 124.902 528.298 125.75999999999999Q527.4399999999999 126.618 527.4399999999999 127.85Q527.4399999999999 129.082 528.298 129.94Q529.156 130.798 530.388 130.798Q531.62 130.798 532.4780000000001 129.94Q533.336 129.082 533.336 127.85Z" fill="white"/>
  <path d="M554.17 130.204Q554.17 129.61 553.598 129.61Q553.136 129.61 553.026 129.984Q552.762 131.062 552.0029999999999 131.733Q551.244 132.404 550.188 132.404Q548.054 132.404 546.8439999999999 130.072Q545.81 128.114 545.81 125.848Q545.81 123.802 546.47 122.306Q547.35 120.326 549.154 120.326Q549.704 120.326 550.1659999999999 120.722Q550.6279999999999 121.118 550.6279999999999 121.646Q550.6279999999999 122.328 550.144 122.724Q549.66 123.12 548.9119999999999 123.12Q548.494 123.12 548.3399999999999 123.208Q548.1859999999999 123.296 548.1859999999999 123.69200000000001Q548.1859999999999 124.594 549.0 125.21000000000001Q549.77 125.782 550.672 125.782Q552.3879999999999 125.782 553.202 124.242Q553.598 123.494 553.598 122.35Q553.598 120.744 552.4979999999999 119.644Q551.398 118.522 549.7919999999999 118.522Q546.2719999999999 118.522 544.16 122.592Q542.972 124.88 542.972 127.96000000000001Q542.972 129.632 543.192 130.424Q543.742 132.58 545.084 133.922Q546.558 135.374 548.67 135.374Q551.838 135.374 553.268 133.13Q554.17 131.7 554.17 130.204Z" fill="white"/>
  <path d="M558.5260000000001 119.842Q558.5260000000001 119.424 558.284 119.424Q558.152 119.424 557.932 119.556Q557.294 119.93 556.6669999999999 120.21600000000001Q556.04 120.502 555.446 120.72200000000001Q554.984 120.898 554.984 121.118Q554.984 121.25 555.094 121.514Q555.248 121.844 555.358 122.339Q555.468 122.834 555.5120000000001 123.516Q555.534 123.67 555.534 124.374Q555.534 125.078 555.534 126.398Q555.534 132.228 555.27 134.296Q555.182 134.978 555.6 135.0Q557.052 135.022 558.2620000000001 135.0Q558.57 134.978 558.482 134.164Q558.306 132.646 558.2070000000001 131.678Q558.1080000000001 130.71 558.13 130.292L558.372 121.69Q558.394 121.47 558.394 121.36Q558.394 121.22800000000001 558.394 121.206Q558.482 120.106 558.5260000000001 119.842Z" fill="white"/>
  <path d="M567.744 129.17Q567.744 126.838 566.8199999999999 125.144Q565.698 123.098 563.52 123.098Q562.4639999999999 123.098 561.782 123.516Q560.924 124.022 560.924 124.99Q560.924 125.694 561.584 125.98Q559.406 127.146 559.406 129.852Q559.406 132.118 560.33 133.526Q561.408 135.176 563.542 135.176Q565.632 135.176 566.798 133.13Q567.744 131.458 567.744 129.17ZM566.138 129.764Q566.138 130.864 565.61 131.612Q565.016 132.448 563.96 132.448Q562.816 132.448 562.178 131.348Q561.628 130.446 561.628 129.192Q561.628 126.816 563.278 126.574Q563.52 126.53 563.52 126.354Q563.52 125.98 562.816 125.804Q563.124 125.628 563.85 125.936Q564.928 126.354 565.566 127.498Q566.138 128.532 566.138 129.764Z" fill="white"/>
  <path d="M576.83 134.45Q576.4780000000001 133.042 576.4780000000001 128.994Q576.4780000000001 128.004 576.5550000000001 126.893Q576.6320000000001 125.782 576.7860000000001 124.528Q576.874 123.846 576.456 123.824Q575.1360000000001 123.758 574.058 123.824Q573.75 123.846 573.8380000000001 124.66Q573.926 125.364 573.97 126.332Q574.014 127.3 574.014 128.532Q574.014 129.5 573.992 130.138Q573.97 130.776 573.926 131.084Q573.8380000000001 131.898 573.464 132.558Q573.0020000000001 133.438 572.342 133.438Q571.616 133.438 571.418 132.272Q571.374 132.03 571.3520000000001 131.49099999999999Q571.33 130.952 571.33 130.138Q571.33 127.586 571.462 125.562Q571.462 125.518 571.495 125.35300000000001Q571.528 125.188 571.572 124.924Q571.7040000000001 124.396 571.7040000000001 124.22Q571.7040000000001 123.824 571.22 123.824Q569.3720000000001 123.78 569.0640000000001 123.824Q568.624 123.868 568.624 124.242Q568.624 124.528 568.646 124.924Q568.668 125.32 568.712 125.848Q568.7560000000001 126.354 568.789 126.75Q568.822 127.146 568.822 127.388Q568.822 127.63 568.822 128.114Q568.822 128.598 568.8000000000001 129.324Q568.778 129.984 568.778 130.556Q568.778 131.106 568.7560000000001 131.546Q568.734 132.03 568.734 132.096Q568.734 132.162 568.734 131.81Q568.734 135.22 571.462 135.22Q572.98 135.22 573.662 134.472Q573.772 134.362 573.8380000000001 134.362Q573.904 134.362 573.948 134.692Q574.014 135.0 574.432 135.0H576.5Q576.962 135.0 576.83 134.45Z" fill="white"/>
  <path d="M586.444 134.626Q586.444 134.56 586.3340000000001 134.164Q586.224 133.768 586.224 133.724Q586.158 132.25 586.158 132.382L586.268 123.516Q586.29 122.108 586.3340000000001 121.305Q586.378 120.502 586.422 120.282Q586.598 119.644 586.246 119.644Q586.114 119.644 586.026 119.71000000000001L584.6179999999999 120.37Q583.43 120.94200000000001 583.43 121.052Q583.43 121.118 583.562 121.47Q583.848 122.262 583.8919999999999 122.658Q583.914 122.746 583.914 123.89Q583.914 124.19800000000001 583.804 124.19800000000001Q583.7379999999999 124.19800000000001 583.606 124.066Q583.1 123.582 582.814 123.406Q582.4399999999999 123.208 581.78 123.208Q579.822 123.208 578.656 125.232Q577.688 126.926 577.688 129.06Q577.688 135.11 580.922 135.11Q582.308 135.11 583.364 133.988Q583.518 133.79 583.672 133.79Q583.76 133.79 583.76 133.988Q583.7379999999999 135.11 583.694 134.802Q584.024 134.978 584.244 135.0Q584.992 135.022 586.07 135.0Q586.444 134.956 586.444 134.626ZM584.002 128.466Q584.002 133.196 582.396 133.284Q581.164 133.35 580.614 131.568Q580.24 130.314 580.24 128.84Q580.24 127.146 580.548 126.42Q580.768 125.958 580.889 125.694Q581.01 125.43 581.054 125.364Q581.494 124.726 582.198 124.726Q583.1659999999999 124.726 583.65 126.2Q584.002 127.19 584.002 128.466Z" fill="white"/>
</svg>