<svg xmlns="http://www.w3.org/2000/svg" viewBox="0 0 900 220" width="900" height="220">
  <defs>
    <linearGradient id="bg" x1="0" y1="0" x2="0" y2="1">
      <stop offset="0%" stop-color="#1e1e2e"/>
      <stop offset="100%" stop-color="#11111b"/>
    </linearGradient>
    <linearGradient id="rule" x1="0" y1="0" x2="1" y2="0">
      <stop offset="0%" stop-color="#fab387" stop-opacity="0"/>
      <stop offset="50%" stop-color="#fab387"/>
      <stop offset="100%" stop-color="#fab387" stop-opacity="0"/>
    </linearGradient>
  </defs>
  <rect width="900" height="220" rx="20" fill="url(#bg)"/>
  <rect x="1" y="1" width="898" height="218" rx="20" fill="none" stroke="#313244" stroke-width="1.5"/>
  <path d="M510 652Q510 682 491 707Q479 723 471 723Q463 723 440 719Q416 716 409 716Q392 716 363 723Q335 730 318 730Q287 730 232 717Q175 705 146 705Q118 705 109 709L95 714Q60 726 50 726Q40 726 40 715Q40 706 44 689Q60 613 60 529Q60 420 54.0 310.0Q48 200 35 87Q35 82 32.5 73.0Q30 64 27.5 53.5Q25 43 23.0 32.5Q21 22 21 15Q21 0 40 0H174Q191 0 191 16Q191 29 185 52Q181 66 179.5 74.5Q178 83 177 88Q165 176 165 281Q165 326 168.5 395.5Q172 465 179 562Q185 642 232 642L282 616Q332 590 367 590Q389 590 400 594Q401 594 405.5 596.5Q410 599 415.0 601.5Q420 604 424.5 606.5Q429 609 430 609Q434 609 434 604Q434 598 428 589Q337 450 337 313Q337 299 338.5 276.5Q340 254 342.0 225.0Q344 196 345.5 173.5Q347 151 347 137Q347 108 344 80Q339 55 336.5 39.0Q334 23 334 15Q334 0 356 0H455Q478 0 478 34Q478 66 473.5 112.0Q469 158 461.0 221.0Q453 284 448.5 330.0Q444 376 444 408Q444 451 477 534Q510 616 510 652ZM933 23Q926 75 923.0 136.0Q920 197 920 269Q920 321 921.5 375.0Q923 429 927 486Q928 499 918 504Q908 508 895 504Q870 499 841 499Q817 499 771 505Q724 511 701 511Q575 511 575 421Q575 388 597.5 368.0Q620 348 654 348Q673 348 694.5 362.0Q716 376 723 393Q733 417 718 426Q704 434 718 448Q723 453 742 453Q796 453 805 383V343Q794 338 779.0 334.5Q764 331 745 329Q659 322 607 276Q550 226 550 142Q550 -14 681 -14Q750 -14 796 23Q806 32 808 18Q809 -1 841 -1H884Q887 0 887 0Q936 0 933 23ZM809 254Q809 199 806 135Q805 110 778 86Q752 62 727 62Q674 62 674 150Q674 219 705 244Q713 251 733.0 259.5Q753 268 785 278Q793 280 797 280Q809 280 809 254ZM1199 486Q1199 503 1185 508Q1180 509 1173.0 509.5Q1166 510 1157 510H1140Q1140 576 1143 588Q1146 615 1148.0 633.0Q1150 651 1151 659Q1151 673 1142 673Q1136 673 1126 667Q1089 647 1059.0 633.0Q1029 619 1004 611Q991 607 991 596Q991 588 997 578Q1013 550 1017 510H1009Q970 510 970 486Q970 467 1008 467H1021Q1022 459 1022 440Q1022 422 1022 391Q1022 280 1017.5 190.5Q1013 101 1005 32Q1001 1 1020 0Q1086 -1 1141 0Q1155 1 1151 38Q1143 103 1138.5 147.0Q1134 191 1135 214L1139 467H1156Q1199 467 1199 486ZM1623 19Q1623 31 1621.5 49.0Q1620 67 1618 90Q1616 114 1615.0 132.0Q1614 150 1614 162L1616 262Q1617 304 1617.5 329.0Q1618 354 1618 363Q1619 526 1490 526Q1428 526 1394 486Q1389 480 1384 480Q1377 480 1379 491L1382 546Q1383 565 1383.5 587.0Q1384 609 1384 635Q1384 702 1375 698Q1328 673 1296.0 656.5Q1264 640 1247 630Q1229 618 1240 597Q1248 581 1253.0 560.5Q1258 540 1260 514Q1261 501 1261.5 470.5Q1262 440 1262 391Q1262 319 1255.5 230.0Q1249 141 1236 32Q1232 1 1251 0Q1317 -1 1372 0Q1386 1 1382 38Q1378 70 1376.0 114.0Q1374 158 1374 214Q1374 307 1378 330Q1395 437 1454 437Q1507 437 1500 289L1490 81Q1490 79 1489.0 71.5Q1488 64 1486.0 52.0Q1484 40 1483.0 32.0Q1482 24 1482 20Q1482 0 1505 0H1603Q1623 0 1623 19ZM2041 23Q2034 75 2031.0 136.0Q2028 197 2028 269Q2028 321 2029.5 375.0Q2031 429 2035 486Q2036 499 2026 504Q2016 508 2003 504Q1978 499 1949 499Q1925 499 1879 505Q1832 511 1809 511Q1683 511 1683 421Q1683 388 1705.5 368.0Q1728 348 1762 348Q1781 348 1802.5 362.0Q1824 376 1831 393Q1841 417 1826 426Q1812 434 1826 448Q1831 453 1850 453Q1904 453 1913 383V343Q1902 338 1887.0 334.5Q1872 331 1853 329Q1767 322 1715 276Q1658 226 1658 142Q1658 -14 1789 -14Q1858 -14 1904 23Q1914 32 1916 18Q1917 -1 1949 -1H1992Q1995 0 1995 0Q2044 0 2041 23ZM1917 254Q1917 199 1914 135Q1913 110 1886 86Q1860 62 1835 62Q1782 62 1782 150Q1782 219 1813 244Q1821 251 1841.0 259.5Q1861 268 1893 278Q1901 280 1905 280Q1917 280 1917 254ZM2461 19Q2461 29 2460 31Q2454 61 2452.5 96.0Q2451 131 2450 162Q2449 182 2449.5 207.0Q2450 232 2451 264Q2454 343 2454 365Q2455 442 2434 477Q2407 520 2332 520Q2263 520 2232 484Q2227 479 2224 479Q2219 479 2219 492Q2219 507 2197 508Q2182 509 2107 508Q2086 508 2092 483Q2102 443 2102 235Q2102 190 2098.5 139.5Q2095 89 2088 32Q2084 2 2099 0Q2143 -2 2208 0Q2220 2 2221 15L2218 38Q2214 69 2212.0 112.5Q2210 156 2210 214Q2210 260 2211.0 289.0Q2212 318 2214 330Q2220 368 2241 400Q2266 439 2300 439Q2333 439 2341 386Q2343 371 2343.5 346.5Q2344 322 2342 287L2332 79Q2332 73 2326 49Q2321 24 2321 18Q2321 0 2343 0H2441Q2461 0 2461 19ZM3376 648Q3376 731 3241 731Q3224 731 3199.5 729.0Q3175 727 3143.0 723.0Q3111 719 3087.0 717.0Q3063 715 3046 715Q2958 715 2933 727Q2927 730 2923 730Q2907 730 2912 707Q2934 610 2934 501V355Q2934 269 2913 38Q2909 22 2905 16Q2904 0 2930 0H2992H3042Q3059 -1 3071 -1Q3084 -1 3092 -1Q3112 -1 3112 8Q3112 15 3102 22Q3053 56 3050 147Q3048 217 3069 264Q3098 329 3158 329Q3198 329 3263 290Q3273 284 3279 284Q3292 284 3281 307Q3273 338 3266.5 361.0Q3260 384 3255 400Q3241 441 3194 441Q3128 441 3063 361Q3054 350 3051 362Q3050 367 3049.5 369.5Q3049 372 3049 373Q3055 413 3058 510Q3061 589 3073 616Q3096 666 3168 666Q3233 666 3232 633Q3232 627 3227.5 618.0Q3223 609 3219.0 603.0Q3215 597 3214 596Q3214 590 3223 584Q3245 569 3288 569Q3327 569 3351.5 590.5Q3376 612 3376 648ZM3855 98Q3855 116 3847.5 131.5Q3840 147 3827.5 158.5Q3815 170 3798.5 176.5Q3782 183 3764 183Q3734 183 3713 162Q3714 153 3714.5 148.5Q3715 144 3715 144Q3715 109 3691.5 85.0Q3668 61 3633 61Q3557 61 3531 126Q3515 165 3515 258Q3515 383 3581 383Q3605 383 3631 358Q3638 351 3647 351Q3657 351 3672 371Q3680 381 3685.0 388.5Q3690 396 3694 401Q3713 432 3704 444Q3674 482 3626 482Q3588 482 3531 440Q3529 438 3526 438Q3517 438 3517 471Q3517 564 3529 609Q3546 671 3623 671Q3709 671 3709 619Q3709 619 3708.5 613.0Q3708 607 3707 595Q3730 575 3752 575Q3788 575 3813.0 598.5Q3838 622 3838 657Q3838 700 3790 723Q3755 739 3704 739Q3685 739 3657.0 736.0Q3629 733 3591 728Q3554 723 3526.0 720.5Q3498 718 3479 718Q3446 718 3410 727Q3400 729 3399 729Q3376 729 3382 708Q3398 650 3397 383Q3396 251 3391.5 165.5Q3387 80 3377 40L3374 27Q3371 13 3371 11Q3372 -9 3401 -1Q3441 7 3494 7Q3511 7 3537.0 5.0Q3563 3 3598.0 -1.0Q3633 -5 3659.0 -7.0Q3685 -9 3702 -9Q3764 -9 3804 13Q3855 41 3855 98ZM4383 595Q4383 664 4330 699Q4285 729 4212 729Q4196 729 4172.0 726.5Q4148 724 4116 719Q4051 710 4020 710Q3968 710 3939 720Q3922 725 3920 725Q3905 725 3908 703Q3915 646 3918.5 604.0Q3922 562 3922 533L3921 363Q3919 231 3906 128Q3905 123 3902.5 109.5Q3900 96 3895 73Q3891 54 3889.0 41.0Q3887 28 3887 20Q3887 0 3903 0H4040Q4057 0 4057 13Q4057 42 4048 98Q4043 126 4041.0 146.5Q4039 167 4038 180Q4037 215 4037 239Q4037 264 4039 278Q4044 316 4055 320L4089 336Q4114 348 4121 348Q4134 348 4145 334Q4218 245 4218 104Q4218 97 4216.5 86.0Q4215 75 4213.0 61.0Q4211 47 4210.0 36.5Q4209 26 4209 18Q4209 0 4233 0H4329Q4354 0 4354 24Q4354 81 4352.5 122.0Q4351 163 4347 189Q4329 321 4264 389Q4255 398 4255 405Q4255 411 4267 419Q4383 496 4383 595ZM4228 579Q4226 517 4172 465Q4125 420 4061 396Q4047 391 4044 404Q4044 404 4042 428Q4041 470 4045 504Q4049 534 4050.5 553.0Q4052 572 4053 580Q4060 664 4146 659Q4183 657 4206.0 635.5Q4229 614 4228 579ZM4920 595Q4920 664 4867 699Q4822 729 4749 729Q4733 729 4709.0 726.5Q4685 724 4653 719Q4588 710 4557 710Q4505 710 4476 720Q4459 725 4457 725Q4442 725 4445 703Q4452 646 4455.5 604.0Q4459 562 4459 533L4458 363Q4456 231 4443 128Q4442 123 4439.5 109.5Q4437 96 4432 73Q4428 54 4426.0 41.0Q4424 28 4424 20Q4424 0 4440 0H4577Q4594 0 4594 13Q4594 42 4585 98Q4580 126 4578.0 146.5Q4576 167 4575 180Q4574 215 4574 239Q4574 264 4576 278Q4581 316 4592 320L4626 336Q4651 348 4658 348Q4671 348 4682 334Q4755 245 4755 104Q4755 97 4753.5 86.0Q4752 75 4750.0 61.0Q4748 47 4747.0 36.5Q4746 26 4746 18Q4746 0 4770 0H4866Q4891 0 4891 24Q4891 81 4889.5 122.0Q4888 163 4884 189Q4866 321 4801 389Q4792 398 4792 405Q4792 411 4804 419Q4920 496 4920 595ZM4765 579Q4763 517 4709 465Q4662 420 4598 396Q4584 391 4581 404Q4581 404 4579 428Q4578 470 4582 504Q4586 534 4587.5 553.0Q4589 572 4590 580Q4597 664 4683 659Q4720 657 4743.0 635.5Q4766 614 4765 579ZM5445 98Q5445 116 5437.5 131.5Q5430 147 5417.5 158.5Q5405 170 5388.5 176.5Q5372 183 5354 183Q5324 183 5303 162Q5304 153 5304.5 148.5Q5305 144 5305 144Q5305 109 5281.5 85.0Q5258 61 5223 61Q5147 61 5121 126Q5105 165 5105 258Q5105 383 5171 383Q5195 383 5221 358Q5228 351 5237 351Q5247 351 5262 371Q5270 381 5275.0 388.5Q5280 396 5284 401Q5303 432 5294 444Q5264 482 5216 482Q5178 482 5121 440Q5119 438 5116 438Q5107 438 5107 471Q5107 564 5119 609Q5136 671 5213 671Q5299 671 5299 619Q5299 619 5298.5 613.0Q5298 607 5297 595Q5320 575 5342 575Q5378 575 5403.0 598.5Q5428 622 5428 657Q5428 700 5380 723Q5345 739 5294 739Q5275 739 5247.0 736.0Q5219 733 5181 728Q5144 723 5116.0 720.5Q5088 718 5069 718Q5036 718 5000 727Q4990 729 4989 729Q4966 729 4972 708Q4988 650 4987 383Q4986 251 4981.5 165.5Q4977 80 4967 40L4964 27Q4961 13 4961 11Q4962 -9 4991 -1Q5031 7 5084 7Q5101 7 5127.0 5.0Q5153 3 5188.0 -1.0Q5223 -5 5249.0 -7.0Q5275 -9 5292 -9Q5354 -9 5394 13Q5445 41 5445 98Z" fill="#fab387" transform="translate(199.02,118.00) scale(0.09200,-0.09200)"/>
  <path d="M183 685Q183 706 152 707Q105 708 62 707Q32 705 32 685Q33 683 38 655Q45 615 48.5 584.0Q52 553 52 530V403Q52 313 45.5 231.0Q39 149 26 71Q20 36 20 17Q20 0 40 0H160Q183 0 180 21Q171 91 166.0 166.0Q161 241 160 323Q159 401 163.5 483.0Q168 565 176 653Q176 656 179.5 668.5Q183 681 183 685ZM602 19Q602 29 601 31Q595 61 593.5 96.0Q592 131 591 162Q590 182 590.5 207.0Q591 232 592 264Q595 343 595 365Q596 442 575 477Q548 520 473 520Q404 520 373 484Q368 479 365 479Q360 479 360 492Q360 507 338 508Q323 509 248 508Q227 508 233 483Q243 443 243 235Q243 190 239.5 139.5Q236 89 229 32Q225 2 240 0Q284 -2 349 0Q361 2 362 15L359 38Q355 69 353.0 112.5Q351 156 351 214Q351 260 352.0 289.0Q353 318 355 330Q361 368 382 400Q407 439 441 439Q474 439 482 386Q484 371 484.5 346.5Q485 322 483 287L473 79Q473 73 467 49Q462 24 462 18Q462 0 484 0H582Q602 0 602 19ZM882 667Q882 687 863 699Q856 689 833 689Q825 689 814.5 690.5Q804 692 792 694Q752 702 742 702Q702 702 677.0 677.0Q652 652 652 612Q652 601 666 548Q675 515 679 515Q680 515 680 522Q680 516 660 508Q641 501 640 488Q638 467 672 467Q695 467 695 447V76Q695 72 693.5 64.5Q692 57 690 45Q685 20 685 14Q685 2 702 0Q750 -2 800 0Q818 1 818 16Q818 21 813 46Q811 58 810.0 65.5Q809 73 809 76V449Q809 459 841.0 467.0Q873 475 873 488Q873 505 858 508H827Q807 508 807 520Q807 540 767 562Q747 574 737.0 580.0Q727 586 727 586Q727 596 743 596Q749 596 758.5 594.0Q768 592 777.5 590.0Q787 588 796.5 586.0Q806 584 812 584Q882 584 882 667ZM1214 486Q1214 520 1162 520Q1103 520 1062 476Q1057 471 1054 471Q1049 471 1049 483Q1049 507 1027 508Q1012 509 937 508Q915 508 922 483Q944 414 944 235Q944 190 940.5 139.5Q937 89 930 32Q926 2 941 0Q985 -2 1050 0Q1062 2 1063 15L1060 38Q1056 69 1054.0 112.5Q1052 156 1052 214Q1052 311 1056 330Q1071 411 1098 411Q1117 411 1127 401L1152 367Q1165 349 1172 349Q1180 349 1184 368Q1190 388 1194.5 402.5Q1199 417 1202 427Q1214 466 1214 486ZM1629 23Q1622 75 1619.0 136.0Q1616 197 1616 269Q1616 321 1617.5 375.0Q1619 429 1623 486Q1624 499 1614 504Q1604 508 1591 504Q1566 499 1537 499Q1513 499 1467 505Q1420 511 1397 511Q1271 511 1271 421Q1271 388 1293.5 368.0Q1316 348 1350 348Q1369 348 1390.5 362.0Q1412 376 1419 393Q1429 417 1414 426Q1400 434 1414 448Q1419 453 1438 453Q1492 453 1501 383V343Q1490 338 1475.0 334.5Q1460 331 1441 329Q1355 322 1303 276Q1246 226 1246 142Q1246 -14 1377 -14Q1446 -14 1492 23Q1502 32 1504 18Q1505 -1 1537 -1H1580Q1583 0 1583 0Q1632 0 1629 23ZM1505 254Q1505 199 1502 135Q1501 110 1474 86Q1448 62 1423 62Q1370 62 1370 150Q1370 219 1401 244Q1409 251 1429.0 259.5Q1449 268 1481 278Q1489 280 1493 280Q1505 280 1505 254ZM2022 132Q2022 212 1973 257Q1940 287 1855 319Q1784 344 1771 352Q1728 374 1728 408Q1728 424 1740.0 435.0Q1752 446 1769 446Q1787 446 1836 421Q1886 396 1914 396Q1980 396 1980 464Q1980 484 1972 495Q1962 510 1943 502Q1929 496 1907 496Q1891 496 1853.0 504.0Q1815 512 1799 512Q1771 512 1747.5 502.0Q1724 492 1707.5 475.0Q1691 458 1682.0 433.5Q1673 409 1673 381Q1673 311 1705.5 270.0Q1738 229 1801 208L1915 169Q1968 143 1968 110Q1968 75 1922 75Q1900 75 1844.0 100.0Q1788 125 1757 125Q1718 125 1695.0 103.0Q1672 81 1672 43Q1672 -3 1693 -3Q1698 -3 1700 -2Q1712 4 1724.0 10.0Q1736 16 1758 16Q1778 16 1827.0 5.0Q1876 -6 1898 -6Q1956 -6 1990 34Q2022 72 2022 132ZM2284 486Q2284 503 2270 508Q2265 509 2258.0 509.5Q2251 510 2242 510H2225Q2225 576 2228 588Q2231 615 2233.0 633.0Q2235 651 2236 659Q2236 673 2227 673Q2221 673 2211 667Q2174 647 2144.0 633.0Q2114 619 2089 611Q2076 607 2076 596Q2076 588 2082 578Q2098 550 2102 510H2094Q2055 510 2055 486Q2055 467 2093 467H2106Q2107 459 2107 440Q2107 422 2107 391Q2107 280 2102.5 190.5Q2098 101 2090 32Q2086 1 2105 0Q2171 -1 2226 0Q2240 1 2236 38Q2228 103 2223.5 147.0Q2219 191 2220 214L2224 467H2241Q2284 467 2284 486ZM2614 486Q2614 520 2562 520Q2503 520 2462 476Q2457 471 2454 471Q2449 471 2449 483Q2449 507 2427 508Q2412 509 2337 508Q2315 508 2322 483Q2344 414 2344 235Q2344 190 2340.5 139.5Q2337 89 2330 32Q2326 2 2341 0Q2385 -2 2450 0Q2462 2 2463 15L2460 38Q2456 69 2454.0 112.5Q2452 156 2452 214Q2452 311 2456 330Q2471 411 2498 411Q2517 411 2527 401L2552 367Q2565 349 2572 349Q2580 349 2584 368Q2590 388 2594.5 402.5Q2599 417 2602 427Q2614 466 2614 486ZM3021 25Q3005 89 3005 273Q3005 318 3008.5 368.5Q3012 419 3019 476Q3023 507 3004 508Q2944 511 2895 508Q2881 507 2885 470Q2889 438 2891.0 394.0Q2893 350 2893 294Q2893 250 2892.0 221.0Q2891 192 2889 178Q2885 141 2868 111Q2847 71 2817 71Q2784 71 2775 124Q2773 135 2772.0 159.5Q2771 184 2771 221Q2771 337 2777 429Q2777 431 2778.5 438.5Q2780 446 2782 458Q2788 482 2788 490Q2788 508 2766 508Q2682 510 2668 508Q2648 506 2648 489Q2648 476 2649.0 458.0Q2650 440 2652 416Q2654 393 2655.5 375.0Q2657 357 2657 346Q2657 335 2657 313Q2657 291 2656 258Q2655 228 2655 202Q2655 177 2654 157Q2653 135 2653 132Q2653 129 2653 145Q2653 -10 2777 -10Q2846 -10 2877 24Q2882 29 2885 29Q2888 29 2890 14Q2893 0 2912 0H3006Q3027 0 3021 25ZM3409 128Q3409 140 3401 140Q3391 140 3379 123Q3353 85 3301 85Q3228 85 3194 170Q3169 230 3169 318Q3169 375 3190 419Q3216 475 3267 475Q3296 475 3296 458Q3296 465 3272 431Q3249 396 3249 377Q3249 350 3265 330L3303 292Q3310 285 3317 285Q3327 285 3326 303Q3323 329 3342 342Q3393 379 3393 424Q3393 469 3354 498Q3319 524 3271 524Q3166 524 3110 420Q3064 337 3064 222Q3064 118 3104 54Q3152 -23 3250 -23Q3312 -23 3352 14Q3362 24 3372.5 38.0Q3383 52 3391.0 68.0Q3399 84 3404.0 99.5Q3409 115 3409 128ZM3670 486Q3670 503 3656 508Q3651 509 3644.0 509.5Q3637 510 3628 510H3611Q3611 576 3614 588Q3617 615 3619.0 633.0Q3621 651 3622 659Q3622 673 3613 673Q3607 673 3597 667Q3560 647 3530.0 633.0Q3500 619 3475 611Q3462 607 3462 596Q3462 588 3468 578Q3484 550 3488 510H3480Q3441 510 3441 486Q3441 467 3479 467H3492Q3493 459 3493 440Q3493 422 3493 391Q3493 280 3488.5 190.5Q3484 101 3476 32Q3472 1 3491 0Q3557 -1 3612 0Q3626 1 3622 38Q3614 103 3609.5 147.0Q3605 191 3606 214L3610 467H3627Q3670 467 3670 486ZM4078 25Q4062 89 4062 273Q4062 318 4065.5 368.5Q4069 419 4076 476Q4080 507 4061 508Q4001 511 3952 508Q3938 507 3942 470Q3946 438 3948.0 394.0Q3950 350 3950 294Q3950 250 3949.0 221.0Q3948 192 3946 178Q3942 141 3925 111Q3904 71 3874 71Q3841 71 3832 124Q3830 135 3829.0 159.5Q3828 184 3828 221Q3828 337 3834 429Q3834 431 3835.5 438.5Q3837 446 3839 458Q3845 482 3845 490Q3845 508 3823 508Q3739 510 3725 508Q3705 506 3705 489Q3705 476 3706.0 458.0Q3707 440 3709 416Q3711 393 3712.5 375.0Q3714 357 3714 346Q3714 335 3714 313Q3714 291 3713 258Q3712 228 3712 202Q3712 177 3711 157Q3710 135 3710 132Q3710 129 3710 145Q3710 -10 3834 -10Q3903 -10 3934 24Q3939 29 3942 29Q3945 29 3947 14Q3950 0 3969 0H4063Q4084 0 4078 25ZM4419 486Q4419 520 4367 520Q4308 520 4267 476Q4262 471 4259 471Q4254 471 4254 483Q4254 507 4232 508Q4217 509 4142 508Q4120 508 4127 483Q4149 414 4149 235Q4149 190 4145.5 139.5Q4142 89 4135 32Q4131 2 4146 0Q4190 -2 4255 0Q4267 2 4268 15L4265 38Q4261 69 4259.0 112.5Q4257 156 4257 214Q4257 311 4261 330Q4276 411 4303 411Q4322 411 4332 401L4357 367Q4370 349 4377 349Q4385 349 4389 368Q4395 388 4399.5 402.5Q4404 417 4407 427Q4419 466 4419 486ZM4806 116Q4810 138 4793 138Q4784 138 4774 123Q4745 81 4690 81Q4632 81 4595 141Q4586 156 4599 168Q4630 194 4660.0 220.5Q4690 247 4721 273Q4802 349 4802 401Q4802 461 4762.5 492.0Q4723 523 4662 523Q4552 523 4495 412Q4450 325 4450 203Q4450 113 4495 49Q4544 -24 4630 -24Q4697 -24 4745.5 13.0Q4794 50 4806 116ZM4681 388Q4681 331 4629 276Q4593 237 4567 223Q4556 258 4556 303Q4556 354 4570 398Q4590 457 4633 457Q4656 457 4670 433Q4681 413 4681 388ZM5917 295Q5920 306 5906 309Q5902 310 5897.0 310.5Q5892 311 5885 310Q5793 302 5684 310Q5664 311 5660 310Q5649 307 5652 295Q5658 266 5658 245Q5658 227 5653 210Q5652 209 5652 203Q5652 192 5672 194Q5790 206 5897 194Q5922 192 5916 210Q5905 249 5917 295ZM7513 537Q7513 608 7480 662Q7442 725 7375 725Q7285 725 7285 635Q7285 583 7308 583Q7309 583 7327 589Q7346 595 7355 595Q7389 593 7409 553Q7424 521 7424 482Q7424 433 7395 334Q7378 274 7355.0 222.0Q7332 170 7304 122Q7299 113 7294 113Q7290 113 7287 121Q7203 338 7203 518Q7203 558 7203 580Q7203 602 7204 607Q7208 641 7219 671Q7225 686 7225 695Q7225 712 7203 713Q7128 715 7081 713Q7065 712 7065 697Q7065 700 7066.0 693.0Q7067 686 7069 669Q7073 634 7075.5 611.0Q7078 588 7079 575Q7076 444 7091 369Q7099 329 7090 306Q7071 254 7051.0 209.0Q7031 164 7009 124Q7003 113 6994 113Q6986 113 6981 124Q6900 353 6900 489Q6900 610 6920 679Q6923 689 6923 696Q6923 713 6906 713Q6791 714 6778 713Q6762 712 6762 697Q6762 700 6763.0 693.0Q6764 686 6766 669Q6770 634 6772.5 611.0Q6775 588 6776 575Q6773 438 6796 322Q6820 208 6877 81Q6884 54 6884 36V11Q6884 1 6905 0Q6964 -5 7042 0Q7060 1 7060 12V34Q7060 57 7071 81Q7089 118 7102.0 145.5Q7115 173 7123 192Q7126 197 7130 197Q7137 197 7142 186Q7187 61 7187 36V11Q7187 1 7208 0Q7267 -5 7345 0Q7363 1 7363 12V34Q7363 57 7374 81Q7513 372 7513 537ZM7906 116Q7910 138 7893 138Q7884 138 7874 123Q7845 81 7790 81Q7732 81 7695 141Q7686 156 7699 168Q7730 194 7760.0 220.5Q7790 247 7821 273Q7902 349 7902 401Q7902 461 7862.5 492.0Q7823 523 7762 523Q7652 523 7595 412Q7550 325 7550 203Q7550 113 7595 49Q7644 -24 7730 -24Q7797 -24 7845.5 13.0Q7894 50 7906 116ZM7781 388Q7781 331 7729 276Q7693 237 7667 223Q7656 258 7656 303Q7656 354 7670 398Q7690 457 7733 457Q7756 457 7770 433Q7781 413 7781 388ZM8357 260Q8357 360 8328 430Q8287 526 8201 526Q8146 526 8103 487Q8100 484 8097 484Q8091 484 8090 497Q8087 542 8099 671Q8101 694 8089 695H8087Q8082 695 8064 686Q8036 672 8009.0 660.0Q7982 648 7956 637Q7946 633 7946 627Q7950 619 7952.0 615.0Q7954 611 7954 611Q7976 571 7976 531V91Q7988 34 8039 2Q8085 -24 8147 -24Q8259 -24 8313 66Q8357 140 8357 260ZM8222 233Q8222 132 8213 101Q8196 41 8149 41Q8094 41 8094 124V359Q8112 437 8166 437Q8198 437 8213 392Q8222 365 8222 233ZM9302 334Q9302 425 9281 505Q9222 729 9033 729Q9006 729 8952 723Q8899 717 8872 717Q8836 717 8820 730Q8793 712 8793 654Q8793 566 8894 566Q8905 566 8922.0 567.5Q8939 569 8962.0 573.0Q8985 577 9002.0 578.5Q9019 580 9030 580Q9112 580 9151 480Q9170 432 9184 363Q9200 292 9200 243Q9200 178 9176 120Q9144 43 9090 43Q9054 43 9056 66Q9058 83 9081 89Q9094 92 9094 103Q9094 107 9091 112Q9067 147 9034 147Q8972 147 8950 65Q8943 75 8943 234Q8943 254 8944.0 288.0Q8945 322 8947 370Q8948 414 8953 482Q8959 579 8959 536Q8959 558 8940 558H8845Q8819 558 8819 533Q8819 517 8820.0 494.5Q8821 472 8823.0 441.0Q8825 410 8826.0 387.5Q8827 365 8827 349Q8827 277 8823.0 197.5Q8819 118 8811 27Q8810 4 8806 -9Q8805 -8 8805 12Q8805 -1 8817 -1H8938Q8957 -1 8957 16Q8957 28 8966 18Q9000 -21 9060 -21Q9183 -21 9249 101Q9302 201 9302 334ZM9695 116Q9699 138 9682 138Q9673 138 9663 123Q9634 81 9579 81Q9521 81 9484 141Q9475 156 9488 168Q9519 194 9549.0 220.5Q9579 247 9610 273Q9691 349 9691 401Q9691 461 9651.5 492.0Q9612 523 9551 523Q9441 523 9384 412Q9339 325 9339 203Q9339 113 9384 49Q9433 -24 9519 -24Q9586 -24 9634.5 13.0Q9683 50 9695 116ZM9570 388Q9570 331 9518 276Q9482 237 9456 223Q9445 258 9445 303Q9445 354 9459 398Q9479 457 9522 457Q9545 457 9559 433Q9570 413 9570 388ZM10123 424Q10123 472 10095.5 503.0Q10068 534 10023 534Q9992 534 9969 517Q9943 497 9943 468Q9943 419 9970 419Q9972 419 9980.0 421.0Q9988 423 9991 423Q10035 423 10035 349Q10035 303 10013 250Q9999 218 9989.0 194.0Q9979 170 9972 154Q9967 143 9959 143Q9953 143 9947 153Q9874 277 9874 407Q9874 428 9874.5 441.5Q9875 455 9876 461Q9876 460 9881 478Q9887 494 9887 499Q9887 512 9869 512Q9803 513 9748 512Q9731 512 9731 494Q9731 495 9746 450Q9763 367 9774.0 317.0Q9785 267 9790 248Q9829 87 9892 11Q9909 -9 9924 -9Q9941 -9 9961 15Q10019 91 10069 210Q10123 339 10123 424ZM11230 295Q11233 306 11219 309Q11215 310 11210.0 310.5Q11205 311 11198 310Q11106 302 10997 310Q10977 311 10973 310Q10962 307 10965 295Q10971 266 10971 245Q10971 227 10966 210Q10965 209 10965 203Q10965 192 10985 194Q11103 206 11210 194Q11235 192 11229 210Q11218 249 11230 295ZM12584 218Q12584 245 12558 245Q12537 245 12532 228Q12520 179 12485.5 148.5Q12451 118 12403 118Q12306 118 12251 224Q12204 313 12204 416Q12204 509 12234 577Q12274 667 12356 667Q12381 667 12402.0 649.0Q12423 631 12423 607Q12423 576 12401.0 558.0Q12379 540 12345 540Q12326 540 12319.0 536.0Q12312 532 12312 514Q12312 473 12349 445Q12384 419 12425 419Q12503 419 12540 489Q12558 523 12558 575Q12558 648 12508 698Q12458 749 12385 749Q12225 749 12129 564Q12075 460 12075 320Q12075 244 12085 208Q12110 110 12171 49Q12238 -17 12334 -17Q12478 -17 12543 85Q12584 150 12584 218ZM12782 689Q12782 708 12771 708Q12765 708 12755 702Q12726 685 12697.5 672.0Q12669 659 12642 649Q12621 641 12621 631Q12621 625 12626 613Q12633 598 12638.0 575.5Q12643 553 12645 522Q12646 515 12646 483Q12646 451 12646 391Q12646 126 12634 32Q12630 1 12649 0Q12715 -1 12770 0Q12784 1 12780 38Q12772 107 12767.5 151.0Q12763 195 12764 214L12775 605Q12776 615 12776 620Q12776 626 12776 627Q12780 677 12782 689ZM13201 265Q13201 371 13159 448Q13108 541 13009 541Q12961 541 12930 522Q12891 499 12891 455Q12891 423 12921 410Q12822 357 12822 234Q12822 131 12864 67Q12913 -8 13010 -8Q13105 -8 13158 85Q13201 161 13201 265ZM13128 238Q13128 188 13104 154Q13077 116 13029 116Q12977 116 12948 166Q12923 207 12923 264Q12923 372 12998 383Q13009 385 13009 393Q13009 410 12977 418Q12991 426 13024 412Q13073 393 13102 341Q13128 294 13128 238ZM13614 25Q13598 89 13598 273Q13598 318 13601.5 368.5Q13605 419 13612 476Q13616 507 13597 508Q13537 511 13488 508Q13474 507 13478 470Q13482 438 13484.0 394.0Q13486 350 13486 294Q13486 250 13485.0 221.0Q13484 192 13482 178Q13478 141 13461 111Q13440 71 13410 71Q13377 71 13368 124Q13366 135 13365.0 159.5Q13364 184 13364 221Q13364 337 13370 429Q13370 431 13371.5 438.5Q13373 446 13375 458Q13381 482 13381 490Q13381 508 13359 508Q13275 510 13261 508Q13241 506 13241 489Q13241 476 13242.0 458.0Q13243 440 13245 416Q13247 393 13248.5 375.0Q13250 357 13250 346Q13250 335 13250 313Q13250 291 13249 258Q13248 228 13248 202Q13248 177 13247 157Q13246 135 13246 132Q13246 129 13246 145Q13246 -10 13370 -10Q13439 -10 13470 24Q13475 29 13478 29Q13481 29 13483 14Q13486 0 13505 0H13599Q13620 0 13614 25ZM14051 17Q14051 20 14046.0 38.0Q14041 56 14041 58Q14038 125 14038 119L14043 522Q14044 586 14046.0 622.5Q14048 659 14050 669Q14058 698 14042 698Q14036 698 14032 695L13968 665Q13914 639 13914 634Q13914 631 13920 615Q13933 579 13935 561Q13936 557 13936 505Q13936 491 13931 491Q13928 491 13922 497Q13899 519 13886 527Q13869 536 13839 536Q13750 536 13697 444Q13653 367 13653 270Q13653 -5 13800 -5Q13863 -5 13911 46Q13918 55 13925 55Q13929 55 13929 46Q13928 -5 13926 9Q13941 1 13951 0Q13985 -1 14034 0Q14051 2 14051 17ZM13940 297Q13940 82 13867 78Q13811 75 13786 156Q13769 213 13769 280Q13769 357 13783 390Q13793 411 13798.5 423.0Q13804 435 13806 438Q13826 467 13858 467Q13902 467 13924 400Q13940 355 13940 297Z" fill="#a6adc8" transform="translate(238.86,162) scale(0.03000,-0.03000)"/>
  <rect x="270" y="186" width="360" height="3" rx="1.5" fill="url(#rule)"/>
</svg>