<svg xmlns="http://www.w3.org/2000/svg" viewBox="0 0 900 70" width="900" height="70">
  <rect x="1" y="1" width="898" height="68" rx="16" fill="#181825" stroke="#313244" stroke-width="1.5"/>
  <rect x="26" y="18" width="7" height="34" rx="3.5" fill="#fab387"/>
  <path d="M503 504Q502 609 449 671Q393 736 289 736Q261 736 208 726Q152 717 125 718Q99 719 80.5 721.0Q62 723 49 726Q40 728 34.0 719.5Q28 711 29 700Q47 520 47 398Q47 249 35 132Q34 127 32.5 112.5Q31 98 27 74Q21 39 21 16Q21 0 49 0H161Q202 0 197 20Q169 145 169 270Q169 285 171.0 307.0Q173 329 177 358Q211 270 317 270Q405 270 457 346Q504 415 503 504ZM371 460Q371 388 343 356Q332 344 319 344Q291 344 291 382Q291 411 317 434Q293 466 253 466Q207 466 177 414V502Q177 586 192 621Q211 667 265 664Q331 661 349 596Q371 521 371 460ZM833 486Q833 520 781 520Q722 520 681 476Q676 471 673 471Q668 471 668 483Q668 507 646 508Q631 509 556 508Q534 508 541 483Q563 414 563 235Q563 190 559.5 139.5Q556 89 549 32Q545 2 560 0Q604 -2 669 0Q681 2 682 15L679 38Q675 69 673.0 112.5Q671 156 671 214Q671 311 675 330Q690 411 717 411Q736 411 746 401L771 367Q784 349 791 349Q799 349 803 368Q809 388 813.5 402.5Q818 417 821 427Q833 466 833 486ZM1243 265Q1243 371 1201 448Q1150 541 1051 541Q1003 541 972 522Q933 499 933 455Q933 423 963 410Q864 357 864 234Q864 131 906 67Q955 -8 1052 -8Q1147 -8 1200 85Q1243 161 1243 265ZM1170 238Q1170 188 1146 154Q1119 116 1071 116Q1019 116 990 166Q965 207 965 264Q965 372 1040 383Q1051 385 1051 393Q1051 410 1019 418Q1033 426 1066 412Q1115 393 1144 341Q1170 294 1170 238ZM1422 621Q1421 647 1402.0 666.0Q1383 685 1357.0 684.0Q1331 683 1312.0 664.0Q1293 645 1294.0 619.0Q1295 593 1314.0 574.0Q1333 555 1359.0 556.0Q1385 557 1404.0 576.0Q1423 595 1422 621ZM1423 -104 1413 46Q1411 76 1410.0 134.0Q1409 192 1409 280Q1409 403 1419 462Q1426 510 1403 510H1309Q1288 510 1288 489Q1288 482 1289 478Q1292 463 1294.0 404.0Q1296 345 1297 240L1299 58Q1299 37 1313 -8Q1331 -65 1357 -100Q1364 -108 1364 -117Q1364 -137 1341 -132Q1324 -121 1319 -114Q1310 -108 1301 -108Q1279 -108 1279 -134V-180Q1279 -188 1288.5 -195.0Q1298 -202 1307 -202H1359Q1392 -202 1410 -168Q1425 -140 1423 -104ZM1817 116Q1821 138 1804 138Q1795 138 1785 123Q1756 81 1701 81Q1643 81 1606 141Q1597 156 1610 168Q1641 194 1671.0 220.5Q1701 247 1732 273Q1813 349 1813 401Q1813 461 1773.5 492.0Q1734 523 1673 523Q1563 523 1506 412Q1461 325 1461 203Q1461 113 1506 49Q1555 -24 1641 -24Q1708 -24 1756.5 13.0Q1805 50 1817 116ZM1692 388Q1692 331 1640 276Q1604 237 1578 223Q1567 258 1567 303Q1567 354 1581 398Q1601 457 1644 457Q1667 457 1681 433Q1692 413 1692 388ZM2201 128Q2201 140 2193 140Q2183 140 2171 123Q2145 85 2093 85Q2020 85 1986 170Q1961 230 1961 318Q1961 375 1982 419Q2008 475 2059 475Q2088 475 2088 458Q2088 465 2064 431Q2041 396 2041 377Q2041 350 2057 330L2095 292Q2102 285 2109 285Q2119 285 2118 303Q2115 329 2134 342Q2185 379 2185 424Q2185 469 2146 498Q2111 524 2063 524Q1958 524 1902 420Q1856 337 1856 222Q1856 118 1896 54Q1944 -23 2042 -23Q2104 -23 2144 14Q2154 24 2164.5 38.0Q2175 52 2183.0 68.0Q2191 84 2196.0 99.5Q2201 115 2201 128ZM2462 486Q2462 503 2448 508Q2443 509 2436.0 509.5Q2429 510 2420 510H2403Q2403 576 2406 588Q2409 615 2411.0 633.0Q2413 651 2414 659Q2414 673 2405 673Q2399 673 2389 667Q2352 647 2322.0 633.0Q2292 619 2267 611Q2254 607 2254 596Q2254 588 2260 578Q2276 550 2280 510H2272Q2233 510 2233 486Q2233 467 2271 467H2284Q2285 459 2285 440Q2285 422 2285 391Q2285 280 2280.5 190.5Q2276 101 2268 32Q2264 1 2283 0Q2349 -1 2404 0Q2418 1 2414 38Q2406 103 2401.5 147.0Q2397 191 2398 214L2402 467H2419Q2462 467 2462 486ZM2846 132Q2846 212 2797 257Q2764 287 2679 319Q2608 344 2595 352Q2552 374 2552 408Q2552 424 2564.0 435.0Q2576 446 2593 446Q2611 446 2660 421Q2710 396 2738 396Q2804 396 2804 464Q2804 484 2796 495Q2786 510 2767 502Q2753 496 2731 496Q2715 496 2677.0 504.0Q2639 512 2623 512Q2595 512 2571.5 502.0Q2548 492 2531.5 475.0Q2515 458 2506.0 433.5Q2497 409 2497 381Q2497 311 2529.5 270.0Q2562 229 2625 208L2739 169Q2792 143 2792 110Q2792 75 2746 75Q2724 75 2668.0 100.0Q2612 125 2581 125Q2542 125 2519.0 103.0Q2496 81 2496 43Q2496 -3 2517 -3Q2522 -3 2524 -2Q2536 4 2548.0 10.0Q2560 16 2582 16Q2602 16 2651.0 5.0Q2700 -6 2722 -6Q2780 -6 2814 34Q2846 72 2846 132Z" fill="#fab387" transform="translate(51.00,54.46) scale(0.04000,-0.04000)"/>
  <circle cx="842" cy="35" r="3.5" fill="#45475a"/>
  <circle cx="856" cy="35" r="3.5" fill="#fab387" opacity="0.5"/>
  <circle cx="870" cy="35" r="3.5" fill="#fab387"/>
</svg>