<svg xmlns="http://www.w3.org/2000/svg" viewBox="0 0 900 68" width="900" height="68">
  <defs>
    <linearGradient id="g" x1="0%" y1="0%" x2="100%" y2="0%">
      <stop offset="0%" stop-color="#FF6B35"/>
      <stop offset="100%" stop-color="#FF9F1C"/>
    </linearGradient>
  </defs>
  <rect width="900" height="68" rx="12" fill="url(#g)"/>
  <path d="M409.10200000000003 23.824Q409.05800000000005 19.204 406.726 16.476000000000003Q404.262 13.616 399.68600000000004 13.616Q398.454 13.616 396.122 14.056000000000001Q393.658 14.452000000000002 392.47 14.408000000000001Q391.326 14.364 390.51200000000006 14.276000000000002Q389.69800000000004 14.188000000000002 389.12600000000003 14.056000000000001Q388.73 13.968000000000004 388.466 14.342000000000002Q388.20200000000006 14.716000000000001 388.24600000000004 15.200000000000003Q389.038 23.12 389.038 28.488Q389.038 35.044 388.51000000000005 40.192Q388.466 40.412 388.4 41.05Q388.334 41.688 388.158 42.744Q387.894 44.284 387.894 45.296Q387.894 46.0 389.12600000000003 46.0H394.05400000000003Q395.858 46.0 395.63800000000003 45.12Q394.406 39.62 394.406 34.120000000000005Q394.406 33.46 394.494 32.492000000000004Q394.58200000000005 31.524 394.75800000000004 30.248Q396.254 34.120000000000005 400.918 34.120000000000005Q404.79 34.120000000000005 407.07800000000003 30.776000000000003Q409.146 27.740000000000002 409.10200000000003 23.824ZM403.29400000000004 25.76Q403.29400000000004 28.928 402.062 30.336Q401.57800000000003 30.864 401.00600000000003 30.864Q399.774 30.864 399.774 29.192Q399.774 27.916 400.918 26.904Q399.862 25.496000000000002 398.10200000000003 25.496000000000002Q396.07800000000003 25.496000000000002 394.75800000000004 27.784000000000002V23.912000000000003Q394.75800000000004 20.216 395.418 18.676000000000002Q396.254 16.652 398.63000000000005 16.784000000000002Q401.53400000000005 16.916 402.326 19.776Q403.29400000000004 23.076 403.29400000000004 25.76Z" fill="white"/>
  <path d="M423.622 24.616Q423.622 23.12 421.334 23.12Q418.738 23.12 416.934 25.056Q416.714 25.276 416.582 25.276Q416.362 25.276 416.362 24.748Q416.362 23.692 415.394 23.648Q414.73400000000004 23.604000000000003 411.434 23.648Q410.466 23.648 410.774 24.748Q411.742 27.784000000000002 411.742 35.66Q411.742 37.64 411.588 39.862Q411.434 42.084 411.12600000000003 44.592Q410.95000000000005 45.912 411.61 46.0Q413.546 46.088 416.406 46.0Q416.934 45.912 416.978 45.34L416.846 44.328Q416.67 42.964 416.582 41.05Q416.494 39.136 416.494 36.584Q416.494 32.316 416.67 31.48Q417.33000000000004 27.916 418.51800000000003 27.916Q419.35400000000004 27.916 419.79400000000004 28.356L420.894 29.852Q421.466 30.644 421.774 30.644Q422.12600000000003 30.644 422.302 29.808Q422.56600000000003 28.928 422.764 28.29Q422.962 27.652 423.094 27.212Q423.622 25.496000000000002 423.622 24.616Z" fill="white"/>
  <path d="M441.66200000000003 34.34Q441.66200000000003 29.676000000000002 439.814 26.288Q437.57 22.196 433.214 22.196Q431.10200000000003 22.196 429.738 23.032Q428.022 24.044 428.022 25.98Q428.022 27.388 429.34200000000004 27.96Q424.986 30.292 424.986 35.704Q424.986 40.236000000000004 426.834 43.052Q428.99 46.352 433.25800000000004 46.352Q437.438 46.352 439.77000000000004 42.26Q441.66200000000003 38.916 441.66200000000003 34.34ZM438.45 35.528Q438.45 37.728 437.394 39.224000000000004Q436.206 40.896 434.094 40.896Q431.80600000000004 40.896 430.53000000000003 38.696Q429.43 36.892 429.43 34.384Q429.43 29.632 432.73 29.148Q433.214 29.060000000000002 433.214 28.708000000000002Q433.214 27.96 431.80600000000004 27.608Q432.422 27.256 433.874 27.872Q436.03000000000003 28.708000000000002 437.30600000000004 30.996000000000002Q438.45 33.064 438.45 35.528Z" fill="white"/>
  <path d="M449.538 18.676000000000002Q449.49399999999997 17.532 448.658 16.696Q447.822 15.860000000000003 446.678 15.904000000000002Q445.534 15.948 444.698 16.784Q443.86199999999997 17.62 443.90599999999995 18.764000000000003Q443.95 19.908 444.786 20.744Q445.622 21.580000000000002 446.76599999999996 21.536Q447.90999999999997 21.492 448.746 20.656Q449.582 19.82 449.538 18.676000000000002ZM449.582 50.576 449.142 43.976Q449.054 42.656 449.01 40.104Q448.966 37.552 448.966 33.68Q448.966 28.268 449.406 25.672Q449.714 23.560000000000002 448.702 23.560000000000002H444.566Q443.642 23.560000000000002 443.642 24.484Q443.642 24.792 443.686 24.968Q443.818 25.628 443.90599999999995 28.224Q443.99399999999997 30.82 444.038 35.44L444.126 43.448Q444.126 44.372 444.74199999999996 46.352Q445.534 48.86 446.678 50.4Q446.986 50.752 446.986 51.147999999999996Q446.986 52.028 445.974 51.808Q445.226 51.324 445.006 51.016Q444.61 50.752 444.214 50.752Q443.246 50.752 443.246 51.896V53.92Q443.246 54.272 443.664 54.58Q444.082 54.888 444.478 54.888H446.76599999999996Q448.218 54.888 449.01 53.391999999999996Q449.67 52.16 449.582 50.576Z" fill="white"/>
  <path d="M466.918 40.896Q467.094 39.928 466.346 39.928Q465.95 39.928 465.51 40.588Q464.234 42.436 461.81399999999996 42.436Q459.262 42.436 457.634 39.796Q457.238 39.136 457.81 38.608000000000004Q459.174 37.464 460.49399999999997 36.298Q461.81399999999996 35.132000000000005 463.178 33.988Q466.74199999999996 30.644 466.74199999999996 28.356Q466.74199999999996 25.716 465.00399999999996 24.352000000000004Q463.26599999999996 22.988000000000003 460.582 22.988000000000003Q455.74199999999996 22.988000000000003 453.234 27.872Q451.25399999999996 31.700000000000003 451.25399999999996 37.068Q451.25399999999996 41.028 453.234 43.844Q455.39 47.056 459.174 47.056Q462.122 47.056 464.256 45.428Q466.39 43.8 466.918 40.896ZM461.418 28.928Q461.418 31.436 459.13 33.856Q457.546 35.572 456.402 36.188Q455.918 34.648 455.918 32.668Q455.918 30.424 456.534 28.488Q457.414 25.892 459.306 25.892Q460.318 25.892 460.93399999999997 26.948Q461.418 27.828 461.418 28.928Z" fill="white"/>
  <path d="M483.81399999999996 40.368Q483.81399999999996 39.84 483.462 39.84Q483.022 39.84 482.49399999999997 40.588Q481.34999999999997 42.26 479.062 42.26Q475.84999999999997 42.26 474.354 38.52Q473.25399999999996 35.88 473.25399999999996 32.008Q473.25399999999996 29.5 474.178 27.564Q475.322 25.1 477.566 25.1Q478.842 25.1 478.842 25.848000000000003Q478.842 25.540000000000003 477.786 27.036Q476.774 28.576 476.774 29.412000000000003Q476.774 30.6 477.478 31.48L479.15 33.152Q479.45799999999997 33.46 479.76599999999996 33.46Q480.20599999999996 33.46 480.162 32.668Q480.03 31.524 480.866 30.952Q483.10999999999996 29.324 483.10999999999996 27.344Q483.10999999999996 25.364 481.394 24.088Q479.854 22.944000000000003 477.74199999999996 22.944000000000003Q473.12199999999996 22.944000000000003 470.65799999999996 27.52Q468.63399999999996 31.172 468.63399999999996 36.232Q468.63399999999996 40.808 470.394 43.624Q472.506 47.012 476.818 47.012Q479.546 47.012 481.306 45.384Q481.746 44.944 482.20799999999997 44.328Q482.66999999999996 43.712 483.02199999999993 43.008Q483.37399999999997 42.304 483.59399999999994 41.622Q483.81399999999996 40.94 483.81399999999996 40.368Z" fill="white"/>
  <path d="M495.298 24.616Q495.298 23.868000000000002 494.682 23.648Q494.462 23.604000000000003 494.154 23.582Q493.846 23.560000000000002 493.45 23.560000000000002H492.702Q492.702 20.656000000000002 492.834 20.128Q492.966 18.94 493.054 18.148000000000003Q493.142 17.356 493.186 17.004Q493.186 16.388 492.79 16.388Q492.526 16.388 492.086 16.652Q490.45799999999997 17.532 489.138 18.148000000000003Q487.818 18.764000000000003 486.718 19.116000000000003Q486.146 19.292 486.146 19.776Q486.146 20.128 486.40999999999997 20.568Q487.114 21.8 487.29 23.560000000000002H486.938Q485.222 23.560000000000002 485.222 24.616Q485.222 25.452 486.894 25.452H487.466Q487.51 25.804000000000002 487.51 26.64Q487.51 27.432000000000002 487.51 28.796Q487.51 33.68 487.312 37.617999999999995Q487.114 41.556 486.762 44.592Q486.586 45.956 487.42199999999997 46.0Q490.326 46.044 492.746 46.0Q493.36199999999997 45.956 493.186 44.328Q492.834 41.468 492.63599999999997 39.532000000000004Q492.438 37.596000000000004 492.48199999999997 36.584L492.658 25.452H493.406Q495.298 25.452 495.298 24.616Z" fill="white"/>
  <path d="M512.194 40.192Q512.194 36.672 510.038 34.692Q508.586 33.372 504.846 31.964Q501.722 30.864 501.15 30.512Q499.258 29.544 499.258 28.048000000000002Q499.258 27.344 499.78599999999994 26.86Q500.31399999999996 26.376 501.062 26.376Q501.854 26.376 504.01 27.476000000000003Q506.21 28.576 507.442 28.576Q510.346 28.576 510.346 25.584Q510.346 24.704 509.99399999999997 24.220000000000002Q509.554 23.560000000000002 508.71799999999996 23.912000000000003Q508.102 24.176000000000002 507.134 24.176000000000002Q506.43 24.176000000000002 504.75800000000004 23.824Q503.086 23.472 502.382 23.472Q501.15 23.472 500.116 23.912Q499.082 24.352 498.356 25.1Q497.63 25.848000000000003 497.234 26.926000000000002Q496.83799999999997 28.004 496.83799999999997 29.236Q496.83799999999997 32.316 498.268 34.120000000000005Q499.698 35.924 502.46999999999997 36.848L507.486 38.564Q509.818 39.708 509.818 41.16Q509.818 42.7 507.794 42.7Q506.82599999999996 42.7 504.36199999999997 41.6Q501.89799999999997 40.5 500.534 40.5Q498.818 40.5 497.806 41.468Q496.794 42.436 496.794 44.108Q496.794 46.132 497.71799999999996 46.132Q497.938 46.132 498.026 46.088Q498.554 45.824 499.082 45.56Q499.61 45.296 500.578 45.296Q501.45799999999997 45.296 503.614 45.78Q505.77 46.264 506.738 46.264Q509.28999999999996 46.264 510.786 44.504Q512.194 42.832 512.194 40.192Z" fill="white"/>
</svg>