<svg xmlns="http://www.w3.org/2000/svg" viewBox="0 0 900 70" width="900" height="70">
  <rect x="1" y="1" width="898" height="68" rx="16" fill="#181825" stroke="#313244" stroke-width="1.5"/>
  <rect x="26" y="18" width="7" height="34" rx="3.5" fill="#fab387"/>
  <path d="M528 209Q528 391 341 446Q282 463 242.0 474.5Q202 486 179 493Q96 519 96 580Q96 604 114.5 621.5Q133 639 158 639Q178 639 247.0 605.0Q316 571 355 571Q376 571 395.0 577.5Q414 584 428.5 596.0Q443 608 451.5 624.5Q460 641 460 662Q460 705 435 724Q427 732 415 724Q395 711 364 711Q350 711 330.5 714.0Q311 717 285 722Q232 734 207 734Q126 734 77 676Q28 620 28 537Q28 358 259 295Q457 241 457 153Q457 122 436.0 101.0Q415 80 384 80Q358 80 270 125Q181 170 140 170Q102 170 72 152Q19 120 21 65Q23 19 56 -7Q66 -17 84 -5Q119 18 160 18Q191 18 250 0Q312 -17 341 -17Q428 -17 481 54Q528 119 528 209ZM789 486Q789 503 775 508Q770 509 763.0 509.5Q756 510 747 510H730Q730 576 733 588Q736 615 738.0 633.0Q740 651 741 659Q741 673 732 673Q726 673 716 667Q679 647 649.0 633.0Q619 619 594 611Q581 607 581 596Q581 588 587 578Q603 550 607 510H599Q560 510 560 486Q560 467 598 467H611Q612 459 612 440Q612 422 612 391Q612 280 607.5 190.5Q603 101 595 32Q591 1 610 0Q676 -1 731 0Q745 1 741 38Q733 103 728.5 147.0Q724 191 725 214L729 467H746Q789 467 789 486ZM1205 23Q1198 75 1195.0 136.0Q1192 197 1192 269Q1192 321 1193.5 375.0Q1195 429 1199 486Q1200 499 1190 504Q1180 508 1167 504Q1142 499 1113 499Q1089 499 1043 505Q996 511 973 511Q847 511 847 421Q847 388 869.5 368.0Q892 348 926 348Q945 348 966.5 362.0Q988 376 995 393Q1005 417 990 426Q976 434 990 448Q995 453 1014 453Q1068 453 1077 383V343Q1066 338 1051.0 334.5Q1036 331 1017 329Q931 322 879 276Q822 226 822 142Q822 -14 953 -14Q1022 -14 1068 23Q1078 32 1080 18Q1081 -1 1113 -1H1156Q1159 0 1159 0Q1208 0 1205 23ZM1081 254Q1081 199 1078 135Q1077 110 1050 86Q1024 62 999 62Q946 62 946 150Q946 219 977 244Q985 251 1005.0 259.5Q1025 268 1057 278Q1065 280 1069 280Q1081 280 1081 254ZM1471 486Q1471 503 1457 508Q1452 509 1445.0 509.5Q1438 510 1429 510H1412Q1412 576 1415 588Q1418 615 1420.0 633.0Q1422 651 1423 659Q1423 673 1414 673Q1408 673 1398 667Q1361 647 1331.0 633.0Q1301 619 1276 611Q1263 607 1263 596Q1263 588 1269 578Q1285 550 1289 510H1281Q1242 510 1242 486Q1242 467 1280 467H1293Q1294 459 1294 440Q1294 422 1294 391Q1294 280 1289.5 190.5Q1285 101 1277 32Q1273 1 1292 0Q1358 -1 1413 0Q1427 1 1423 38Q1415 103 1410.5 147.0Q1406 191 1407 214L1411 467H1428Q1471 467 1471 486ZM1855 132Q1855 212 1806 257Q1773 287 1688 319Q1617 344 1604 352Q1561 374 1561 408Q1561 424 1573.0 435.0Q1585 446 1602 446Q1620 446 1669 421Q1719 396 1747 396Q1813 396 1813 464Q1813 484 1805 495Q1795 510 1776 502Q1762 496 1740 496Q1724 496 1686.0 504.0Q1648 512 1632 512Q1604 512 1580.5 502.0Q1557 492 1540.5 475.0Q1524 458 1515.0 433.5Q1506 409 1506 381Q1506 311 1538.5 270.0Q1571 229 1634 208L1748 169Q1801 143 1801 110Q1801 75 1755 75Q1733 75 1677.0 100.0Q1621 125 1590 125Q1551 125 1528.0 103.0Q1505 81 1505 43Q1505 -3 1526 -3Q1531 -3 1533 -2Q1545 4 1557.0 10.0Q1569 16 1591 16Q1611 16 1660.0 5.0Q1709 -6 1731 -6Q1789 -6 1823 34Q1855 72 1855 132Z" fill="#fab387" transform="translate(51.00,54.46) scale(0.04000,-0.04000)"/>
  <circle cx="842" cy="35" r="3.5" fill="#45475a"/>
  <circle cx="856" cy="35" r="3.5" fill="#fab387" opacity="0.5"/>
  <circle cx="870" cy="35" r="3.5" fill="#fab387"/>
</svg>