<svg xmlns="http://www.w3.org/2000/svg" viewBox="0 0 900 70" width="900" height="70">
  <rect x="1" y="1" width="898" height="68" rx="16" fill="#181825" stroke="#313244" stroke-width="1.5"/>
  <rect x="26" y="18" width="7" height="34" rx="3.5" fill="#fab387"/>
  <path d="M534 201Q534 280 498 342Q454 416 381 416Q342 416 311 392Q279 368 279 331Q279 288 324 258Q334 251 344 258Q355 263 356 275Q360 302 393 302Q421 302 439.5 279.0Q458 256 458 225Q458 174 419 141Q381 108 329 108Q253 108 208 178Q169 239 169 318Q169 391 198.5 460.5Q228 530 282 581Q298 597 313 597Q318 597 329 594Q368 583 403 583Q452 583 487 611Q527 641 524 688Q522 722 506 739Q497 748 482 740Q459 727 437 727Q426 727 408.0 728.5Q390 730 367 732Q320 738 299 738Q106 738 42 638Q18 600 18 586Q18 561 41 561Q52 561 63 572Q118 627 175 627Q195 627 209 621Q224 615 207 604Q124 548 75 461Q23 370 23 274Q23 151 91 65Q164 -28 286 -23Q389 -18 458 39Q534 103 534 201ZM928 116Q932 138 915 138Q906 138 896 123Q867 81 812 81Q754 81 717 141Q708 156 721 168Q752 194 782.0 220.5Q812 247 843 273Q924 349 924 401Q924 461 884.5 492.0Q845 523 784 523Q674 523 617 412Q572 325 572 203Q572 113 617 49Q666 -24 752 -24Q819 -24 867.5 13.0Q916 50 928 116ZM803 388Q803 331 751 276Q715 237 689 223Q678 258 678 303Q678 354 692 398Q712 457 755 457Q778 457 792 433Q803 413 803 388ZM1312 128Q1312 140 1304 140Q1294 140 1282 123Q1256 85 1204 85Q1131 85 1097 170Q1072 230 1072 318Q1072 375 1093 419Q1119 475 1170 475Q1199 475 1199 458Q1199 465 1175 431Q1152 396 1152 377Q1152 350 1168 330L1206 292Q1213 285 1220 285Q1230 285 1229 303Q1226 329 1245 342Q1296 379 1296 424Q1296 469 1257 498Q1222 524 1174 524Q1069 524 1013 420Q967 337 967 222Q967 118 1007 54Q1055 -23 1153 -23Q1215 -23 1255 14Q1265 24 1275.5 38.0Q1286 52 1294.0 68.0Q1302 84 1307.0 99.5Q1312 115 1312 128ZM1740 19Q1740 31 1738.5 49.0Q1737 67 1735 90Q1733 114 1732.0 132.0Q1731 150 1731 162L1733 262Q1734 304 1734.5 329.0Q1735 354 1735 363Q1736 526 1607 526Q1545 526 1511 486Q1506 480 1501 480Q1494 480 1496 491L1499 546Q1500 565 1500.5 587.0Q1501 609 1501 635Q1501 702 1492 698Q1445 673 1413.0 656.5Q1381 640 1364 630Q1346 618 1357 597Q1365 581 1370.0 560.5Q1375 540 1377 514Q1378 501 1378.5 470.5Q1379 440 1379 391Q1379 319 1372.5 230.0Q1366 141 1353 32Q1349 1 1368 0Q1434 -1 1489 0Q1503 1 1499 38Q1495 70 1493.0 114.0Q1491 158 1491 214Q1491 307 1495 330Q1512 437 1571 437Q1624 437 1617 289L1607 81Q1607 79 1606.0 71.5Q1605 64 1603.0 52.0Q1601 40 1600.0 32.0Q1599 24 1599 20Q1599 0 1622 0H1720Q1740 0 1740 19ZM2153 19Q2153 29 2152 31Q2146 61 2144.5 96.0Q2143 131 2142 162Q2141 182 2141.5 207.0Q2142 232 2143 264Q2146 343 2146 365Q2147 442 2126 477Q2099 520 2024 520Q1955 520 1924 484Q1919 479 1916 479Q1911 479 1911 492Q1911 507 1889 508Q1874 509 1799 508Q1778 508 1784 483Q1794 443 1794 235Q1794 190 1790.5 139.5Q1787 89 1780 32Q1776 2 1791 0Q1835 -2 1900 0Q1912 2 1913 15L1910 38Q1906 69 1904.0 112.5Q1902 156 1902 214Q1902 260 1903.0 289.0Q1904 318 1906 330Q1912 368 1933 400Q1958 439 1992 439Q2025 439 2033 386Q2035 371 2035.5 346.5Q2036 322 2034 287L2024 79Q2024 73 2018 49Q2013 24 2013 18Q2013 0 2035 0H2133Q2153 0 2153 19ZM2571 265Q2571 371 2529 448Q2478 541 2379 541Q2331 541 2300 522Q2261 499 2261 455Q2261 423 2291 410Q2192 357 2192 234Q2192 131 2234 67Q2283 -8 2380 -8Q2475 -8 2528 85Q2571 161 2571 265ZM2498 238Q2498 188 2474 154Q2447 116 2399 116Q2347 116 2318 166Q2293 207 2293 264Q2293 372 2368 383Q2379 385 2379 393Q2379 410 2347 418Q2361 426 2394 412Q2443 393 2472 341Q2498 294 2498 238ZM2768 689Q2768 708 2757 708Q2751 708 2741 702Q2712 685 2683.5 672.0Q2655 659 2628 649Q2607 641 2607 631Q2607 625 2612 613Q2619 598 2624.0 575.5Q2629 553 2631 522Q2632 515 2632 483Q2632 451 2632 391Q2632 126 2620 32Q2616 1 2635 0Q2701 -1 2756 0Q2770 1 2766 38Q2758 107 2753.5 151.0Q2749 195 2750 214L2761 605Q2762 615 2762 620Q2762 626 2762 627Q2766 677 2768 689ZM3187 265Q3187 371 3145 448Q3094 541 2995 541Q2947 541 2916 522Q2877 499 2877 455Q2877 423 2907 410Q2808 357 2808 234Q2808 131 2850 67Q2899 -8 2996 -8Q3091 -8 3144 85Q3187 161 3187 265ZM3114 238Q3114 188 3090 154Q3063 116 3015 116Q2963 116 2934 166Q2909 207 2909 264Q2909 372 2984 383Q2995 385 2995 393Q2995 410 2963 418Q2977 426 3010 412Q3059 393 3088 341Q3114 294 3114 238ZM3629 462Q3629 470 3609 476Q3602 478 3595.0 479.0Q3588 480 3581 482Q3558 493 3541.5 500.5Q3525 508 3517 512Q3478 524 3447 524Q3341 522 3280 433Q3227 354 3225 244Q3223 85 3335 12Q3350 1 3350 -5Q3350 -11 3323 -36Q3264 -92 3257 -96Q3239 -110 3239 -121Q3239 -131 3253 -148Q3311 -220 3399 -220Q3499 -220 3561 -136Q3617 -60 3617 42Q3617 64 3614.5 96.5Q3612 129 3607.0 174.0Q3602 219 3599.5 251.5Q3597 284 3597 306Q3597 379 3621 438Q3629 459 3629 462ZM3491 125Q3491 95 3458 95Q3408 95 3366 195Q3330 280 3330 339Q3330 380 3347 411Q3368 448 3407 448Q3429 448 3449 434Q3452 432 3482 404Q3482 384 3479 344Q3478 324 3477.5 309.0Q3477 294 3477 284Q3477 270 3478.5 250.0Q3480 230 3484.0 204.0Q3488 178 3489.5 158.5Q3491 139 3491 125ZM3524 -51Q3524 -87 3498.0 -116.0Q3472 -145 3438 -145Q3414 -145 3384 -114Q3353 -84 3361 -67Q3362 -66 3362.5 -65.0Q3363 -64 3364 -63Q3395 -35 3425.5 -8.5Q3456 18 3487 44Q3501 55 3505 55Q3511 55 3513 49Q3524 19 3524 -51ZM3808 621Q3807 647 3788.0 666.0Q3769 685 3743.0 684.0Q3717 683 3698.0 664.0Q3679 645 3680.0 619.0Q3681 593 3700.0 574.0Q3719 555 3745.0 556.0Q3771 557 3790.0 576.0Q3809 595 3808 621ZM3801 462Q3808 510 3785 510H3697Q3676 510 3676 488Q3676 482 3677 478Q3683 446 3683 240Q3683 183 3679.5 131.5Q3676 80 3669 32Q3664 0 3689 0H3732H3757H3775Q3802 0 3799 46Q3794 127 3791.5 185.0Q3789 243 3789 280Q3789 387 3801 462ZM4203 116Q4207 138 4190 138Q4181 138 4171 123Q4142 81 4087 81Q4029 81 3992 141Q3983 156 3996 168Q4027 194 4057.0 220.5Q4087 247 4118 273Q4199 349 4199 401Q4199 461 4159.5 492.0Q4120 523 4059 523Q3949 523 3892 412Q3847 325 3847 203Q3847 113 3892 49Q3941 -24 4027 -24Q4094 -24 4142.5 13.0Q4191 50 4203 116ZM4078 388Q4078 331 4026 276Q3990 237 3964 223Q3953 258 3953 303Q3953 354 3967 398Q3987 457 4030 457Q4053 457 4067 433Q4078 413 4078 388ZM4594 132Q4594 212 4545 257Q4512 287 4427 319Q4356 344 4343 352Q4300 374 4300 408Q4300 424 4312.0 435.0Q4324 446 4341 446Q4359 446 4408 421Q4458 396 4486 396Q4552 396 4552 464Q4552 484 4544 495Q4534 510 4515 502Q4501 496 4479 496Q4463 496 4425.0 504.0Q4387 512 4371 512Q4343 512 4319.5 502.0Q4296 492 4279.5 475.0Q4263 458 4254.0 433.5Q4245 409 4245 381Q4245 311 4277.5 270.0Q4310 229 4373 208L4487 169Q4540 143 4540 110Q4540 75 4494 75Q4472 75 4416.0 100.0Q4360 125 4329 125Q4290 125 4267.0 103.0Q4244 81 4244 43Q4244 -3 4265 -3Q4270 -3 4272 -2Q4284 4 4296.0 10.0Q4308 16 4330 16Q4350 16 4399.0 5.0Q4448 -6 4470 -6Q4528 -6 4562 34Q4594 72 4594 132Z" fill="#fab387" transform="translate(51.00,54.46) scale(0.04000,-0.04000)"/>
  <circle cx="842" cy="35" r="3.5" fill="#45475a"/>
  <circle cx="856" cy="35" r="3.5" fill="#fab387" opacity="0.5"/>
  <circle cx="870" cy="35" r="3.5" fill="#fab387"/>
</svg>