<svg xmlns="http://www.w3.org/2000/svg" viewBox="0 0 900 68" width="900" height="68">
  <defs>
    <linearGradient id="g" x1="0%" y1="0%" x2="100%" y2="0%">
      <stop offset="0%" stop-color="#FF6B35"/>
      <stop offset="100%" stop-color="#FF9F1C"/>
    </linearGradient>
  </defs>
  <rect width="900" height="68" rx="12" fill="url(#g)"/>
  <path d="M372.01 37.156Q372.01 33.68 370.426 30.952Q368.49 27.696 365.278 27.696Q363.562 27.696 362.19800000000004 28.752000000000002Q360.79 29.808 360.79 31.436Q360.79 33.328 362.77 34.648Q363.21000000000004 34.956 363.65000000000003 34.648Q364.134 34.428 364.178 33.9Q364.354 32.712 365.806 32.712Q367.038 32.712 367.852 33.724000000000004Q368.666 34.736000000000004 368.666 36.1Q368.666 38.344 366.95 39.796Q365.278 41.248 362.99 41.248Q359.646 41.248 357.666 38.168Q355.95 35.484 355.95 32.008Q355.95 28.796 357.248 25.738Q358.546 22.68 360.922 20.436Q361.62600000000003 19.732000000000003 362.286 19.732000000000003Q362.50600000000003 19.732000000000003 362.99 19.864Q364.706 20.348000000000003 366.246 20.348000000000003Q368.402 20.348000000000003 369.942 19.116000000000003Q371.702 17.796000000000003 371.57 15.728000000000002Q371.482 14.232000000000003 370.778 13.484000000000002Q370.382 13.088000000000001 369.722 13.440000000000005Q368.71000000000004 14.012 367.742 14.012Q367.25800000000004 14.012 366.466 13.946000000000002Q365.67400000000004 13.880000000000003 364.66200000000003 13.792000000000002Q362.594 13.527999999999999 361.67 13.527999999999999Q353.178 13.527999999999999 350.362 17.928Q349.306 19.6 349.306 20.216Q349.306 21.316000000000003 350.318 21.316000000000003Q350.802 21.316000000000003 351.286 20.832Q353.706 18.412000000000003 356.214 18.412000000000003Q357.094 18.412000000000003 357.71000000000004 18.676000000000002Q358.37 18.94 357.622 19.424000000000003Q353.97 21.888 351.814 25.716Q349.526 29.720000000000002 349.526 33.944Q349.526 39.356 352.51800000000003 43.14Q355.73 47.232 361.098 47.012Q365.63 46.792 368.666 44.284Q372.01 41.468 372.01 37.156Z" fill="white"/>
  <path d="M389.346 40.896Q389.522 39.928 388.774 39.928Q388.378 39.928 387.938 40.588Q386.662 42.436 384.24199999999996 42.436Q381.69 42.436 380.062 39.796Q379.666 39.136 380.238 38.608000000000004Q381.602 37.464 382.92199999999997 36.298Q384.24199999999996 35.132000000000005 385.606 33.988Q389.16999999999996 30.644 389.16999999999996 28.356Q389.16999999999996 25.716 387.43199999999996 24.352000000000004Q385.69399999999996 22.988000000000003 383.01 22.988000000000003Q378.16999999999996 22.988000000000003 375.662 27.872Q373.68199999999996 31.700000000000003 373.68199999999996 37.068Q373.68199999999996 41.028 375.662 43.844Q377.818 47.056 381.602 47.056Q384.55 47.056 386.68399999999997 45.428Q388.818 43.8 389.346 40.896ZM383.846 28.928Q383.846 31.436 381.558 33.856Q379.974 35.572 378.83 36.188Q378.346 34.648 378.346 32.668Q378.346 30.424 378.962 28.488Q379.842 25.892 381.734 25.892Q382.746 25.892 383.36199999999997 26.948Q383.846 27.828 383.846 28.928Z" fill="white"/>
  <path d="M406.24199999999996 40.368Q406.24199999999996 39.84 405.89 39.84Q405.45 39.84 404.92199999999997 40.588Q403.77799999999996 42.26 401.49 42.26Q398.27799999999996 42.26 396.782 38.52Q395.68199999999996 35.88 395.68199999999996 32.008Q395.68199999999996 29.5 396.606 27.564Q397.75 25.1 399.99399999999997 25.1Q401.27 25.1 401.27 25.848000000000003Q401.27 25.540000000000003 400.214 27.036Q399.202 28.576 399.202 29.412000000000003Q399.202 30.6 399.906 31.48L401.578 33.152Q401.88599999999997 33.46 402.19399999999996 33.46Q402.63399999999996 33.46 402.59 32.668Q402.45799999999997 31.524 403.294 30.952Q405.53799999999995 29.324 405.53799999999995 27.344Q405.53799999999995 25.364 403.822 24.088Q402.282 22.944000000000003 400.16999999999996 22.944000000000003Q395.54999999999995 22.944000000000003 393.08599999999996 27.52Q391.06199999999995 31.172 391.06199999999995 36.232Q391.06199999999995 40.808 392.822 43.624Q394.93399999999997 47.012 399.246 47.012Q401.974 47.012 403.734 45.384Q404.174 44.944 404.63599999999997 44.328Q405.09799999999996 43.712 405.44999999999993 43.008Q405.80199999999996 42.304 406.02199999999993 41.622Q406.24199999999996 40.94 406.24199999999996 40.368Z" fill="white"/>
  <path d="M425.074 45.164Q425.074 44.636 425.00800000000004 43.844Q424.942 43.052 424.854 42.04Q424.76599999999996 40.984 424.722 40.192Q424.678 39.4 424.678 38.872L424.76599999999996 34.472Q424.81 32.624 424.832 31.524Q424.854 30.424 424.854 30.028Q424.89799999999997 22.856 419.222 22.856Q416.49399999999997 22.856 414.998 24.616Q414.778 24.880000000000003 414.558 24.880000000000003Q414.25 24.880000000000003 414.33799999999997 24.396L414.46999999999997 21.976000000000003Q414.514 21.14 414.536 20.172Q414.558 19.204 414.558 18.060000000000002Q414.558 15.112000000000002 414.162 15.288Q412.094 16.388 410.68600000000004 17.114000000000004Q409.278 17.840000000000003 408.53 18.28Q407.738 18.808 408.222 19.732000000000003Q408.574 20.436 408.794 21.338Q409.014 22.240000000000002 409.102 23.384Q409.146 23.956 409.168 25.298000000000002Q409.19 26.64 409.19 28.796Q409.19 31.964 408.904 35.879999999999995Q408.618 39.796 408.046 44.592Q407.87 45.956 408.706 46.0Q411.61 46.044 414.03 46.0Q414.646 45.956 414.46999999999997 44.328Q414.294 42.92 414.206 40.984Q414.118 39.048 414.118 36.584Q414.118 32.492000000000004 414.294 31.48Q415.042 26.772000000000002 417.638 26.772000000000002Q419.96999999999997 26.772000000000002 419.662 33.284L419.222 42.436Q419.222 42.524 419.178 42.854Q419.134 43.184 419.046 43.712Q418.95799999999997 44.24 418.914 44.592Q418.87 44.944 418.87 45.12Q418.87 46.0 419.882 46.0H424.194Q425.074 46.0 425.074 45.164Z" fill="white"/>
  <path d="M443.24600000000004 45.164Q443.24600000000004 44.724 443.202 44.636Q442.93800000000005 43.316 442.87200000000007 41.776Q442.80600000000004 40.236000000000004 442.762 38.872Q442.718 37.992000000000004 442.74 36.892Q442.762 35.792 442.80600000000004 34.384Q442.93800000000005 30.908 442.93800000000005 29.94Q442.982 26.552 442.058 25.012Q440.87 23.12 437.57 23.12Q434.534 23.12 433.17 24.704Q432.95000000000005 24.924 432.81800000000004 24.924Q432.598 24.924 432.598 24.352Q432.598 23.692 431.63 23.648Q430.97 23.604000000000003 427.67 23.648Q426.74600000000004 23.648 427.01000000000005 24.748Q427.45000000000005 26.508000000000003 427.45000000000005 35.66Q427.45000000000005 37.64 427.29600000000005 39.862Q427.142 42.084 426.834 44.592Q426.658 45.912 427.31800000000004 46.0Q429.254 46.088 432.11400000000003 46.0Q432.642 45.912 432.68600000000004 45.34L432.55400000000003 44.328Q432.37800000000004 42.964 432.29 41.05Q432.202 39.136 432.202 36.584Q432.202 34.56 432.246 33.284000000000006Q432.29 32.008 432.37800000000004 31.48Q432.642 29.808 433.56600000000003 28.400000000000002Q434.666 26.684 436.16200000000003 26.684Q437.61400000000003 26.684 437.966 29.016000000000002Q438.05400000000003 29.676000000000002 438.076 30.754Q438.098 31.832 438.01 33.372L437.57 42.524Q437.57 42.788 437.30600000000004 43.844Q437.086 44.944 437.086 45.208Q437.086 46.0 438.05400000000003 46.0H442.36600000000004Q443.24600000000004 46.0 443.24600000000004 45.164Z" fill="white"/>
  <path d="M461.63800000000003 34.34Q461.63800000000003 29.676000000000002 459.79 26.288Q457.546 22.196 453.19 22.196Q451.07800000000003 22.196 449.714 23.032Q447.998 24.044 447.998 25.98Q447.998 27.388 449.31800000000004 27.96Q444.962 30.292 444.962 35.704Q444.962 40.236000000000004 446.81 43.052Q448.966 46.352 453.23400000000004 46.352Q457.414 46.352 459.74600000000004 42.26Q461.63800000000003 38.916 461.63800000000003 34.34ZM458.426 35.528Q458.426 37.728 457.37 39.224000000000004Q456.182 40.896 454.07 40.896Q451.78200000000004 40.896 450.50600000000003 38.696Q449.406 36.892 449.406 34.384Q449.406 29.632 452.706 29.148Q453.19 29.060000000000002 453.19 28.708000000000002Q453.19 27.96 451.78200000000004 27.608Q452.398 27.256 453.85 27.872Q456.00600000000003 28.708000000000002 457.28200000000004 30.996000000000002Q458.426 33.064 458.426 35.528Z" fill="white"/>
  <path d="M470.306 15.684000000000001Q470.306 14.848000000000003 469.822 14.848000000000003Q469.558 14.848000000000003 469.118 15.112000000000002Q467.842 15.860000000000003 466.58799999999997 16.432000000000002Q465.334 17.004 464.146 17.444000000000003Q463.222 17.796000000000003 463.222 18.236Q463.222 18.5 463.442 19.028000000000002Q463.75 19.688000000000002 463.97 20.678000000000004Q464.19 21.668000000000003 464.27799999999996 23.032Q464.322 23.34 464.322 24.748Q464.322 26.156000000000002 464.322 28.796Q464.322 40.456 463.794 44.592Q463.618 45.956 464.454 46.0Q467.358 46.044 469.77799999999996 46.0Q470.394 45.956 470.21799999999996 44.328Q469.866 41.292 469.668 39.356Q469.46999999999997 37.42 469.514 36.584L469.998 19.380000000000003Q470.042 18.94 470.042 18.720000000000002Q470.042 18.456000000000003 470.042 18.412000000000003Q470.21799999999996 16.212000000000003 470.306 15.684000000000001Z" fill="white"/>
  <path d="M488.742 34.34Q488.742 29.676000000000002 486.894 26.288Q484.65 22.196 480.294 22.196Q478.182 22.196 476.818 23.032Q475.102 24.044 475.102 25.98Q475.102 27.388 476.422 27.96Q472.066 30.292 472.066 35.704Q472.066 40.236000000000004 473.914 43.052Q476.07 46.352 480.338 46.352Q484.51800000000003 46.352 486.85 42.26Q488.742 38.916 488.742 34.34ZM485.53 35.528Q485.53 37.728 484.474 39.224000000000004Q483.286 40.896 481.174 40.896Q478.886 40.896 477.61 38.696Q476.51 36.892 476.51 34.384Q476.51 29.632 479.81 29.148Q480.294 29.060000000000002 480.294 28.708000000000002Q480.294 27.96 478.886 27.608Q479.502 27.256 480.954 27.872Q483.11 28.708000000000002 484.386 30.996000000000002Q485.53 33.064 485.53 35.528Z" fill="white"/>
  <path d="M508.19 25.672Q508.19 25.32 507.30999999999995 25.056Q507.00199999999995 24.968 506.69399999999996 24.924Q506.38599999999997 24.880000000000003 506.078 24.792Q505.066 24.308 504.34 23.978Q503.614 23.648 503.262 23.472Q501.546 22.944000000000003 500.18199999999996 22.944000000000003Q495.518 23.032 492.83399999999995 26.948Q490.50199999999995 30.424 490.414 35.264Q490.32599999999996 42.26 495.25399999999996 45.472Q495.914 45.956 495.914 46.22Q495.914 46.484 494.726 47.584Q492.13 50.048 491.822 50.224000000000004Q491.03 50.84 491.03 51.324Q491.03 51.763999999999996 491.64599999999996 52.512Q494.198 55.68 498.07 55.68Q502.46999999999997 55.68 505.198 51.984Q507.662 48.64 507.662 44.152Q507.662 43.184 507.55199999999996 41.754Q507.44199999999995 40.324 507.222 38.344Q507.00199999999995 36.364000000000004 506.89199999999994 34.934000000000005Q506.782 33.504000000000005 506.782 32.536Q506.782 29.324 507.83799999999997 26.728Q508.19 25.804000000000002 508.19 25.672ZM502.118 40.5Q502.118 41.82 500.666 41.82Q498.46599999999995 41.82 496.618 37.42Q495.034 33.68 495.034 31.084000000000003Q495.034 29.28 495.782 27.916Q496.70599999999996 26.288 498.42199999999997 26.288Q499.39 26.288 500.27 26.904Q500.402 26.992 501.722 28.224Q501.722 29.104 501.59 30.864Q501.546 31.744 501.524 32.403999999999996Q501.50199999999995 33.064 501.50199999999995 33.504000000000005Q501.50199999999995 34.120000000000005 501.568 35.0Q501.63399999999996 35.88 501.80999999999995 37.024Q501.986 38.168 502.052 39.025999999999996Q502.118 39.884 502.118 40.5ZM503.57 48.244Q503.57 49.828 502.426 51.104Q501.282 52.38 499.786 52.38Q498.72999999999996 52.38 497.40999999999997 51.016Q496.046 49.696 496.39799999999997 48.948Q496.44199999999995 48.903999999999996 496.46399999999994 48.86Q496.486 48.816 496.53 48.772Q497.89399999999995 47.54 499.236 46.373999999999995Q500.578 45.208 501.94199999999995 44.064Q502.558 43.58 502.734 43.58Q502.998 43.58 503.08599999999996 43.844Q503.57 45.164 503.57 48.244Z" fill="white"/>
  <path d="M516.0659999999999 18.676000000000002Q516.0219999999999 17.532 515.1859999999999 16.696Q514.3499999999999 15.860000000000003 513.2059999999999 15.904000000000002Q512.0619999999999 15.948 511.2259999999999 16.784Q510.38999999999993 17.62 510.43399999999997 18.764000000000003Q510.47799999999995 19.908 511.31399999999996 20.744Q512.15 21.580000000000002 513.294 21.536Q514.438 21.492 515.2739999999999 20.656Q516.1099999999999 19.82 516.0659999999999 18.676000000000002ZM515.7579999999999 25.672Q516.0659999999999 23.560000000000002 515.054 23.560000000000002H511.18199999999996Q510.258 23.560000000000002 510.258 24.528000000000002Q510.258 24.792 510.30199999999996 24.968Q510.566 26.376 510.566 35.44Q510.566 37.948 510.412 40.214Q510.258 42.480000000000004 509.94999999999993 44.592Q509.72999999999996 46.0 510.8299999999999 46.0H512.722H513.822H514.6139999999999Q515.8019999999999 46.0 515.67 43.976Q515.4499999999999 40.412 515.3399999999999 37.86Q515.2299999999999 35.308 515.2299999999999 33.68Q515.2299999999999 28.972 515.7579999999999 25.672Z" fill="white"/>
  <path d="M533.446 40.896Q533.622 39.928 532.874 39.928Q532.4780000000001 39.928 532.038 40.588Q530.7620000000001 42.436 528.342 42.436Q525.79 42.436 524.162 39.796Q523.766 39.136 524.338 38.608000000000004Q525.702 37.464 527.0219999999999 36.298Q528.342 35.132000000000005 529.706 33.988Q533.27 30.644 533.27 28.356Q533.27 25.716 531.5319999999999 24.352000000000004Q529.794 22.988000000000003 527.11 22.988000000000003Q522.27 22.988000000000003 519.7620000000001 27.872Q517.782 31.700000000000003 517.782 37.068Q517.782 41.028 519.7620000000001 43.844Q521.918 47.056 525.702 47.056Q528.65 47.056 530.784 45.428Q532.918 43.8 533.446 40.896ZM527.946 28.928Q527.946 31.436 525.658 33.856Q524.074 35.572 522.9300000000001 36.188Q522.446 34.648 522.446 32.668Q522.446 30.424 523.062 28.488Q523.942 25.892 525.8340000000001 25.892Q526.846 25.892 527.462 26.948Q527.946 27.828 527.946 28.928Z" fill="white"/>
  <path d="M550.65 40.192Q550.65 36.672 548.494 34.692Q547.042 33.372 543.302 31.964Q540.178 30.864 539.606 30.512Q537.714 29.544 537.714 28.048000000000002Q537.714 27.344 538.242 26.86Q538.77 26.376 539.518 26.376Q540.3100000000001 26.376 542.466 27.476000000000003Q544.666 28.576 545.898 28.576Q548.802 28.576 548.802 25.584Q548.802 24.704 548.45 24.220000000000002Q548.01 23.560000000000002 547.174 23.912000000000003Q546.558 24.176000000000002 545.59 24.176000000000002Q544.886 24.176000000000002 543.2139999999999 23.824Q541.542 23.472 540.838 23.472Q539.606 23.472 538.572 23.912Q537.538 24.352 536.812 25.1Q536.086 25.848000000000003 535.69 26.926000000000002Q535.294 28.004 535.294 29.236Q535.294 32.316 536.7239999999999 34.120000000000005Q538.154 35.924 540.926 36.848L545.942 38.564Q548.274 39.708 548.274 41.16Q548.274 42.7 546.25 42.7Q545.282 42.7 542.818 41.6Q540.354 40.5 538.99 40.5Q537.274 40.5 536.262 41.468Q535.25 42.436 535.25 44.108Q535.25 46.132 536.174 46.132Q536.394 46.132 536.482 46.088Q537.01 45.824 537.538 45.56Q538.066 45.296 539.034 45.296Q539.914 45.296 542.0699999999999 45.78Q544.226 46.264 545.194 46.264Q547.746 46.264 549.242 44.504Q550.65 42.832 550.65 40.192Z" fill="white"/>
</svg>